<?xml version="1.0" encoding="utf-8"?>
<!-- Generator: Adobe Illustrator 25.0.0, SVG Export Plug-In . SVG Version: 6.00 Build 0)  -->
<svg version="1.1" id="Calque_1" xmlns="http://www.w3.org/2000/svg" xmlns:xlink="http://www.w3.org/1999/xlink" x="0px" y="0px"
	 viewBox="0 0 114.1 83.6" style="enable-background:new 0 0 114.1 83.6;" xml:space="preserve">
<style type="text/css">
	.st0{fill:#A97F39;}
	.st1{fill:#192F59;}
</style>
<g id="Groupe_5898">
	<path id="Tracé_2614" class="st0" d="M30.1,66.6c-0.6-0.1-1.1-0.4-1.6-0.8l0.5-0.9c0.4,0.3,0.9,0.6,1.4,0.7
		c0.6,0.2,1.2,0.3,1.8,0.3c0.6,0,1.3-0.1,1.8-0.4c0.4-0.2,0.6-0.5,0.6-0.9c0-0.3-0.1-0.5-0.3-0.7c-0.2-0.2-0.5-0.3-0.8-0.4
		c-0.3-0.1-0.8-0.2-1.4-0.3c-0.6-0.1-1.2-0.3-1.8-0.5c-0.4-0.1-0.8-0.4-1.2-0.7c-0.3-0.3-0.5-0.8-0.5-1.3c0-0.4,0.1-0.9,0.4-1.2
		c0.3-0.4,0.8-0.7,1.3-0.9c0.7-0.2,1.4-0.3,2.1-0.3c0.6,0,1.2,0.1,1.7,0.2c0.5,0.1,1,0.3,1.5,0.6l-0.5,1c-0.4-0.2-0.9-0.4-1.3-0.5
		c-0.5-0.1-0.9-0.2-1.4-0.2c-0.6,0-1.2,0.1-1.8,0.4c-0.4,0.2-0.6,0.6-0.6,1c0,0.3,0.1,0.5,0.3,0.7c0.2,0.2,0.5,0.3,0.8,0.4
		c0.3,0.1,0.8,0.2,1.4,0.3c0.6,0.1,1.2,0.3,1.8,0.5c0.4,0.1,0.8,0.4,1.2,0.7c0.3,0.3,0.5,0.8,0.5,1.3c0,0.4-0.1,0.9-0.4,1.2
		c-0.3,0.4-0.8,0.7-1.3,0.9c-0.7,0.2-1.4,0.3-2.1,0.3C31.5,66.9,30.8,66.8,30.1,66.6z"/>
	<path id="Tracé_2615" class="st0" d="M39.8,66.4c-0.8-0.3-1.4-0.9-1.9-1.5c-0.5-0.6-0.7-1.4-0.7-2.2c0-0.8,0.2-1.6,0.7-2.2
		c0.5-0.7,1.1-1.2,1.9-1.5c0.8-0.4,1.8-0.6,2.7-0.6c0.9,0,1.8,0.2,2.7,0.6c0.8,0.3,1.4,0.9,1.9,1.5c0.4,0.6,0.7,1.4,0.7,2.2
		c0,0.8-0.2,1.6-0.7,2.2c-0.5,0.7-1.1,1.2-1.9,1.5c-0.8,0.4-1.8,0.6-2.7,0.6C41.6,67,40.7,66.8,39.8,66.4z M44.5,65.4
		c0.6-0.3,1-0.7,1.4-1.2c0.3-0.5,0.5-1.1,0.5-1.6c0-0.6-0.2-1.2-0.5-1.6c-0.3-0.5-0.8-0.9-1.4-1.2c-0.6-0.3-1.3-0.4-2-0.4
		c-0.7,0-1.3,0.1-2,0.4c-0.6,0.3-1,0.7-1.4,1.2c-0.3,0.5-0.5,1.1-0.5,1.6c0,0.6,0.2,1.2,0.5,1.6c0.3,0.5,0.8,0.9,1.4,1.2
		c0.6,0.3,1.3,0.4,2,0.4C43.2,65.9,43.9,65.7,44.5,65.4L44.5,65.4z"/>
	<path id="Tracé_2616" class="st0" d="M50.9,66c-0.8-0.7-1.2-1.7-1.1-2.8v-4.8h1.4v4.7c0,1.8,0.9,2.7,2.8,2.7
		c0.7,0.1,1.5-0.2,2.1-0.7c0.5-0.5,0.8-1.3,0.7-2v-4.7h1.4v4.8c0.1,1-0.3,2.1-1.1,2.8c-0.9,0.7-2,1-3.1,1C52.9,67,51.8,66.7,50.9,66
		z"/>
	<path id="Tracé_2617" class="st0" d="M61.8,66.6c-0.6-0.1-1.1-0.4-1.6-0.8l0.5-0.9c0.4,0.3,0.9,0.6,1.4,0.7
		c0.6,0.2,1.2,0.3,1.8,0.3c0.6,0,1.3-0.1,1.8-0.4c0.4-0.2,0.6-0.5,0.6-0.9c0-0.3-0.1-0.5-0.3-0.7c-0.2-0.2-0.5-0.3-0.8-0.4
		c-0.3-0.1-0.8-0.2-1.4-0.3c-0.6-0.1-1.2-0.3-1.8-0.5c-0.4-0.1-0.8-0.4-1.2-0.7c-0.3-0.3-0.5-0.8-0.5-1.3c0-0.4,0.1-0.9,0.4-1.2
		c0.3-0.4,0.8-0.7,1.3-0.9c0.7-0.2,1.4-0.3,2.1-0.3c0.6,0,1.2,0.1,1.7,0.2c0.5,0.1,1,0.3,1.5,0.6l-0.5,1c-0.4-0.2-0.9-0.4-1.3-0.5
		c-0.5-0.1-0.9-0.2-1.4-0.2c-0.6,0-1.2,0.1-1.8,0.4c-0.4,0.2-0.6,0.6-0.6,1c0,0.3,0.1,0.5,0.3,0.7c0.2,0.2,0.5,0.3,0.8,0.4
		c0.3,0.1,0.8,0.2,1.4,0.3c0.6,0.1,1.2,0.3,1.8,0.5c0.4,0.1,0.8,0.4,1.2,0.7c0.3,0.3,0.5,0.8,0.5,1.3c0,0.4-0.1,0.9-0.4,1.2
		c-0.3,0.4-0.8,0.7-1.3,0.9c-0.7,0.2-1.4,0.3-2.1,0.3C63.2,66.9,62.5,66.8,61.8,66.6z"/>
	<path id="Tracé_2618" class="st0" d="M70.5,66.6c-0.6-0.1-1.1-0.4-1.6-0.8l0.5-0.9c0.4,0.3,0.9,0.6,1.4,0.7
		c0.6,0.2,1.2,0.3,1.8,0.3c0.6,0,1.3-0.1,1.8-0.4c0.4-0.2,0.6-0.5,0.6-0.9c0-0.3-0.1-0.5-0.3-0.7c-0.2-0.2-0.5-0.3-0.8-0.4
		c-0.3-0.1-0.8-0.2-1.4-0.3c-0.6-0.1-1.2-0.3-1.8-0.5c-0.4-0.1-0.8-0.4-1.2-0.7c-0.3-0.3-0.5-0.8-0.5-1.3c0-0.4,0.1-0.9,0.4-1.2
		c0.3-0.4,0.8-0.7,1.3-0.9c0.7-0.2,1.4-0.3,2.1-0.3c0.6,0,1.2,0.1,1.7,0.2c0.5,0.1,1,0.3,1.5,0.6l-0.5,1c-0.4-0.2-0.9-0.4-1.3-0.5
		c-0.5-0.1-0.9-0.2-1.4-0.2c-0.6,0-1.2,0.1-1.8,0.4c-0.4,0.2-0.6,0.6-0.6,1c0,0.3,0.1,0.5,0.3,0.7c0.2,0.2,0.5,0.3,0.8,0.4
		c0.3,0.1,0.8,0.2,1.4,0.3c0.6,0.1,1.2,0.3,1.8,0.5c0.4,0.1,0.8,0.4,1.2,0.7c0.3,0.3,0.5,0.8,0.5,1.3c0,0.4-0.1,0.9-0.4,1.2
		c-0.3,0.4-0.8,0.7-1.3,0.9c-0.7,0.2-1.4,0.3-2.1,0.3C71.9,66.9,71.2,66.8,70.5,66.6z"/>
	<path id="Tracé_2619" class="st0" d="M85.7,65.8v1h-7.2v-8.4h7v1H80v2.6h5v1H80v2.7H85.7z"/>
</g>
<path id="Tracé_2620" class="st1" d="M7.5,48.3H0V0h7.5V48.3z"/>
<path id="Tracé_2621" class="st1" d="M110.2,26H85.6v17.1h28.6v5.2H78.1V0h35.7v5.2H85.6v15.6h24.6L110.2,26z"/>
<path id="Tracé_2622" class="st1" d="M21.2,29.3v19h7.5V30c-0.4,0-0.9,0-1.3,0C25.3,30,23.2,29.7,21.2,29.3z"/>
<path id="Tracé_2623" class="st1" d="M28.7,23.6V0h-7.5v22c2.1,0.8,4.3,1.3,6.5,1.5C28,23.6,28.3,23.6,28.7,23.6z"/>
<path id="Tracé_2624" class="st1" d="M60.1,22.1c-0.9,0.4-1.9,0.8-2.9,1.2v25h7.5V20C63.2,20.7,61.7,21.4,60.1,22.1z"/>
<path id="Tracé_2625" class="st1" d="M64.8,16.9V0h-7.5v19.5c0.8-0.2,1.6-0.5,2.3-0.7C61.3,18.1,63.1,17.5,64.8,16.9z"/>
<path id="Tracé_2626" class="st0" d="M64.8,18.9c-1.7,0.6-3.4,1.3-5.2,1.8c-0.8,0.3-1.6,0.5-2.3,0.7c-4.4,1.4-9,2.5-13.6,3.4
	c-5,0.9-10,1.2-15,0.8c-0.3,0-0.6,0-1-0.1c-2.2-0.3-4.4-0.8-6.5-1.5c-2.6-0.9-4.9-2.3-6.9-4.2l0,0.1v7c1.4,0.7,2.8,1.3,4.3,1.8
	c0.9,0.3,1.8,0.5,2.6,0.7c2,0.4,4.1,0.7,6.2,0.7c0.4,0,0.9,0,1.3,0c5.3-0.1,10.6-0.9,15.7-2.3c4.4-1.2,8.7-2.7,12.9-4.4
	c1-0.4,1.9-0.8,2.9-1.2c1.6-0.7,3.1-1.4,4.7-2.1c3.5-1.7,6.9-3.4,10.2-5.4C71.7,16.2,68.2,17.6,64.8,18.9z"/>
<g id="Groupe_5899">
	<rect id="Rectangle_3712" y="70.8" class="st1" width="114.1" height="1"/>
</g>
<g id="Groupe_5901">
	<path id="Tracé_2627" class="st1" d="M5.7,80.4c0.2,0.3,0.4,0.7,0.4,1.1c0,0.6-0.2,1.1-0.7,1.4c-0.6,0.4-1.3,0.5-2,0.5H0v-7.1h3.2
		c0.7,0,1.3,0.1,1.9,0.5c0.4,0.3,0.7,0.8,0.7,1.3c0,0.3-0.1,0.7-0.3,1c-0.2,0.3-0.4,0.5-0.7,0.6C5.1,79.9,5.5,80.1,5.7,80.4z
		 M1,77.2v2.3h2.1c0.4,0,0.8-0.1,1.2-0.3c0.3-0.2,0.4-0.5,0.4-0.8c0-0.3-0.1-0.7-0.4-0.8c-0.4-0.2-0.8-0.3-1.2-0.3L1,77.2z
		 M4.6,82.4c0.3-0.2,0.5-0.5,0.4-0.9c0-0.8-0.6-1.2-1.7-1.2H1v2.4h2.3C3.8,82.7,4.2,82.6,4.6,82.4L4.6,82.4z"/>
	<path id="Tracé_2628" class="st1" d="M12.5,78.1v5.3h-0.9v-0.8c-0.2,0.3-0.5,0.5-0.8,0.6c-0.3,0.2-0.7,0.2-1,0.2
		c-0.6,0-1.2-0.2-1.7-0.6c-0.4-0.5-0.7-1.1-0.6-1.7v-3.1h1v3c0,0.4,0.1,0.8,0.4,1.2c0.3,0.3,0.7,0.4,1.1,0.4c0.5,0,0.9-0.1,1.2-0.5
		c0.3-0.4,0.5-0.8,0.4-1.3v-2.8L12.5,78.1z"/>
	<path id="Tracé_2629" class="st1" d="M14.6,83.4c-0.3-0.1-0.7-0.2-0.9-0.5l0.4-0.8c0.3,0.2,0.6,0.3,0.9,0.4c0.3,0.1,0.7,0.2,1,0.2
		c0.8,0,1.3-0.2,1.3-0.7c0-0.1-0.1-0.3-0.2-0.4c-0.1-0.1-0.3-0.2-0.4-0.2c-0.2,0-0.4-0.1-0.7-0.1c-0.4-0.1-0.7-0.1-1.1-0.2
		c-0.3-0.1-0.5-0.2-0.7-0.4c-0.2-0.2-0.3-0.6-0.3-0.9c0-0.5,0.2-0.9,0.6-1.2c0.5-0.3,1.1-0.5,1.6-0.4c0.4,0,0.7,0,1.1,0.1
		c0.3,0.1,0.6,0.2,0.9,0.4l-0.4,0.8c-0.5-0.3-1-0.4-1.5-0.4c-0.3,0-0.7,0-0.9,0.2c-0.2,0.1-0.3,0.3-0.3,0.5c0,0.2,0.1,0.3,0.2,0.4
		c0.1,0.1,0.3,0.2,0.4,0.2c0.2,0,0.4,0.1,0.8,0.2c0.4,0.1,0.7,0.1,1,0.2c0.3,0.1,0.5,0.2,0.7,0.4c0.2,0.2,0.3,0.5,0.3,0.8
		c0,0.5-0.2,0.9-0.6,1.2c-0.5,0.3-1.1,0.5-1.7,0.4C15.4,83.5,15,83.5,14.6,83.4z"/>
	<path id="Tracé_2630" class="st1" d="M19.4,76.9c-0.1-0.1-0.2-0.3-0.2-0.4c0-0.2,0.1-0.3,0.2-0.4c0.1-0.1,0.3-0.2,0.5-0.2
		c0.2,0,0.3,0.1,0.5,0.2c0.1,0.1,0.2,0.3,0.2,0.4c0,0.2-0.1,0.3-0.2,0.5c-0.1,0.1-0.3,0.2-0.5,0.2C19.7,77.1,19.5,77,19.4,76.9z
		 M19.4,78.1h1v5.3h-1V78.1z"/>
	<path id="Tracé_2631" class="st1" d="M26.7,78.7c0.4,0.5,0.6,1.1,0.6,1.7v3.1h-1v-3c0-0.4-0.1-0.8-0.4-1.2
		c-0.3-0.3-0.7-0.4-1.1-0.4c-0.5,0-0.9,0.1-1.2,0.5c-0.3,0.4-0.5,0.8-0.5,1.3v2.8h-1v-5.3h0.9v0.8c0.2-0.3,0.5-0.5,0.8-0.6
		c0.4-0.2,0.7-0.2,1.1-0.2C25.7,78,26.2,78.3,26.7,78.7z"/>
	<path id="Tracé_2632" class="st1" d="M33.9,81.1h-4.3c0,0.4,0.3,0.9,0.6,1.1c0.4,0.3,0.8,0.4,1.3,0.4c0.6,0,1.1-0.2,1.5-0.6
		l0.5,0.6c-0.2,0.3-0.6,0.5-0.9,0.6c-0.4,0.2-0.8,0.2-1.2,0.2c-0.5,0-1-0.1-1.5-0.3c-0.4-0.2-0.8-0.6-1-1c-0.2-0.4-0.4-0.9-0.4-1.4
		c0-0.5,0.1-1,0.3-1.4c0.2-0.4,0.6-0.7,1-1c0.4-0.2,0.9-0.4,1.4-0.3c0.5,0,1,0.1,1.4,0.3c0.4,0.2,0.7,0.6,0.9,1
		c0.2,0.4,0.3,0.9,0.3,1.4C33.9,80.9,33.9,81,33.9,81.1z M30.1,79.3c-0.3,0.3-0.5,0.7-0.5,1.1H33c0-0.4-0.2-0.8-0.6-1.1
		c-0.3-0.3-0.7-0.4-1.2-0.4C30.9,78.9,30.4,79,30.1,79.3z"/>
	<path id="Tracé_2633" class="st1" d="M35.6,83.4c-0.3-0.1-0.7-0.2-0.9-0.5l0.4-0.8c0.3,0.2,0.6,0.3,0.9,0.4c0.3,0.1,0.7,0.2,1,0.2
		c0.8,0,1.3-0.2,1.3-0.7c0-0.1-0.1-0.3-0.2-0.4c-0.1-0.1-0.3-0.2-0.4-0.2c-0.2,0-0.4-0.1-0.7-0.1c-0.4-0.1-0.7-0.1-1.1-0.2
		c-0.3-0.1-0.5-0.2-0.7-0.4c-0.2-0.2-0.3-0.6-0.3-0.9c0-0.5,0.2-0.9,0.6-1.2c0.5-0.3,1.1-0.5,1.6-0.4c0.4,0,0.7,0,1.1,0.1
		c0.3,0.1,0.6,0.2,0.9,0.4l-0.4,0.8c-0.5-0.3-1-0.4-1.5-0.4c-0.3,0-0.7,0-0.9,0.2c-0.2,0.1-0.3,0.3-0.3,0.5c0,0.2,0.1,0.3,0.2,0.4
		c0.1,0.1,0.3,0.2,0.4,0.2c0.2,0,0.4,0.1,0.8,0.2c0.4,0.1,0.7,0.1,1,0.2c0.3,0.1,0.5,0.2,0.7,0.4c0.2,0.2,0.3,0.5,0.3,0.8
		c0,0.5-0.2,0.9-0.6,1.2c-0.5,0.3-1.1,0.5-1.7,0.4C36.4,83.5,36,83.5,35.6,83.4z"/>
	<path id="Tracé_2634" class="st1" d="M40.6,83.4c-0.3-0.1-0.7-0.2-0.9-0.5l0.4-0.8c0.3,0.2,0.6,0.3,0.9,0.4c0.3,0.1,0.7,0.2,1,0.2
		c0.8,0,1.3-0.2,1.3-0.7c0-0.1-0.1-0.3-0.2-0.4c-0.1-0.1-0.3-0.2-0.4-0.2c-0.2,0-0.4-0.1-0.7-0.1c-0.4-0.1-0.7-0.1-1.1-0.2
		c-0.3-0.1-0.5-0.2-0.7-0.4c-0.2-0.2-0.3-0.6-0.3-0.9c0-0.5,0.2-0.9,0.6-1.2c0.5-0.3,1.1-0.5,1.6-0.4c0.4,0,0.7,0,1.1,0.1
		c0.3,0.1,0.6,0.2,0.9,0.4l-0.4,0.8c-0.5-0.3-1-0.4-1.5-0.4c-0.3,0-0.7,0-0.9,0.2c-0.2,0.1-0.3,0.3-0.3,0.5c0,0.2,0.1,0.3,0.2,0.4
		c0.1,0.1,0.3,0.2,0.4,0.2c0.2,0,0.4,0.1,0.8,0.2c0.4,0.1,0.7,0.1,1,0.2c0.3,0.1,0.5,0.2,0.7,0.4c0.2,0.2,0.3,0.5,0.3,0.8
		c0,0.5-0.2,0.9-0.6,1.2c-0.5,0.3-1.1,0.5-1.7,0.4C41.4,83.5,41,83.5,40.6,83.4z"/>
	<path id="Tracé_2635" class="st1" d="M53.4,83.6l-0.9-0.9c-0.6,0.6-1.5,0.9-2.4,0.9c-0.4,0-0.9-0.1-1.3-0.2
		c-0.3-0.1-0.7-0.4-0.9-0.7c-0.2-0.3-0.3-0.6-0.3-1c0-0.4,0.1-0.8,0.4-1.1c0.4-0.4,0.8-0.8,1.3-1c-0.3-0.2-0.5-0.5-0.7-0.8
		c-0.1-0.2-0.2-0.5-0.2-0.8c0-0.4,0.2-0.9,0.5-1.2c0.4-0.3,0.9-0.5,1.4-0.4c0.5,0,0.9,0.1,1.3,0.4c0.3,0.3,0.5,0.7,0.5,1.1
		c0,0.4-0.1,0.7-0.3,1c-0.3,0.4-0.7,0.7-1.2,0.9l1.7,1.7c0.2-0.4,0.4-0.8,0.4-1.3l0.8,0.3c-0.1,0.6-0.3,1.1-0.6,1.6l0.9,0.9
		L53.4,83.6z M51.9,82.1l-2-2c-0.4,0.2-0.7,0.4-1,0.8c-0.2,0.2-0.3,0.5-0.3,0.8c0,0.3,0.2,0.6,0.4,0.8c0.3,0.2,0.7,0.3,1.1,0.3
		C50.8,82.8,51.4,82.5,51.9,82.1L51.9,82.1z M49.7,77.3c-0.2,0.2-0.3,0.4-0.3,0.6c0,0.2,0.1,0.4,0.1,0.5c0.2,0.2,0.4,0.5,0.6,0.7
		c0.4-0.2,0.7-0.4,1-0.7c0.2-0.2,0.3-0.4,0.3-0.6c0-0.2-0.1-0.4-0.2-0.6c-0.2-0.2-0.4-0.2-0.7-0.2C50.1,77,49.9,77.1,49.7,77.3
		L49.7,77.3z"/>
	<path id="Tracé_2636" class="st1" d="M57.9,76.4h1v6.2h3.8v0.9h-4.8V76.4z"/>
	<path id="Tracé_2637" class="st1" d="M67.4,78.6c0.4,0.4,0.6,1,0.6,1.6v3.2h-0.9v-0.7c-0.2,0.3-0.4,0.5-0.7,0.6
		c-0.3,0.1-0.7,0.2-1.1,0.2c-0.5,0-1-0.1-1.4-0.4c-0.4-0.3-0.6-0.7-0.5-1.1c0-0.4,0.2-0.9,0.5-1.1c0.5-0.3,1.1-0.5,1.6-0.4H67v-0.2
		c0-0.4-0.1-0.7-0.4-1c-0.3-0.2-0.7-0.4-1.1-0.3c-0.3,0-0.6,0.1-0.9,0.2c-0.3,0.1-0.5,0.2-0.8,0.4l-0.4-0.7c0.3-0.2,0.6-0.4,1-0.5
		c0.4-0.1,0.8-0.2,1.2-0.2C66.3,78,66.9,78.2,67.4,78.6z M66.5,82.5c0.3-0.2,0.5-0.4,0.6-0.7v-0.7h-1.5c-0.8,0-1.2,0.3-1.2,0.8
		c0,0.3,0.1,0.5,0.3,0.6c0.3,0.2,0.6,0.2,0.9,0.2C65.8,82.8,66.2,82.7,66.5,82.5z"/>
	<path id="Tracé_2638" class="st1" d="M77.8,78.1l-2,5.3h-0.9l-1.5-4.1l-1.6,4.1h-0.9l-2-5.3h0.9l1.6,4.3l1.6-4.3h0.8l1.6,4.3
		l1.6-4.3H77.8z"/>
	<path id="Tracé_2639" class="st1" d="M82.1,83.3c-0.4-0.1-0.8-0.3-1.2-0.6l0.4-0.8c0.3,0.3,0.7,0.5,1,0.6c0.4,0.2,0.9,0.2,1.3,0.2
		c0.5,0,0.9-0.1,1.3-0.3c0.3-0.2,0.4-0.5,0.4-0.8c0-0.2-0.1-0.4-0.2-0.6c-0.2-0.2-0.4-0.3-0.6-0.3c-0.2-0.1-0.6-0.2-1-0.3
		c-0.4-0.1-0.9-0.2-1.3-0.4c-0.3-0.1-0.6-0.3-0.8-0.6c-0.2-0.3-0.4-0.7-0.3-1.1c0-0.4,0.1-0.7,0.3-1c0.2-0.3,0.5-0.6,0.9-0.7
		c0.5-0.2,1-0.3,1.5-0.3c0.4,0,0.8,0.1,1.2,0.2c0.4,0.1,0.7,0.3,1,0.5l-0.3,0.8c-0.3-0.2-0.6-0.3-0.9-0.4c-0.3-0.1-0.7-0.1-1-0.1
		c-0.5,0-0.9,0.1-1.3,0.3c-0.3,0.2-0.4,0.5-0.4,0.8c0,0.2,0.1,0.4,0.2,0.6c0.2,0.2,0.4,0.3,0.6,0.4c0.3,0.1,0.6,0.2,1,0.3
		c0.4,0.1,0.9,0.2,1.3,0.4c0.3,0.1,0.6,0.3,0.8,0.6c0.2,0.3,0.4,0.7,0.3,1.1c0,0.4-0.1,0.7-0.3,1c-0.2,0.3-0.5,0.6-0.9,0.7
		c-0.5,0.2-1,0.3-1.5,0.3C83.2,83.6,82.6,83.5,82.1,83.3z"/>
	<path id="Tracé_2640" class="st1" d="M88.6,83.2c-0.4-0.2-0.8-0.6-1-1c-0.2-0.4-0.4-0.9-0.4-1.4c0-0.5,0.1-1,0.4-1.4
		c0.2-0.4,0.6-0.7,1-1c0.4-0.2,1-0.4,1.5-0.3c0.5,0,0.9,0.1,1.3,0.3c0.4,0.2,0.7,0.5,0.9,0.8l-0.7,0.5c-0.2-0.2-0.4-0.4-0.6-0.6
		c-0.3-0.1-0.5-0.2-0.8-0.2c-0.3,0-0.7,0.1-0.9,0.2c-0.3,0.2-0.5,0.4-0.7,0.7c-0.2,0.3-0.2,0.6-0.2,1c0,0.3,0.1,0.7,0.2,1
		c0.2,0.3,0.4,0.5,0.7,0.7c0.3,0.2,0.6,0.2,0.9,0.2c0.3,0,0.6-0.1,0.8-0.2c0.3-0.1,0.5-0.3,0.6-0.6l0.7,0.5
		c-0.2,0.4-0.5,0.7-0.9,0.9c-0.4,0.2-0.8,0.3-1.3,0.3C89.6,83.5,89.1,83.4,88.6,83.2z"/>
	<path id="Tracé_2641" class="st1" d="M97.9,78.7c0.4,0.5,0.6,1.1,0.6,1.7v3.1h-1v-3c0-0.4-0.1-0.8-0.4-1.2
		c-0.3-0.3-0.7-0.4-1.1-0.4c-0.5,0-0.9,0.1-1.2,0.5c-0.3,0.4-0.5,0.8-0.5,1.3v2.8h-1V76h1v2.9c0.2-0.3,0.5-0.5,0.8-0.6
		c0.3-0.1,0.7-0.2,1.1-0.2C96.9,78,97.5,78.3,97.9,78.7z"/>
	<path id="Tracé_2642" class="st1" d="M101.2,83.2c-0.4-0.2-0.8-0.6-1-1c-0.2-0.4-0.4-0.9-0.4-1.4c0-0.5,0.1-1,0.4-1.4
		c0.2-0.4,0.6-0.7,1-1c0.4-0.2,0.9-0.4,1.4-0.3c0.5,0,1,0.1,1.4,0.3c0.4,0.2,0.8,0.6,1,1c0.2,0.4,0.4,0.9,0.4,1.4
		c0,0.5-0.1,1-0.4,1.4c-0.2,0.4-0.6,0.7-1,1c-0.4,0.2-0.9,0.4-1.4,0.4C102.1,83.5,101.6,83.4,101.2,83.2z M103.6,82.4
		c0.3-0.2,0.5-0.4,0.6-0.7c0.2-0.3,0.2-0.6,0.2-1c0-0.3-0.1-0.7-0.2-1c-0.1-0.3-0.4-0.5-0.6-0.7c-0.3-0.2-0.6-0.2-0.9-0.2
		c-0.3,0-0.6,0.1-0.9,0.2c-0.3,0.2-0.5,0.4-0.6,0.7c-0.2,0.3-0.2,0.6-0.2,1c0,0.3,0.1,0.7,0.2,1c0.2,0.3,0.4,0.5,0.6,0.7
		c0.3,0.2,0.6,0.2,0.9,0.2C103,82.7,103.3,82.6,103.6,82.4z"/>
	<path id="Tracé_2643" class="st1" d="M107.6,83.2c-0.4-0.2-0.8-0.6-1-1c-0.2-0.4-0.4-0.9-0.4-1.4c0-0.5,0.1-1,0.4-1.4
		c0.2-0.4,0.6-0.7,1-1c0.4-0.2,0.9-0.4,1.4-0.3c0.5,0,1,0.1,1.4,0.3c0.4,0.2,0.8,0.6,1,1c0.2,0.4,0.4,0.9,0.4,1.4
		c0,0.5-0.1,1-0.4,1.4c-0.2,0.4-0.6,0.7-1,1c-0.4,0.2-0.9,0.4-1.4,0.4C108.5,83.5,108.1,83.4,107.6,83.2z M110,82.4
		c0.3-0.2,0.5-0.4,0.6-0.7c0.2-0.3,0.2-0.6,0.2-1c0-0.3-0.1-0.7-0.2-1c-0.1-0.3-0.4-0.5-0.6-0.7c-0.3-0.2-0.6-0.2-0.9-0.2
		c-0.3,0-0.6,0.1-0.9,0.2c-0.3,0.2-0.5,0.4-0.6,0.7c-0.2,0.3-0.2,0.6-0.2,1c0,0.3,0.1,0.7,0.2,1c0.2,0.3,0.4,0.5,0.6,0.7
		c0.3,0.2,0.6,0.2,0.9,0.2C109.4,82.7,109.7,82.6,110,82.4z"/>
	<path id="Tracé_2644" class="st1" d="M113.2,76h1v7.5h-1V76z"/>
</g>
</svg>
