<svg xmlns="http://www.w3.org/2000/svg" width="114.135" height="83.585" viewBox="0 0 114.135 83.585">
  <g id="logo" transform="translate(149.207 -201.99)">
    <g id="Groupe_5900" data-name="Groupe 5900">
      <g id="Groupe_5898" data-name="Groupe 5898">
        <path id="Tracé_2614" data-name="Tracé 2614" d="M-119.153,268.632a4.685,4.685,0,0,1-1.628-.762l.522-.936a4.553,4.553,0,0,0,1.444.7,6.144,6.144,0,0,0,1.811.27,3.72,3.72,0,0,0,1.831-.354,1.064,1.064,0,0,0,.606-.942.865.865,0,0,0-.331-.7,2.329,2.329,0,0,0-.817-.414q-.486-.144-1.374-.324a16.012,16.012,0,0,1-1.8-.456,3.014,3.014,0,0,1-1.17-.7,1.707,1.707,0,0,1-.486-1.278,1.938,1.938,0,0,1,.416-1.212,2.811,2.811,0,0,1,1.26-.864,5.911,5.911,0,0,1,2.1-.324,7.737,7.737,0,0,1,1.719.192,4.989,4.989,0,0,1,1.451.552l-.465.96a5.572,5.572,0,0,0-1.324-.51,5.735,5.735,0,0,0-1.381-.174,3.457,3.457,0,0,0-1.8.372,1.1,1.1,0,0,0-.6.96.858.858,0,0,0,.339.7,2.469,2.469,0,0,0,.838.42q.5.15,1.36.318a15.56,15.56,0,0,1,1.789.456,3.05,3.05,0,0,1,1.162.7,1.668,1.668,0,0,1,.486,1.26,1.923,1.923,0,0,1-.422,1.206,2.8,2.8,0,0,1-1.282.864,6.125,6.125,0,0,1-2.113.318A7.835,7.835,0,0,1-119.153,268.632Z" fill="#a97f39"/>
        <path id="Tracé_2615" data-name="Tracé 2615" d="M-109.369,268.368a4.584,4.584,0,0,1-1.881-1.542,3.767,3.767,0,0,1-.684-2.2,3.767,3.767,0,0,1,.684-2.2,4.584,4.584,0,0,1,1.881-1.542,6.293,6.293,0,0,1,2.69-.558,6.259,6.259,0,0,1,2.677.558,4.555,4.555,0,0,1,1.874,1.536,3.781,3.781,0,0,1,.677,2.2,3.781,3.781,0,0,1-.677,2.2A4.555,4.555,0,0,1-104,268.368a6.259,6.259,0,0,1-2.677.558A6.293,6.293,0,0,1-109.369,268.368Zm4.641-.93a3.4,3.4,0,0,0,1.368-1.158,2.878,2.878,0,0,0,.5-1.65,2.878,2.878,0,0,0-.5-1.65,3.4,3.4,0,0,0-1.368-1.158,4.41,4.41,0,0,0-1.951-.42,4.509,4.509,0,0,0-1.965.42,3.387,3.387,0,0,0-1.38,1.158,2.878,2.878,0,0,0-.5,1.65,2.878,2.878,0,0,0,.5,1.65,3.387,3.387,0,0,0,1.38,1.158,4.509,4.509,0,0,0,1.965.42A4.41,4.41,0,0,0-104.728,267.438Z" fill="#a97f39"/>
        <path id="Tracé_2616" data-name="Tracé 2616" d="M-98.282,267.966a3.467,3.467,0,0,1-1.1-2.76V260.43h1.409v4.728q0,2.7,2.776,2.7a2.935,2.935,0,0,0,2.07-.666,2.641,2.641,0,0,0,.719-2.034V260.43h1.366v4.776a3.463,3.463,0,0,1-1.1,2.766,4.531,4.531,0,0,1-3.071.954A4.518,4.518,0,0,1-98.282,267.966Z" fill="#a97f39"/>
        <path id="Tracé_2617" data-name="Tracé 2617" d="M-87.427,268.632a4.685,4.685,0,0,1-1.628-.762l.522-.936a4.553,4.553,0,0,0,1.444.7,6.144,6.144,0,0,0,1.811.27,3.726,3.726,0,0,0,1.831-.354,1.063,1.063,0,0,0,.6-.942.863.863,0,0,0-.331-.7,2.324,2.324,0,0,0-.816-.414q-.486-.144-1.374-.324a16.012,16.012,0,0,1-1.8-.456,3.014,3.014,0,0,1-1.17-.7,1.706,1.706,0,0,1-.485-1.278,1.937,1.937,0,0,1,.415-1.212,2.811,2.811,0,0,1,1.26-.864,5.911,5.911,0,0,1,2.1-.324,7.743,7.743,0,0,1,1.719.192,5,5,0,0,1,1.451.552l-.465.96a5.572,5.572,0,0,0-1.324-.51,5.748,5.748,0,0,0-1.381-.174,3.454,3.454,0,0,0-1.8.372,1.1,1.1,0,0,0-.6.96.858.858,0,0,0,.339.7,2.469,2.469,0,0,0,.838.42q.5.15,1.36.318a15.613,15.613,0,0,1,1.789.456,3.049,3.049,0,0,1,1.162.7,1.668,1.668,0,0,1,.486,1.26,1.924,1.924,0,0,1-.423,1.206,2.8,2.8,0,0,1-1.281.864,6.125,6.125,0,0,1-2.113.318A7.835,7.835,0,0,1-87.427,268.632Z" fill="#a97f39"/>
        <path id="Tracé_2618" data-name="Tracé 2618" d="M-78.678,268.632a4.685,4.685,0,0,1-1.628-.762l.522-.936a4.553,4.553,0,0,0,1.444.7,6.144,6.144,0,0,0,1.811.27,3.726,3.726,0,0,0,1.831-.354,1.063,1.063,0,0,0,.6-.942.863.863,0,0,0-.331-.7,2.324,2.324,0,0,0-.816-.414q-.486-.144-1.374-.324a16.012,16.012,0,0,1-1.8-.456,3.014,3.014,0,0,1-1.17-.7,1.706,1.706,0,0,1-.485-1.278,1.937,1.937,0,0,1,.415-1.212,2.811,2.811,0,0,1,1.26-.864,5.911,5.911,0,0,1,2.1-.324,7.743,7.743,0,0,1,1.719.192,5,5,0,0,1,1.451.552l-.465.96a5.572,5.572,0,0,0-1.324-.51,5.748,5.748,0,0,0-1.381-.174,3.457,3.457,0,0,0-1.8.372,1.1,1.1,0,0,0-.6.96.858.858,0,0,0,.339.7,2.469,2.469,0,0,0,.838.42q.5.15,1.36.318a15.613,15.613,0,0,1,1.789.456,3.049,3.049,0,0,1,1.162.7,1.668,1.668,0,0,1,.486,1.26,1.924,1.924,0,0,1-.423,1.206,2.8,2.8,0,0,1-1.281.864,6.125,6.125,0,0,1-2.113.318A7.835,7.835,0,0,1-78.678,268.632Z" fill="#a97f39"/>
        <path id="Tracé_2619" data-name="Tracé 2619" d="M-63.5,267.786v1.044h-7.156v-8.4H-63.7v1.044h-5.551v2.58H-64.3v1.02h-4.945v2.712Z" fill="#a97f39"/>
      </g>
      <path id="Tracé_2620" data-name="Tracé 2620" d="M-141.723,250.334h-7.484V201.99h7.484Z" fill="#fff"/>
      <path id="Tracé_2621" data-name="Tracé 2621" d="M-39.048,227.988h-24.6v17.133h28.573v5.213H-71.129V201.99h35.667V207.2H-63.645v15.572h24.6Z" fill="#fff"/>
      <path id="Tracé_2622" data-name="Tracé 2622" d="M-128.041,231.309v19.025h7.484V232.04c-.429,0-.857.012-1.288,0A36.056,36.056,0,0,1-128.041,231.309Z" fill="#fff"/>
      <path id="Tracé_2623" data-name="Tracé 2623" d="M-120.557,225.64V201.99h-7.484v22.023a28.869,28.869,0,0,0,6.514,1.542C-121.205,225.591-120.88,225.611-120.557,225.64Z" fill="#fff"/>
      <path id="Tracé_2624" data-name="Tracé 2624" d="M-89.075,224.118c-.95.41-1.91.8-2.87,1.194v25.022h7.523V221.982C-85.962,222.716-87.51,223.433-89.075,224.118Z" fill="#fff"/>
      <path id="Tracé_2625" data-name="Tracé 2625" d="M-84.422,218.871V201.99h-7.523v19.459c.778-.242,1.559-.477,2.334-.731C-87.872,220.136-86.144,219.514-84.422,218.871Z" fill="#fff"/>
      <path id="Tracé_2626" data-name="Tracé 2626" d="M-84.422,220.871c-1.722.643-3.45,1.265-5.189,1.847-.775.254-1.556.489-2.334.731A105.7,105.7,0,0,1-105.53,226.8a58.428,58.428,0,0,1-15.027.837c-.323-.029-.648-.049-.97-.085a28.869,28.869,0,0,1-6.514-1.542,18.97,18.97,0,0,1-6.9-4.216l-.045.05v7.026a25.423,25.423,0,0,0,4.3,1.766c.876.271,1.757.484,2.639.67a36.056,36.056,0,0,0,6.2.735c.431.008.859,0,1.288,0a62.289,62.289,0,0,0,15.671-2.307,106.718,106.718,0,0,0,12.941-4.421c.96-.392,1.92-.784,2.87-1.194,1.565-.685,3.113-1.4,4.653-2.136,3.48-1.659,6.895-3.438,10.209-5.383C-77.556,218.175-80.97,219.582-84.422,220.871Z" fill="#a97f39"/>
      <g id="Groupe_5899" data-name="Groupe 5899">
        <rect id="Rectangle_3712" data-name="Rectangle 3712" width="114.135" height="1" transform="translate(-149.207 272.825)" fill="#fff"/>
      </g>
    </g>
    <g id="Groupe_5901" data-name="Groupe 5901">
      <path id="Tracé_2627" data-name="Tracé 2627" d="M-143.486,282.421a1.777,1.777,0,0,1,.354,1.135,1.635,1.635,0,0,1-.692,1.414,3.443,3.443,0,0,1-2.013.494h-3.37V278.4h3.168a3.125,3.125,0,0,1,1.872.484,1.57,1.57,0,0,1,.661,1.342,1.742,1.742,0,0,1-.257.959,1.677,1.677,0,0,1-.691.615A1.813,1.813,0,0,1-143.486,282.421Zm-4.712-3.2v2.26h2.068a2.1,2.1,0,0,0,1.2-.287.958.958,0,0,0,.419-.842.956.956,0,0,0-.419-.843,2.1,2.1,0,0,0-1.2-.288Zm3.612,5.146a.979.979,0,0,0,.434-.887q0-1.181-1.726-1.181h-2.32v2.351h2.32A2.383,2.383,0,0,0-144.586,284.363Z" fill="#fff"/>
      <path id="Tracé_2628" data-name="Tracé 2628" d="M-136.725,280.115v5.349h-.918v-.808a1.939,1.939,0,0,1-.772.641,2.416,2.416,0,0,1-1.044.227,2.337,2.337,0,0,1-1.686-.59,2.3,2.3,0,0,1-.615-1.741v-3.078h.968v2.967a1.662,1.662,0,0,0,.374,1.176,1.393,1.393,0,0,0,1.07.4,1.6,1.6,0,0,0,1.211-.464,1.82,1.82,0,0,0,.444-1.312v-2.765Z" fill="#fff"/>
      <path id="Tracé_2629" data-name="Tracé 2629" d="M-134.6,285.348a2.77,2.77,0,0,1-.949-.45l.4-.766a2.868,2.868,0,0,0,.858.4,3.525,3.525,0,0,0,1.019.152q1.271,0,1.272-.727a.475.475,0,0,0-.172-.384,1.1,1.1,0,0,0-.429-.206q-.258-.066-.732-.147a7.2,7.2,0,0,1-1.054-.231,1.627,1.627,0,0,1-.7-.445,1.234,1.234,0,0,1-.292-.877,1.373,1.373,0,0,1,.605-1.166,2.71,2.71,0,0,1,1.625-.439,4.507,4.507,0,0,1,1.07.131,2.874,2.874,0,0,1,.878.353l-.414.767a2.78,2.78,0,0,0-1.544-.424,1.78,1.78,0,0,0-.939.2.61.61,0,0,0-.323.535.511.511,0,0,0,.182.414,1.146,1.146,0,0,0,.449.221q.267.072.752.162a8.165,8.165,0,0,1,1.044.237,1.563,1.563,0,0,1,.682.429,1.2,1.2,0,0,1,.282.848,1.339,1.339,0,0,1-.62,1.156,2.941,2.941,0,0,1-1.691.428A4.5,4.5,0,0,1-134.6,285.348Z" fill="#fff"/>
      <path id="Tracé_2630" data-name="Tracé 2630" d="M-129.807,278.9a.593.593,0,0,1-.186-.444.61.61,0,0,1,.186-.449.638.638,0,0,1,.469-.186.656.656,0,0,1,.47.176.581.581,0,0,1,.186.439.625.625,0,0,1-.186.459.64.64,0,0,1-.47.187A.643.643,0,0,1-129.807,278.9Zm-.015,1.211h.969v5.349h-.969Z" fill="#fff"/>
      <path id="Tracé_2631" data-name="Tracé 2631" d="M-122.531,280.655a2.321,2.321,0,0,1,.6,1.731v3.078h-.969V282.5a1.644,1.644,0,0,0-.373-1.171,1.407,1.407,0,0,0-1.07-.394,1.669,1.669,0,0,0-1.241.459,1.8,1.8,0,0,0-.454,1.318v2.755h-.969v-5.349h.928v.808a1.887,1.887,0,0,1,.792-.636,2.771,2.771,0,0,1,1.136-.222A2.211,2.211,0,0,1-122.531,280.655Z" fill="#fff"/>
      <path id="Tracé_2632" data-name="Tracé 2632" d="M-115.29,283.113h-4.339a1.677,1.677,0,0,0,.62,1.135,2.026,2.026,0,0,0,1.317.429,1.986,1.986,0,0,0,1.544-.646l.535.625a2.338,2.338,0,0,1-.9.647,3.163,3.163,0,0,1-1.206.221,3.161,3.161,0,0,1-1.5-.348,2.48,2.48,0,0,1-1.014-.974,2.787,2.787,0,0,1-.358-1.413,2.833,2.833,0,0,1,.348-1.4,2.5,2.5,0,0,1,.959-.974,2.731,2.731,0,0,1,1.377-.348,2.682,2.682,0,0,1,1.368.348,2.444,2.444,0,0,1,.938.974,2.968,2.968,0,0,1,.338,1.433A2.9,2.9,0,0,1-115.29,283.113Zm-3.79-1.807a1.71,1.71,0,0,0-.549,1.11h3.431a1.724,1.724,0,0,0-.55-1.1,1.664,1.664,0,0,0-1.166-.429A1.674,1.674,0,0,0-119.08,281.306Z" fill="#fff"/>
      <path id="Tracé_2633" data-name="Tracé 2633" d="M-113.655,285.348a2.77,2.77,0,0,1-.949-.45l.4-.766a2.868,2.868,0,0,0,.858.4,3.525,3.525,0,0,0,1.019.152q1.271,0,1.271-.727a.474.474,0,0,0-.171-.384,1.1,1.1,0,0,0-.429-.206q-.258-.066-.732-.147a7.172,7.172,0,0,1-1.054-.231,1.627,1.627,0,0,1-.7-.445,1.234,1.234,0,0,1-.292-.877,1.37,1.37,0,0,1,.6-1.166,2.71,2.71,0,0,1,1.625-.439,4.507,4.507,0,0,1,1.07.131,2.874,2.874,0,0,1,.878.353l-.414.767a2.78,2.78,0,0,0-1.544-.424,1.78,1.78,0,0,0-.939.2.61.61,0,0,0-.323.535.511.511,0,0,0,.182.414,1.146,1.146,0,0,0,.449.221q.267.072.752.162a8.165,8.165,0,0,1,1.044.237,1.554,1.554,0,0,1,.681.429,1.192,1.192,0,0,1,.283.848,1.339,1.339,0,0,1-.62,1.156,2.941,2.941,0,0,1-1.691.428A4.5,4.5,0,0,1-113.655,285.348Z" fill="#fff"/>
      <path id="Tracé_2634" data-name="Tracé 2634" d="M-108.6,285.348a2.77,2.77,0,0,1-.949-.45l.4-.766a2.868,2.868,0,0,0,.858.4,3.525,3.525,0,0,0,1.019.152q1.271,0,1.272-.727a.475.475,0,0,0-.172-.384,1.1,1.1,0,0,0-.429-.206q-.258-.066-.732-.147a7.2,7.2,0,0,1-1.054-.231,1.627,1.627,0,0,1-.7-.445,1.234,1.234,0,0,1-.292-.877,1.373,1.373,0,0,1,.6-1.166,2.71,2.71,0,0,1,1.625-.439,4.508,4.508,0,0,1,1.07.131,2.874,2.874,0,0,1,.878.353l-.414.767a2.78,2.78,0,0,0-1.544-.424,1.78,1.78,0,0,0-.939.2.61.61,0,0,0-.323.535.511.511,0,0,0,.182.414,1.146,1.146,0,0,0,.449.221q.267.072.752.162a8.165,8.165,0,0,1,1.044.237,1.563,1.563,0,0,1,.682.429,1.2,1.2,0,0,1,.282.848,1.339,1.339,0,0,1-.62,1.156,2.941,2.941,0,0,1-1.691.428A4.5,4.5,0,0,1-108.6,285.348Z" fill="#fff"/>
      <path id="Tracé_2635" data-name="Tracé 2635" d="M-95.793,285.575l-.939-.939a3.255,3.255,0,0,1-2.361.909,3.318,3.318,0,0,1-1.272-.233,2.047,2.047,0,0,1-.883-.651,1.535,1.535,0,0,1-.318-.953,1.785,1.785,0,0,1,.4-1.146,4.625,4.625,0,0,1,1.317-1.024,3.552,3.552,0,0,1-.656-.838,1.672,1.672,0,0,1-.192-.776,1.426,1.426,0,0,1,.52-1.151,2.093,2.093,0,0,1,1.388-.434,1.94,1.94,0,0,1,1.281.394,1.325,1.325,0,0,1,.475,1.08,1.471,1.471,0,0,1-.348.958,4.245,4.245,0,0,1-1.156.888l1.746,1.736a4.506,4.506,0,0,0,.434-1.282l.777.253a4.687,4.687,0,0,1-.616,1.615l.949.948Zm-1.514-1.5-2.008-2a3.592,3.592,0,0,0-1.014.752,1.194,1.194,0,0,0-.288.782.959.959,0,0,0,.439.817,1.93,1.93,0,0,0,1.146.313A2.356,2.356,0,0,0-97.307,284.071Zm-2.225-4.789a.794.794,0,0,0-.267.621,1.026,1.026,0,0,0,.146.525,3.966,3.966,0,0,0,.57.686,4.366,4.366,0,0,0,.964-.676.879.879,0,0,0,.267-.616.708.708,0,0,0-.247-.565,1.031,1.031,0,0,0-.691-.212A1.084,1.084,0,0,0-99.532,279.282Z" fill="#fff"/>
      <path id="Tracé_2636" data-name="Tracé 2636" d="M-91.323,278.4h1.01v6.186h3.824v.878h-4.834Z" fill="#fff"/>
      <path id="Tracé_2637" data-name="Tracé 2637" d="M-81.791,280.609a2.109,2.109,0,0,1,.59,1.625v3.23h-.918v-.707a1.531,1.531,0,0,1-.692.57,2.621,2.621,0,0,1-1.064.2,2.229,2.229,0,0,1-1.438-.433,1.394,1.394,0,0,1-.54-1.141,1.4,1.4,0,0,1,.515-1.135,2.536,2.536,0,0,1,1.635-.429h1.533v-.192a1.238,1.238,0,0,0-.363-.959,1.533,1.533,0,0,0-1.07-.333,2.838,2.838,0,0,0-.928.156,2.415,2.415,0,0,0-.767.419l-.4-.726a2.941,2.941,0,0,1,.989-.51,4.167,4.167,0,0,1,1.221-.176A2.422,2.422,0,0,1-81.791,280.609Zm-.964,3.921a1.409,1.409,0,0,0,.585-.7v-.747h-1.493q-1.231,0-1.232.827a.749.749,0,0,0,.313.636,1.43,1.43,0,0,0,.868.232A1.8,1.8,0,0,0-82.755,284.53Z" fill="#fff"/>
      <path id="Tracé_2638" data-name="Tracé 2638" d="M-71.412,280.115l-2,5.349h-.929l-1.544-4.057-1.564,4.057h-.928l-1.988-5.349h.918l1.554,4.259,1.615-4.259h.817l1.585,4.279,1.594-4.279Z" fill="#fff"/>
      <path id="Tracé_2639" data-name="Tracé 2639" d="M-67.058,285.3a3.151,3.151,0,0,1-1.165-.641l.373-.787a3.091,3.091,0,0,0,1.034.591,3.813,3.813,0,0,0,1.3.227,2.337,2.337,0,0,0,1.312-.3.917.917,0,0,0,.434-.792.783.783,0,0,0-.237-.591,1.578,1.578,0,0,0-.585-.347q-.348-.121-.984-.273A10.1,10.1,0,0,1-66.866,282a2.136,2.136,0,0,1-.838-.59,1.578,1.578,0,0,1-.348-1.075,1.819,1.819,0,0,1,.3-1.019,2.041,2.041,0,0,1,.9-.727,3.677,3.677,0,0,1,1.5-.272,4.786,4.786,0,0,1,1.231.161,3.272,3.272,0,0,1,1.039.465l-.333.807a3.617,3.617,0,0,0-.948-.429,3.527,3.527,0,0,0-.989-.146,2.185,2.185,0,0,0-1.287.312.959.959,0,0,0-.429.808.773.773,0,0,0,.242.59,1.675,1.675,0,0,0,.6.353,9.062,9.062,0,0,0,.974.268,10,10,0,0,1,1.281.383,2.155,2.155,0,0,1,.833.586,1.54,1.54,0,0,1,.348,1.059,1.81,1.81,0,0,1-.3,1.015,2.036,2.036,0,0,1-.919.726,3.806,3.806,0,0,1-1.514.268A4.835,4.835,0,0,1-67.058,285.3Z" fill="#fff"/>
      <path id="Tracé_2640" data-name="Tracé 2640" d="M-60.579,285.171a2.583,2.583,0,0,1-1-.974,2.737,2.737,0,0,1-.363-1.408,2.733,2.733,0,0,1,.363-1.407,2.55,2.55,0,0,1,1-.969,3,3,0,0,1,1.458-.348,2.8,2.8,0,0,1,1.3.292,2.082,2.082,0,0,1,.883.848l-.737.474a1.648,1.648,0,0,0-.625-.575,1.784,1.784,0,0,0-.828-.192,1.918,1.918,0,0,0-.943.232,1.656,1.656,0,0,0-.656.661,2,2,0,0,0-.238.984,2.019,2.019,0,0,0,.238.994,1.643,1.643,0,0,0,.656.661,1.908,1.908,0,0,0,.943.233,1.784,1.784,0,0,0,.828-.192,1.635,1.635,0,0,0,.625-.576l.737.465a2.117,2.117,0,0,1-.883.853,2.764,2.764,0,0,1-1.3.3A2.963,2.963,0,0,1-60.579,285.171Z" fill="#fff"/>
      <path id="Tracé_2641" data-name="Tracé 2641" d="M-51.284,280.655a2.325,2.325,0,0,1,.6,1.731v3.078h-.968V282.5a1.644,1.644,0,0,0-.374-1.171,1.406,1.406,0,0,0-1.069-.394,1.673,1.673,0,0,0-1.242.459,1.8,1.8,0,0,0-.454,1.318v2.755h-.969v-7.488h.969v2.9a2.007,2.007,0,0,1,.792-.6,2.748,2.748,0,0,1,1.1-.211A2.211,2.211,0,0,1-51.284,280.655Z" fill="#fff"/>
      <path id="Tracé_2642" data-name="Tracé 2642" d="M-48,285.171a2.564,2.564,0,0,1-.994-.974,2.763,2.763,0,0,1-.358-1.408,2.76,2.76,0,0,1,.358-1.407,2.531,2.531,0,0,1,.994-.969,2.938,2.938,0,0,1,1.434-.348,2.909,2.909,0,0,1,1.428.348,2.538,2.538,0,0,1,.989.969,2.769,2.769,0,0,1,.357,1.407,2.773,2.773,0,0,1-.357,1.408,2.571,2.571,0,0,1-.989.974,2.869,2.869,0,0,1-1.428.353A2.9,2.9,0,0,1-48,285.171Zm2.357-.731a1.691,1.691,0,0,0,.641-.666,2.044,2.044,0,0,0,.232-.985A2.046,2.046,0,0,0-45,281.8a1.652,1.652,0,0,0-.641-.661,1.844,1.844,0,0,0-.923-.232,1.843,1.843,0,0,0-.924.232,1.684,1.684,0,0,0-.646.661,2,2,0,0,0-.237.984,2,2,0,0,0,.237.985,1.724,1.724,0,0,0,.646.666,1.806,1.806,0,0,0,.924.237A1.807,1.807,0,0,0-45.643,284.44Z" fill="#fff"/>
      <path id="Tracé_2643" data-name="Tracé 2643" d="M-41.591,285.171a2.55,2.55,0,0,1-.994-.974,2.764,2.764,0,0,1-.359-1.408,2.76,2.76,0,0,1,.359-1.407,2.518,2.518,0,0,1,.994-.969,2.931,2.931,0,0,1,1.433-.348,2.909,2.909,0,0,1,1.428.348,2.538,2.538,0,0,1,.989.969,2.77,2.77,0,0,1,.358,1.407,2.773,2.773,0,0,1-.358,1.408,2.571,2.571,0,0,1-.989.974,2.869,2.869,0,0,1-1.428.353A2.891,2.891,0,0,1-41.591,285.171Zm2.356-.731a1.684,1.684,0,0,0,.641-.666,2.033,2.033,0,0,0,.232-.985,2.035,2.035,0,0,0-.232-.984,1.646,1.646,0,0,0-.641-.661,1.842,1.842,0,0,0-.923-.232,1.848,1.848,0,0,0-.924.232,1.684,1.684,0,0,0-.646.661,2,2,0,0,0-.237.984,2,2,0,0,0,.237.985,1.724,1.724,0,0,0,.646.666,1.811,1.811,0,0,0,.924.237A1.8,1.8,0,0,0-39.235,284.44Z" fill="#fff"/>
      <path id="Tracé_2644" data-name="Tracé 2644" d="M-36.041,277.976h.969v7.488h-.969Z" fill="#fff"/>
    </g>
  </g>
</svg>
