<?xml version="1.0" standalone="no"?>
<!DOCTYPE svg PUBLIC "-//W3C//DTD SVG 1.1//EN" "http://www.w3.org/Graphics/SVG/1.1/DTD/svg11.dtd" >
<svg xmlns="http://www.w3.org/2000/svg">
<metadata>Generated by IcoMoon</metadata>
<defs>
<font id="icomoon" horiz-adv-x="1024">
<font-face units-per-em="1024" ascent="960" descent="-64" />
<missing-glyph horiz-adv-x="1024" />
<glyph unicode="&#x20;" horiz-adv-x="512" d="" />
<glyph unicode="&#xe900;" glyph-name="icon-arrow-left-01" d="M341.333 448l256 256v-512l-256 256z" />
<glyph unicode="&#xe901;" glyph-name="icon-arrow-left" horiz-adv-x="2048" d="M0 960h2048l-1024-1024z" />
<glyph unicode="&#xe902;" glyph-name="icon-arrow-right-01" d="M682.667 448l-256-256v512z" />
<glyph unicode="&#xe903;" glyph-name="icon-arrow-right" horiz-adv-x="2048" d="M2048-64h-2048l1024 1024z" />
<glyph unicode="&#xe904;" horiz-adv-x="1037" d="M52.364 953.269c-64.614-31.23-47.788-128.151 23.557-134.882 2.534-0.353 5.462-0.554 8.438-0.554 19.16 0 36.368 8.357 48.178 21.624l0.057 0.065c8.647 7.246 15.025 16.939 18.080 28.011l0.092 0.392c2.016 6.247 3.178 13.434 3.178 20.893 0 19.652-8.067 37.419-21.070 50.171l-0.011 0.011c-11.324 12.747-27.759 20.739-46.061 20.739-0.371 0-0.74-0.003-1.109-0.010l0.055 0.001c-2.294 0.368-4.939 0.579-7.633 0.579-9.499 0-18.386-2.616-25.981-7.168l0.23 0.128zM110.248 929.712c12.532-9.708 20.885-24.291 22.198-40.857l0.013-0.2c-0.877-8.224-3.367-15.707-7.148-22.36l0.148 0.283c-8.268-15.821-24.559-26.433-43.33-26.433-8.168 0-15.867 2.010-22.629 5.561l0.267-0.128c-3.957 1.806-7.368 3.967-10.44 6.522l0.074-0.060c-9.21 9.168-14.909 21.855-14.909 35.874s5.699 26.707 14.907 35.872l0.002 0.002c9.020 8.281 21.099 13.357 34.364 13.357 9.792 0 18.939-2.766 26.7-7.56l-0.219 0.126z" />
<glyph unicode="&#xe905;" horiz-adv-x="1037" d="M463.068 930.116c-2.454-2.87-3.947-6.625-3.947-10.729 0-9.144 7.413-16.557 16.557-16.557 2.876 0 5.58 0.733 7.937 2.023l-0.086-0.043c5.244 2.704 8.768 8.083 8.768 14.284 0 8.847-7.172 16.019-16.019 16.019-0.243 0-0.485-0.005-0.725-0.016l0.034 0.001c-6.596 0.404-9.558-0.538-12.519-4.981z" />
<glyph unicode="&#xe906;" horiz-adv-x="1037" d="M851.292 919.347c-3.117-3.118-5.045-7.425-5.045-12.182s1.928-9.064 5.045-12.182v0c0.643-0.695 1.348-1.314 2.112-1.856l0.042-0.028c2.487-1.070 5.382-1.692 8.423-1.692 4.947 0 9.51 1.648 13.169 4.424l-0.054-0.039c2.576 3.196 4.134 7.305 4.134 11.779s-1.559 8.583-4.163 11.815l0.028-0.036c-3.304 2.326-7.413 3.718-11.846 3.718s-8.542-1.392-11.912-3.762l0.066 0.044z" />
<glyph unicode="&#xe907;" horiz-adv-x="1037" d="M964.097 874.386c-26.15-6.351-45.264-29.564-45.264-57.241 0-4.91 0.602-9.68 1.735-14.239l-0.085 0.405c1.028-4.357 2.414-8.172 4.182-11.765l-0.143 0.323c9.295-20.588 29.646-34.658 53.283-34.658 8.587 0 16.741 1.857 24.081 5.192l-0.366-0.149c8.022 3.654 14.796 8.747 20.267 15.008l0.059 0.069c9.188 9.64 14.842 22.721 14.842 37.122 0 0.674-0.012 1.345-0.037 2.013l0.003-0.097c0.005 0.294 0.008 0.64 0.008 0.988 0 22.581-12.961 42.135-31.849 51.629l-0.332 0.151c-8.443 3.935-18.33 6.231-28.753 6.231-4.109 0-8.134-0.357-12.047-1.041l0.416 0.060zM997.75 847.464c9.634-7.456 15.777-19.021 15.777-32.021 0-4.832-0.848-9.465-2.405-13.759l0.089 0.281c-5.802-13.123-18.706-22.115-33.71-22.115-20.296 0-36.749 16.453-36.749 36.749s16.453 36.749 36.749 36.749c1.824 0 3.618-0.133 5.371-0.39l-0.199 0.024c5.768-1.074 10.913-2.945 15.617-5.521l-0.271 0.136z" />
<glyph unicode="&#xe908;" horiz-adv-x="1037" d="M658.122 859.444c-3.26-3.304-5.273-7.845-5.273-12.856s2.013-9.552 5.275-12.858l-0.002 0.002c2.853-2.662 6.694-4.296 10.917-4.296 8.847 0 16.019 7.172 16.019 16.019 0 0.233-0.005 0.464-0.015 0.695l0.001-0.033c0.018 0.294 0.028 0.637 0.028 0.983 0 9.1-7.054 16.552-15.992 17.187l-0.055 0.003c-4.247-0.378-8.019-2.153-10.914-4.856l0.011 0.010z" />
<glyph unicode="&#xe909;" horiz-adv-x="1037" d="M271.245 845.848c-3.602-2.65-5.913-6.873-5.913-11.635 0-3.221 1.058-6.196 2.844-8.595l-0.027 0.038c0.762-1.009 1.602-1.892 2.533-2.672l0.025-0.020c2.845-3.152 6.945-5.124 11.506-5.124 4.027 0 7.694 1.537 10.448 4.057l-0.012-0.011c0.518 0.384 0.962 0.828 1.334 1.329l0.012 0.017c3.161 2.66 5.155 6.618 5.155 11.042 0 4.725-2.275 8.919-5.79 11.546l-0.038 0.027c-2.461 3.537-6.506 5.823-11.084 5.823-2.737 0-5.283-0.817-7.408-2.22l0.050 0.031c-1.475-0.943-2.692-2.159-3.606-3.588l-0.028-0.047z" />
<glyph unicode="&#xe90a;" horiz-adv-x="1037" d="M163.151 762.119c-22.48-12.384-30.557-27.73-30.826-58.018v-21.673h-17.096c-1.088 0.036-2.368 0.056-3.652 0.056-27.281 0-52.43-9.129-72.559-24.499l0.29 0.213c-15.589-13.646-27.544-31.066-34.473-50.849l-0.257-0.843c-4.577-15.884-4.577-21.538-4.577-303.821l0.942-287.398 9.154-18.442c11.41-22.906 29.683-40.962 52.097-51.802l0.671-0.293 16.692-8.077h415.281c375.166 0 416.088 0 428.473 3.5 34.127 10.205 60.815 35.61 72.584 68.156l0.242 0.766c5.385 13.461 5.385 15.077 6.192 284.033 0 174.189 0 277.706-1.75 290.898-2.698 26.142-14.501 49.114-32.137 66.061l-0.035 0.034c-19.795 19.995-47.249 32.377-77.595 32.377-2.348 0-4.678-0.074-6.989-0.22l0.316 0.016h-16.692l-0.942 25.307c-0.673 22.615-1.481 26.115-7.404 34.865-8.445 13.811-23.443 22.888-40.561 22.888-0.222 0-0.443-0.002-0.664-0.005h0.033c-2.122 0.374-4.565 0.588-7.058 0.588-6.946 0-13.504-1.659-19.299-4.603l0.243 0.112c-22.077-11.307-30.423-26.923-30.423-58.153v-21h-51.153l-0.942 25.307c-0.808 22.615-1.481 26.115-7.404 34.999-8.539 13.818-23.604 22.887-40.788 22.887-0.189 0-0.379-0.001-0.567-0.003h0.029c-2.004 0.329-4.314 0.518-6.668 0.518-7.039 0-13.686-1.683-19.558-4.669l0.246 0.113c-22.211-11.307-30.557-26.923-30.557-58.153v-20.865h-51.153l-0.942 25.307c0 22.615-1.481 26.115-7.269 34.999-8.539 13.818-23.604 22.887-40.788 22.887-0.189 0-0.379-0.001-0.567-0.003h0.029c-2.004 0.329-4.314 0.518-6.668 0.518-7.039 0-13.686-1.683-19.558-4.669l0.246 0.113c-22.211-11.307-30.557-26.923-30.557-58.153v-20.865h-51.018l-0.942 25.307c0 22.615-1.481 25.98-7.404 34.865-8.381 13.807-23.335 22.891-40.41 22.891-0.275 0-0.549-0.002-0.822-0.007l0.041 0.001c-2.071 0.348-4.458 0.546-6.891 0.546-6.998 0-13.612-1.643-19.478-4.564l0.254 0.114c-22.077-11.307-30.423-26.923-30.423-58.287v-20.865h-51.153l-0.942 25.307c-0.808 22.615-1.481 25.98-7.404 34.865-8.38 13.814-23.337 22.902-40.417 22.902-0.462 0-0.922-0.007-1.38-0.020l0.067 0.002c-1.929 0.279-4.157 0.438-6.422 0.438-6.831 0-13.323-1.45-19.186-4.058l0.301 0.119z" />
<glyph unicode="&#xe90b;" horiz-adv-x="1037" d="M201.112 740.177c13.461-7.134 14.807-12.519 14.807-74.845v-56.941l-29.884 1.346h-30.288l-0.673 54.787c-0.808 60.172 0 67.306 13.461 74.71 4.948 2.826 10.873 4.491 17.188 4.491 5.6 0 10.895-1.31 15.593-3.641l-0.205 0.092z" />
<glyph unicode="&#xe90c;" horiz-adv-x="1037" d="M358.474 740.177c13.461-7.134 14.807-12.519 14.807-74.845v-56.941l-30.019 1.346h-30.288l-0.673 54.787c-0.808 60.172 0 67.306 13.461 74.71 4.971 2.826 10.921 4.492 17.259 4.492 5.622 0 10.938-1.31 15.659-3.642l-0.207 0.093z" />
<glyph unicode="&#xe90d;" horiz-adv-x="1037" d="M515.702 740.177c13.461-7.134 14.807-12.519 14.807-74.845v-56.941l-30.019 1.346h-30.288v54.787c-0.673 60.172 0 67.306 13.461 74.71 4.894 2.719 10.734 4.32 16.947 4.32 5.481 0 10.672-1.246 15.303-3.469l-0.213 0.092z" />
<glyph unicode="&#xe90e;" horiz-adv-x="1037" d="M673.064 740.177c13.461-7.134 14.807-12.519 14.807-74.845v-56.941l-30.153 1.346h-30.153l-0.808 54.787c-0.673 60.172 0 67.306 13.461 74.71 4.986 2.848 10.958 4.527 17.322 4.527 5.65 0 10.991-1.324 15.729-3.677l-0.206 0.093z" />
<glyph unicode="&#xe90f;" horiz-adv-x="1037" d="M830.157 740.177c13.461-7.134 14.807-12.519 14.807-74.845v-56.941l-30.019 1.346h-30.153l-0.808 54.787c-0.673 60.172 0 67.306 13.461 74.71 4.971 2.826 10.921 4.492 17.259 4.492 5.622 0 10.938-1.31 15.659-3.642l-0.207 0.093z" />
<glyph unicode="&#xe910;" horiz-adv-x="1037" d="M132.459 626.026c0-31.23 0-34.461 4.577-36.884 13.676-1.624 29.517-2.551 45.573-2.551 18.054 0 35.834 1.171 53.269 3.442l-2.056-0.219c3.5 2.558 4.173 8.615 4.711 36.211l0.808 33.115 25.307 0.808 25.038 0.673v-34.326c0-31.499 0-34.73 4.577-37.153 13.544-1.616 29.23-2.538 45.131-2.538 18.26 0 36.235 1.216 53.851 3.571l-2.060-0.225c3.365 2.423 4.173 8.481 4.577 36.076l0.808 33.115 25.307 0.808 25.038 0.673v-34.326c0-31.499 0-34.73 4.711-37.153 13.506-1.584 29.152-2.488 45.009-2.488 18.254 0 36.228 1.198 53.848 3.518l-2.071-0.223c3.365 2.423 4.173 8.615 4.577 36.076l0.808 33.115 25.038 0.808 25.038 0.673v-34.326c0-31.499 0-34.73 4.711-37.153 13.486-1.552 29.114-2.437 44.948-2.437 18.274 0 36.272 1.179 53.923 3.466l-2.085-0.221c3.5 2.423 4.173 8.615 4.711 36.076v33.115l25.307 0.808 25.038 0.673v-34.326c0-31.499 0-34.596 4.711-37.153 13.486-1.552 29.114-2.437 44.948-2.437 18.274 0 36.272 1.179 53.923 3.466l-2.085-0.221c3.5 2.423 4.173 8.615 4.711 36.076v33.115h22.211c1.702 0.142 3.685 0.224 5.686 0.224 11.027 0 21.478-2.464 30.832-6.872l-0.442 0.187c18.47-8.532 33.204-22.528 42.435-39.895l0.237-0.488c6.731-13.461 7.134-16.692 7.942-44.153l0.942-30.288h-955.078l0.942 29.076c0.673 26.923 1.212 29.884 8.884 45.095 8.25 17.575 22.1 31.383 39.214 39.368l0.497 0.208c11.419 5.681 24.871 9.005 39.1 9.005 1.636 0 3.261-0.044 4.875-0.131l-0.225 0.010h17.634z" />
<glyph unicode="&#xe911;" horiz-adv-x="1037" d="M977.559 296.762v-218.611h-175.939c-116.44 0-177.42-0.808-180.516-2.558-2.78-2.11-4.557-5.417-4.557-9.138 0-2.655 0.904-5.099 2.422-7.040l-0.019 0.025c2.154-2.154 45.634-2.961 180.785-2.961h178.497l-1.212-18.846c-1.404-31.304-19.848-57.99-46.226-71.126l-0.485-0.218-13.461-6.865-826.523-0.673-13.461 5.25c-20.512 8.855-36.916 23.999-47.132 42.968l-0.252 0.512-7 13.461-0.673 247.688v246.88h955.751z" />
<glyph unicode="&#xe912;" horiz-adv-x="1037" d="M113.479 439.452c-23.153-5.788-30.961-21.134-29.749-56.672 0.808-26.115 3.231-32.172 17.769-42.807 5.654-4.173 11.038-5.385 31.903-5.923 29.749-0.942 39.307 2.019 49.672 15.75 6.865 8.884 7 10.365 7 36.345 0 22.884 0 28.538-4.846 35.403-8.077 13.461-18.442 18.173-42.538 19.115-2.494 0.146-5.411 0.23-8.348 0.23-7.359 0-14.595-0.524-21.673-1.536l0.81 0.095z" />
<glyph unicode="&#xe913;" horiz-adv-x="1037" d="M163.285 413.741c4.038-2.961 4.711-6.731 4.711-26.115 0-29.211-2.423-31.903-31.23-31.903-17.23 0-20.192 0-25.307 6.058s-6.058 8.077-6.058 25.173c0 28.403 1.615 30.153 30.423 30.153 2.003 0.239 4.323 0.375 6.675 0.375 7.465 0 14.61-1.372 21.196-3.877l-0.41 0.137z" />
<glyph unicode="&#xe914;" horiz-adv-x="1037" d="M258.726 439.452c-23.153-5.923-31.769-22.346-30.019-57.749 0.942-25.307 3.635-31.365 17.634-41.73 5.923-4.442 10.365-5.115 35.942-5.115s30.019 0.808 35.807 5.115c13.461 10.365 16.692 16.557 17.769 41.73 1.885 43.749-9.423 57.48-47.922 58.96-2.743 0.203-5.941 0.319-9.167 0.319-7.075 0-14.020-0.556-20.793-1.628l0.749 0.098z" />
<glyph unicode="&#xe915;" horiz-adv-x="1037" d="M309.61 412.933c2.822-6.716 4.461-14.522 4.461-22.711 0-0.534-0.007-1.067-0.021-1.598l0.002 0.078c0.673-19.25 0-20.73-5.654-26.923s-8.077-6.327-26.115-6.327-20.327 0-25.98 6.327-6.461 7.404-5.654 26.923c1.212 27.73 1.885 28.403 31.634 28.403 19.384 0 24.634-0.673 27.326-4.173z" />
<glyph unicode="&#xe916;" horiz-adv-x="1037" d="M403.839 439.452c-10.458-2.429-19.033-9.065-24-17.986l-0.096-0.187c-4.577-7.538-5.385-11.981-5.385-35.807 0-26.115 0-26.923 7.134-36.345 10.365-13.461 19.923-16.692 49.672-15.75 26.923 0 32.98 3.231 43.749 17.634 4.173 5.654 5.385 11.038 5.923 31.769s0 26.923-4.981 36.076c-8.077 15.75-17.23 20.192-43.211 21.134-3.598 0.356-7.777 0.559-12.004 0.559-5.925 0-11.756-0.399-17.47-1.171l0.666 0.074z" />
<glyph unicode="&#xe917;" horiz-adv-x="1037" d="M455.261 411.722c2.649-5.736 4.195-12.448 4.195-19.52 0-1.849-0.106-3.674-0.311-5.468l0.020 0.219c0-16.961-0.808-19.923-6.192-25.038s-8.077-6.192-25.307-6.192c-28.673 0-31.096 2.692-31.096 31.903s0.942 29.48 32.172 29.48c20.865 0 23.019-0.404 26.519-5.385z" />
<glyph unicode="&#xe918;" horiz-adv-x="1037" d="M548.817 439.452c-10.35-2.499-18.82-9.12-23.731-17.984l-0.096-0.188c-4.711-7.269-5.385-11.981-5.385-34.326 0-28.538 3.231-37.557 16.692-47.653 6.192-4.711 10.365-5.115 36.211-5.115s29.884 0.673 35.807 5.115c15.211 11.307 16.961 15.884 16.961 47.114 0 25.98 0 29.48-5.654 36.884-3.7 4.792-8.165 8.785-13.247 11.86l-0.214 0.12c-11.53 3.467-24.781 5.463-38.497 5.463-6.648 0-13.186-0.469-19.583-1.375l0.735 0.085z" />
<glyph unicode="&#xe919;" horiz-adv-x="1037" d="M600.239 411.722c2.649-5.736 4.195-12.448 4.195-19.52 0-1.849-0.106-3.674-0.311-5.468l0.020 0.219c0-16.961-0.808-19.923-6.192-25.038s-8.077-6.192-25.038-6.192c-28.538 0-30.288 1.75-30.288 30.692s0 30.692 30.826 30.692c21.134 0 23.288-0.404 26.788-5.385z" />
<glyph unicode="&#xe91a;" horiz-adv-x="1037" d="M692.583 439.317c-6.962-2.526-12.845-6.59-17.461-11.802l-0.039-0.044c-6.574-5.877-10.71-14.363-10.769-23.816v-0.010c-0.733-4.528-1.152-9.748-1.152-15.066 0-12.987 2.499-25.39 7.042-36.755l-0.236 0.668c8.884-15.48 14.942-17.769 47.114-17.769s36.345 1.75 47.653 16.961c4.442 5.923 5.115 10.365 5.115 35.942 0 32.442-2.154 38.365-18.173 47.653-11.399 3.651-24.511 5.755-38.114 5.755-7.41 0-14.673-0.624-21.742-1.823l0.761 0.107z" />
<glyph unicode="&#xe91b;" horiz-adv-x="1037" d="M745.082 411.722c2.736-5.799 4.333-12.596 4.333-19.767 0-1.857-0.107-3.69-0.316-5.491l0.021 0.22c0-16.692-0.808-20.461-5.385-25.307s-7.673-5.654-25.307-5.654c-29.076 0-30.826 1.75-30.826 30.692s0 30.692 30.826 30.692c21.134 0 23.288-0.404 26.653-5.385z" />
<glyph unicode="&#xe91c;" horiz-adv-x="1037" d="M837.83 439.452c-6.725-2.55-12.469-6.303-17.233-11.040l0.002 0.002-8.884-8.75v-30.288c-0.808-27.999 0-30.423 4.846-38.365 9.423-13.461 19.519-17.5 46.038-17.5 28.673 0 40.384 4.981 49.134 19.653 5.115 9.154 5.385 12.654 4.577 36.884 0 29.48-3.635 36.211-18.846 45.23-11.57 3.72-24.879 5.864-38.69 5.864-7.396 0-14.648-0.615-21.708-1.796l0.764 0.106z" />
<glyph unicode="&#xe91d;" horiz-adv-x="1037" d="M890.060 411.722c2.692-5.831 4.261-12.653 4.261-19.842 0-2.069-0.13-4.107-0.382-6.107l0.024 0.238c0-26.923-2.827-30.288-30.692-30.288s-30.692 1.75-30.692 30.692 0 30.692 30.692 30.692c21.269 0 23.423-0.404 26.788-5.385z" />
<glyph unicode="&#xe91e;" horiz-adv-x="1037" d="M100.017 288.147c-13.461-8.884-17.5-22.077-16.154-51.153 0-25.98 3.635-32.442 19.384-42.942 7.538-5.385 10.231-5.654 35.807-4.981 29.749 0.808 34.865 2.961 46.038 17.769 4.442 5.788 5.115 10.231 5.115 34.057s-0.808 28.807-4.981 35.672c-8.75 14.807-16.692 17.634-48.057 17.634-25.98 0.135-28.807-0.404-37.153-6.058z" />
<glyph unicode="&#xe91f;" horiz-adv-x="1037" d="M162.882 268.225c5.654-5.385 7.134-13.461 5.923-31.634-1.481-23.153-4.711-25.846-31.769-25.846-20.327 0-21.807 0-26.923 6.461s-5.115 10.096-5.115 25.711c0 26.923 2.423 29.346 31.634 29.346 17.096-0.135 23.288-1.077 26.25-4.038z" />
<glyph unicode="&#xe920;" horiz-adv-x="1037" d="M246.207 289.090c-5.613-4.239-10.151-9.595-13.34-15.761l-0.121-0.258c-3.126-7.119-4.946-15.417-4.946-24.14 0-3.983 0.379-7.877 1.104-11.648l-0.062 0.385c0.942-26.923 3.5-32.172 17.634-42.672 5.923-4.442 10.365-5.25 35.942-5.25s30.019 0.808 35.807 5.25c14.269 10.5 16.692 16.423 17.769 42.672 0.942 21.134 0 25.846-4.442 35.403-8.615 17.904-16.154 21.134-49.403 21.134-24.096 0.135-29.346-0.673-35.942-5.115z" />
<glyph unicode="&#xe921;" horiz-adv-x="1037" d="M308.263 268.763c3.904-2.961 4.981-7.134 5.385-24.096s0-21.134-4.442-26.923-6.058-6.865-26.923-6.865-21.807 0-26.923 6.865-5.25 9.154-4.442 26.923c0.942 26.115 2.423 26.923 31.365 26.923 2.082 0.267 4.491 0.42 6.935 0.42 6.825 0 13.372-1.19 19.446-3.373l-0.401 0.126z" />
<glyph unicode="&#xe922;" horiz-adv-x="1037" d="M391.858 289.628c-14.269-9.692-17.5-18.173-17.5-48.461 0-26.115 0-26.923 7.134-36.345 9.827-13.461 19.115-16.154 47.653-16.154 21.134 0 25.307 0.673 32.442 5.654 15.48 10.231 18.442 16.692 19.115 42.672 1.212 29.076-2.961 42.268-16.154 51.153-8.346 5.654-11.307 6.192-37.288 6.192-23.423 0-29.48-0.673-35.403-4.711z" />
<glyph unicode="&#xe923;" horiz-adv-x="1037" d="M454.184 267.282c7.404-7.404 7.134-40.384 0-50.076-4.711-6.192-6.192-6.461-26.923-6.461-26.923 0-30.288 2.692-31.769 25.846-1.885 31.365 1.75 35.538 31.769 35.538 18.846 0 22.75-0.538 26.923-4.846z" />
<glyph unicode="&#xe924;" horiz-adv-x="1037" d="M532.798 285.455c-12.25-11.038-15.615-22.884-14.269-49.134 1.346-21.807 5.654-32.442 17.5-41.326 5.923-4.308 11.173-5.115 34.461-5.788 25.576-0.808 28.269 0 35.807 4.846 16.019 10.769 18.711 16.692 19.519 44.691 0 22.211 0 26.923-4.442 35.672-8.346 16.961-16.019 19.923-49.672 19.923h-28.942z" />
<glyph unicode="&#xe925;" horiz-adv-x="1037" d="M600.239 266.744c2.61-5.752 4.131-12.473 4.131-19.55 0-1.648-0.083-3.277-0.244-4.883l0.016 0.202c0-15.346-1.077-19.923-5.25-25.307s-6.327-6.461-25.307-6.461c-29.211 0-30.961 1.75-30.961 30.692s0 30.692 30.826 30.692c21.134 0 23.288-0.404 26.788-5.385z" />
<glyph unicode="&#xe926;" horiz-adv-x="1037" d="M686.526 291.782c-12.127-6.799-20.547-18.966-22.060-33.195l-0.016-0.189c-0.637-4.257-1-9.169-1-14.167 0-13.213 2.542-25.833 7.163-37.397l-0.24 0.68c8.615-14.807 15.48-17.634 44.691-18.442 24.365 0 27.73 0 36.884 4.711 14.807 8.346 19.653 20.327 19.653 49.134 0 26.923-3.769 36.615-17.23 45.903-7.134 4.981-11.038 5.385-35.403 5.25-1.179 0.029-2.568 0.045-3.961 0.045-10.059 0-19.919-0.849-29.513-2.478l1.032 0.145z" />
<glyph unicode="&#xe927;" horiz-adv-x="1037" d="M745.082 266.744c2.741-5.85 4.341-12.703 4.341-19.93 0-1.894-0.11-3.763-0.324-5.6l0.021 0.223c0-27.73-2.961-30.692-30.288-30.692-29.48 0-31.23 1.75-31.23 30.692s0 30.692 30.692 30.692c21.269 0 23.423-0.404 26.788-5.385z" />
<glyph unicode="&#xe928;" horiz-adv-x="1037" d="M828.138 289.359c-14.404-8.884-17.634-17.5-17.634-48.057 0-24.365 0-28.269 5.654-35.672 8.884-13.461 18.846-16.961 46.845-16.961 41.73 0 53.845 11.307 53.845 53.037 0 27.999-3.769 38.095-16.961 46.98-7.404 5.115-11.307 5.654-35.672 5.654s-29.615-0.673-36.076-4.981z" />
<glyph unicode="&#xe929;" horiz-adv-x="1037" d="M890.060 266.744c2.692-5.831 4.261-12.653 4.261-19.842 0-2.069-0.13-4.107-0.382-6.107l0.024 0.238c0-27.73-2.423-30.288-30.153-30.288s-31.23 1.75-31.23 30.019c0 30.423 0.942 31.499 30.961 31.499 21-0.135 23.153-0.538 26.519-5.519z" />
<glyph unicode="&#xe92a;" horiz-adv-x="1037" d="M101.229 144.381c-5.625-4.274-10.166-9.676-13.34-15.892l-0.121-0.261c-3.392-7.243-5.371-15.728-5.371-24.675 0-3.697 0.338-7.315 0.985-10.824l-0.056 0.365c0.808-26.923 3.635-33.115 19.115-43.615 7.134-4.981 11.173-5.788 34.461-5.788s26.923 0.808 34.326 5.788c16.557 11.038 18.442 16.154 18.442 46.576s-2.423 37.422-15.48 47.114c-5.654 4.173-11.038 4.981-36.076 5.654s-29.749 0-36.884-4.442z" />
<glyph unicode="&#xe92b;" horiz-adv-x="1037" d="M162.882 123.246c5.654-5.385 7.134-13.461 5.923-31.634-1.481-23.153-4.711-25.846-31.769-25.846-20.327 0-21.807 0-26.923 6.461s-5.115 10.096-5.115 25.846c0 26.923 2.423 29.211 31.634 29.211 17.096 0 23.288-1.077 26.25-4.038z" />
<glyph unicode="&#xe92c;" horiz-adv-x="1037" d="M246.072 144.381c-5.595-4.303-10.129-9.697-13.337-15.89l-0.124-0.264c-3.095-6.957-4.898-15.074-4.898-23.612 0-4.077 0.411-8.058 1.194-11.903l-0.065 0.382c0.673-26.923 3.635-33.115 19.115-43.615 7.134-4.981 11.038-5.788 34.461-5.788s26.923 0.808 34.326 5.788c15.48 10.231 18.173 16.423 19.25 43.48 0.611 3.205 0.96 6.891 0.96 10.659 0 8.763-1.89 17.085-5.285 24.58l0.152-0.375c-8.884 17.904-14.269 20.327-48.191 21.134-26.653 0.404-30.288-0.135-37.557-4.577z" />
<glyph unicode="&#xe92d;" horiz-adv-x="1037" d="M308.263 123.785c3.904-2.961 4.981-7.134 5.385-24.096s0-21.134-4.442-26.923-6.058-6.865-26.923-6.865-21.807 0-26.923 6.865-5.25 9.154-4.442 26.923c0.942 26.115 2.423 26.923 31.365 26.923 2.014 0.242 4.347 0.38 6.711 0.38 6.899 0 13.524-1.174 19.686-3.334l-0.417 0.127z" />
<glyph unicode="&#xe92e;" horiz-adv-x="1037" d="M396.3 146.938c-11.211-6.643-19.316-17.523-22.153-30.38l-0.058-0.312c-2.692-19.25 0-47.518 5.654-54.787 10.769-14.807 18.711-17.769 47.518-17.769 23.288 0 26.923 0.808 34.326 5.654 15.48 10.634 18.442 16.692 19.115 43.749 0.614 3.23 0.965 6.946 0.965 10.743 0 8.932-1.942 17.411-5.426 25.037l0.154-0.377c-8.481 17.5-16.557 20.865-48.191 20.596-1.396 0.042-3.039 0.065-4.687 0.065-9.611 0-19.034-0.807-28.205-2.357l0.989 0.138z" />
<glyph unicode="&#xe92f;" horiz-adv-x="1037" d="M453.241 123.785c3.904-2.961 4.981-7.134 5.385-24.096s0-21.134-4.442-26.923-6.058-6.865-26.923-6.865c-26.923 0-30.153 2.692-31.634 25.846-2.019 31.499 1.75 35.538 31.23 35.538 1.867 0.226 4.029 0.355 6.221 0.355 7.261 0 14.191-1.416 20.529-3.986l-0.366 0.131z" />
<glyph unicode="&#xe930;" horiz-adv-x="1037" d="M16.154 749.331c-2.521-3.192-4.044-7.274-4.044-11.711s1.523-8.519 4.074-11.751l-0.031 0.040c14.807-13.461 36.884 5.923 24.769 21.134-3.1 4.143-7.995 6.796-13.51 6.796-3.845 0-7.389-1.29-10.222-3.46l0.040 0.030z" />
<glyph unicode="&#xe931;" glyph-name="icon-contacts-rouge" d="M810.667 661.333h213.333v-85.333h-213.333zM725.333 448h298.667v-85.333h-298.667zM853.333 234.667h170.667v-85.333h-170.667zM85.333 21.333c0 188.513 152.82 341.333 341.333 341.333s341.333-152.82 341.333-341.333v0h-85.333c0 141.385-114.615 256-256 256s-256-114.615-256-256v0zM426.667 405.333c-141.385 0-256 114.615-256 256s114.615 256 256 256c141.385 0 256-114.615 256-256v0c0-141.385-114.615-256-256-256v0zM426.667 490.667c94.257 0 170.667 76.41 170.667 170.667s-76.41 170.667-170.667 170.667c-94.257 0-170.667-76.41-170.667-170.667v0c0-94.257 76.41-170.667 170.667-170.667v0z" />
<glyph unicode="&#xe932;" horiz-adv-x="1053" d="M721.935 955.666c-3.096-3.091-5.011-7.363-5.011-12.083s1.915-8.992 5.010-12.082v0c2.853-2.802 6.722-4.578 11.004-4.727l0.028-0.001c9.36 0.502 16.87 7.785 17.724 16.999l0.006 0.074c-0.374 9.061-7.81 16.265-16.928 16.265-4.415 0-8.436-1.689-11.452-4.456l0.012 0.011z" />
<glyph unicode="&#xe933;" horiz-adv-x="1053" d="M123.19 945.028c-22.887-8.243-41.144-24.623-51.636-45.567l-0.241-0.531c-3.869-10.129-6.11-21.843-6.11-34.081s2.241-23.952 6.334-34.755l-0.224 0.675c10.008-18.208 24.72-32.75 42.518-42.278l0.559-0.273c9.9-3.558 21.323-5.615 33.227-5.615s23.327 2.057 33.934 5.834l-0.707-0.22c17.921 9.048 32.3 22.878 41.773 39.825l0.254 0.494c4.712 8.316 7.49 18.266 7.49 28.863 0 2.417-0.144 4.8-0.425 7.142l0.028-0.283c0.216 1.947 0.339 4.204 0.339 6.49 0 10.804-2.752 20.965-7.594 29.82l0.163-0.325c-9.632 17.898-24.135 32.105-41.739 41.114l-0.55 0.256c-10.238 3.846-22.070 6.072-34.422 6.072-8.148 0-16.070-0.969-23.657-2.797l0.687 0.14zM174.672 920.469c19.632-11.248 33.107-31.309 35.049-54.645l0.017-0.252c-1.95-23.564-15.306-43.634-34.472-54.849l-0.331-0.179c-7.866-3.426-17.031-5.419-26.661-5.419s-18.794 1.993-27.103 5.589l0.442-0.17c-20.197 9.609-33.909 29.851-33.909 53.295 0 0.609 0.009 1.217 0.028 1.821l-0.002-0.089c-0.005 0.303-0.009 0.66-0.009 1.018 0 27.592 18.618 50.835 43.977 57.851l0.422 0.1c4.342 0.894 9.333 1.406 14.443 1.406 10.131 0 19.793-2.013 28.606-5.66l-0.497 0.182z" />
<glyph unicode="&#xe934;" horiz-adv-x="1053" d="M516.4 937.805c-13.133-6.698-492.234-364.579-500.64-373.772-9.878-11.202-15.908-26.003-15.908-42.212 0-19.025 8.306-36.109 21.49-47.825l0.065-0.057c4.383-3.749 9.345-7.032 14.687-9.664l0.417-0.186c8.054-3.674 17.468-5.816 27.383-5.816s19.329 2.142 27.806 5.987l-0.423-0.172c5.91 2.889 61.464 43.077 123.453 89.437l113.209 83.002h383.36l118.199-89.043c64.747-48.856 122.008-90.882 127.524-93.115 7.047-2.319 15.158-3.656 23.581-3.656 9.295 0 18.209 1.628 26.474 4.615l-0.542-0.171c22.793 9.585 38.507 31.73 38.507 57.545 0 0.639-0.010 1.276-0.029 1.91l0.002-0.093c0.122 1.297 0.192 2.806 0.192 4.33 0 9.588-2.762 18.531-7.534 26.077l0.118-0.201c-6.304 11.426-13.133 17.861-47.148 43.602l-39.4 30.206-1.445 94.165c-1.445 100.995-1.445 101.914-14.709 121.351-12.062 18.123-32.405 29.904-55.5 29.904-1.914 0-3.81-0.081-5.683-0.24l0.244 0.017c-0.803 0.037-1.744 0.059-2.69 0.059-17.53 0-33.35-7.323-44.567-19.078l-0.023-0.024c-18.124-16.942-21.801-28.499-22.983-74.466 0.049-1.906 0.077-4.151 0.077-6.403 0-11.631-0.744-23.089-2.186-34.327l0.139 1.331s-60.413 45.178-133.828 101.126-136.323 102.833-139.607 105.066c-1.663 1.658-3.957 2.684-6.492 2.684-2.113 0-4.060-0.713-5.612-1.911l0.021 0.016z" />
<glyph unicode="&#xe935;" horiz-adv-x="1053" d="M667.432 804.634c79.719-60.413 146.436-109.925 147.618-109.925 2.769 0.64 5.194 1.825 7.264 3.445l-0.040-0.030c4.334 3.152 4.597 7.486 5.779 58.968l1.445 55.554 7.486 9.456c8.103 11.984 21.644 19.758 37 19.758 1.446 0 2.876-0.069 4.287-0.204l-0.18 0.014c17.901-0.47 33.252-10.931 40.722-25.994l0.122-0.273c5.516-10.638 5.516-10.901 5.516-105.066 0-52.533 0.788-96.661 1.445-98.762 13.404-12.795 27.936-24.702 43.331-35.46l1.191-0.788c46.886-35.722 52.533-41.37 51.614-61.989-0.295-22.84-18.879-41.242-41.76-41.242-0.186 0-0.371 0.001-0.557 0.004h0.028c-0.081-0.001-0.177-0.001-0.273-0.001-3.455 0-6.798 0.48-9.965 1.377l0.257-0.062c-6.041 0-67.636 46.492-226.68 166.792-152.346 115.31-219.588 165.348-223.265 164.822s-100.075-72.102-217.487-159.306-215.779-159.7-220.245-161.933c-5.306-2.566-11.539-4.066-18.122-4.066-12.562 0-23.85 5.461-31.617 14.138l-0.036 0.041c-6.574 7.259-10.598 16.935-10.598 27.55 0 8.756 2.737 16.872 7.403 23.54l-0.088-0.133c3.021 4.597 108.218 84.578 248.219 188.725 133.565 99.419 243.228 180.845 244.016 180.845s66.323-49.381 146.173-109.794z" />
<glyph unicode="&#xe936;" horiz-adv-x="1053" d="M594.674 724.652c39.4-30.206 75.385-57.261 78.8-60.413l6.041-5.779h-160.751c-96.135 0-159.438 1.051-157.599 2.233 4.071 4.071 158.781 118.199 159.963 118.199s33.621-24.297 73.546-54.24z" />
<glyph unicode="&#xe937;" horiz-adv-x="1053" d="M1024 774.427c-3.096-3.091-5.011-7.363-5.011-12.083s1.915-8.992 5.010-12.082v0c2.84-2.823 6.717-4.606 11.009-4.727l0.023-0.001c9.442 0.517 16.997 7.936 17.726 17.271l0.004 0.065c-0.385 9.052-7.816 16.244-16.928 16.244-4.606 0-8.784-1.838-11.838-4.822l0.003 0.003z" />
<glyph unicode="&#xe938;" horiz-adv-x="1053" d="M33.096 762.87c-3.096-3.091-5.011-7.363-5.011-12.083s1.915-8.992 5.010-12.082v0c2.866-2.781 6.727-4.551 10.999-4.727l0.033-0.001c9.059 0.325 16.472 6.973 17.976 15.647l0.016 0.113c-0.862 9.065-8.437 16.1-17.655 16.1-0.581 0-1.156-0.028-1.723-0.083l0.072 0.006c-3.613-0.028-6.97-1.102-9.79-2.932l0.071 0.043z" />
<glyph unicode="&#xe939;" horiz-adv-x="1053" d="M485.536 544.989c-26.055-6.792-48.337-20.344-65.602-38.674l-0.064-0.069c-19.719-18.997-34.169-43.335-41.022-70.685l-0.217-1.022c-1.456-8.945-2.287-19.256-2.287-29.761 0-17.907 2.417-35.249 6.941-51.719l-0.32 1.367c10.027-24.942 25.003-46.032 43.838-62.9l0.158-0.139 13.133-10.901-63.302-1.182c-58.049-1.182-64.353-1.707-74.203-6.304-24.165-11.295-33.884-29.156-35.854-64.222v-23.771l-9.587-6.567c-41.634-29.703-69.901-75.831-75.321-128.726l-0.064-0.768c-1.707-14.972-1.97-15.76-9.719-18.649-16.967-8.523-28.733-25.193-30.196-44.734l-0.011-0.181c1.248-19.797 13.098-36.56 29.891-44.776l0.316-0.139c9.193-4.334 26.267-4.597 350.395-4.597 326.23 0 341.465 0 350.658 4.597 17.040 8.557 28.53 25.897 28.53 45.92 0 3.926-0.442 7.749-1.278 11.422l0.066-0.344c-4.459 14.451-14.371 26.074-27.274 32.69l-0.306 0.143c-8.668 3.152-10.901 7.486-10.901 21.539-2.719 22.143-8.781 42.282-17.707 60.779l0.502-1.154c-14.81 28.759-35.753 52.477-61.228 70.113l-0.63 0.412-7.88 5.253v23.115c0 26.267-4.859 39.4-18.912 52.533-16.679 14.053-20.094 14.053-89.175 16.154l-63.171 1.313 11.557 9.193c32.893 26.939 53.718 67.554 53.718 113.032 0 0.339-0.001 0.678-0.003 1.016v-0.052c0 0.11 0 0.241 0 0.372 0 23.868-5.928 46.352-16.393 66.058l0.37-0.764c-14.167 25.597-34.26 46.362-58.503 60.927l-0.728 0.406c-20.488 11.215-44.886 17.811-70.824 17.811-13.193 0-25.987-1.706-38.175-4.911l1.043 0.233z" />
<glyph unicode="&#xe93a;" horiz-adv-x="1053" d="M549.758 524.37c56.292-12.73 97.696-62.321 97.696-121.583 0-68.761-55.742-124.503-124.503-124.503s-124.503 55.742-124.503 124.503c0 34.671 14.172 66.031 37.038 88.605l0.013 0.013c22.489 22.177 53.392 35.872 87.493 35.872 9.485 0 18.722-1.059 27.6-3.067l-0.834 0.159z" />
<glyph unicode="&#xe93b;" horiz-adv-x="1053" d="M736.25 249.622c4.833-3.804 8.828-8.428 11.83-13.691l0.121-0.23c4.334-8.011 4.597-16.679 4.597-143.152v-134.879h-461.109v135.404c0 131.333 0 136.061 4.728 143.809 3.465 5.285 7.849 9.668 12.964 13.029l0.169 0.104c7.749 4.597 13.133 4.728 213.678 4.728h205.010z" />
<glyph unicode="&#xe93c;" horiz-adv-x="1053" d="M267.524 96.751v-61.858h-31.914l-32.176 0.788 0.788 10.769c3.895 37.183 19.999 70.017 44.17 94.997l-0.042-0.044c5.399 6.357 11.203 12.036 17.488 17.146l0.242 0.19c1.445-20.882 1.97-41.501 1.445-61.989z" />
<glyph unicode="&#xe93d;" horiz-adv-x="1053" d="M794.693 142.849c24.346-23.76 40.672-55.641 44.593-91.257l0.060-0.676 1.445-16.417h-32.308l-32.439 0.788v61.070c-0.637 7.832-1 16.956-1 26.163 0 12.758 0.697 25.354 2.056 37.751l-0.136-1.531c6.668-4.729 12.481-9.958 17.636-15.784l0.093-0.108z" />
<glyph unicode="&#xe93e;" horiz-adv-x="1053" d="M267.524-14.488v-27.843h-40.713c-38.218 0-41.107 0-48.856 5.647-7.405 4.936-12.217 13.253-12.217 22.694 0 5.642 1.718 10.882 4.661 15.226l-0.061-0.096 2.495 3.152c7.223 7.749 12.345 8.668 54.634 8.668h40.319z" />
<glyph unicode="&#xe93f;" horiz-adv-x="1053" d="M864.3 9.678c9.282-4.187 15.625-13.36 15.625-24.014 0-12.267-8.409-22.57-19.777-25.459l-0.182-0.039c-9.811-1.425-21.139-2.239-32.657-2.239-4.867 0-9.7 0.145-14.495 0.432l0.66-0.032h-37.43v23.903c-0.252 4.082-0.395 8.854-0.395 13.659s0.143 9.576 0.426 14.31l-0.031-0.652c1.707 4.728 78.537 4.728 88.255 0.131z" />
<glyph unicode="&#xe940;" horiz-adv-x="1053" d="M509.833 179.885c-32.024-5.736-56.057-33.247-56.341-66.424v-0.030c-0.042-0.885-0.066-1.922-0.066-2.964 0-25.896 14.696-48.36 36.203-59.506l0.373-0.176c7.614-4.734 16.854-7.54 26.75-7.54 2.004 0 3.982 0.115 5.926 0.339l-0.237-0.022c1.648-0.181 3.559-0.284 5.495-0.284 8.62 0 16.761 2.045 23.967 5.677l-0.306-0.14c13.37 6.42 24.042 16.669 30.817 29.318l0.178 0.363c5.123 9.436 8.135 20.661 8.135 32.589 0 26.058-14.374 48.76-35.625 60.608l-0.352 0.18c-9.835 5.565-21.598 8.845-34.127 8.845-3.808 0-7.546-0.303-11.19-0.886l0.401 0.053zM542.403 153.618c16.029-7.412 26.95-23.355 26.95-41.848 0-17.62-9.914-32.924-24.468-40.639l-0.249-0.121c-6.566-3.782-14.439-6.013-22.833-6.013-25.604 0-46.36 20.756-46.36 46.36 0 5.058 0.81 9.926 2.307 14.483l-0.093-0.328c4.895 12.634 13.83 22.802 25.193 29.141l0.285 0.146c5.462 2.033 11.772 3.209 18.357 3.209 7.599 0 14.832-1.567 21.395-4.394l-0.351 0.135z" />
<glyph unicode="&#xe941;" horiz-adv-x="1053" d="M226.417 447.672c-3.103-3.112-5.022-7.406-5.022-12.148s1.919-9.037 5.022-12.149v0c2.866-2.781 6.727-4.551 10.999-4.727l0.033-0.001c9.201 0.739 16.516 7.918 17.46 16.991l0.007 0.082c-0.621 9.285-8.305 16.581-17.693 16.581-0.383 0-0.763-0.012-1.139-0.036l0.051 0.003c-3.778-0.591-7.096-2.232-9.735-4.612l0.017 0.015z" />
<glyph unicode="&#xe942;" horiz-adv-x="1053" d="M794.299 412.081c-3.103-3.112-5.022-7.406-5.022-12.148s1.919-9.037 5.022-12.149v0c2.853-2.802 6.722-4.578 11.004-4.727l0.028-0.001c9.146 0.8 16.394 7.959 17.329 16.992l0.007 0.082c-0.856 9.071-8.434 16.112-17.656 16.112-0.627 0-1.247-0.033-1.858-0.096l0.076 0.006c-3.446-0.554-6.484-2-8.957-4.093l0.027 0.022z" />
<glyph unicode="&#xe943;" horiz-adv-x="1053" d="M944.018 291.911c-18.585-9.055-33.147-23.956-41.541-42.272l-0.223-0.543c-2.22-6.767-3.5-14.555-3.5-22.642 0-31.070 18.895-57.727 45.822-69.106l0.492-0.185c7.043-2.52 15.169-3.976 23.635-3.976 27.924 0 52.147 15.845 64.168 39.034l0.19 0.402c4.112 9.332 6.506 20.212 6.506 31.651s-2.394 22.319-6.707 32.167l0.201-0.516c-12.439 23.889-37.012 39.921-65.329 39.921-8.49 0-16.644-1.441-24.229-4.092l0.515 0.157zM983.418 271.686c12.664-4.499 23.002-12.926 29.803-23.793l0.14-0.241c3.446-6.45 5.471-14.108 5.471-22.239 0-13.672-5.724-26.008-14.906-34.741l-0.020-0.019c-8.588-9.236-20.806-14.995-34.37-14.995-12.048 0-23.035 4.544-31.34 12.012l0.043-0.038-1.576 1.576c-9.494 8.934-15.407 21.581-15.407 35.61 0 20.020 12.041 37.227 29.277 44.774l0.314 0.123c5.593 2.721 12.167 4.311 19.112 4.311 5.099 0 9.997-0.857 14.559-2.435l-0.313 0.094z" />
<glyph unicode="&#xe944;" horiz-adv-x="1053" d="M69.344 158.74c-3.103-3.112-5.022-7.406-5.022-12.148s1.919-9.037 5.022-12.149v0c2.895-2.732 6.738-4.488 10.986-4.726l0.046-0.002c9.218 0.801 16.525 8.018 17.46 17.123l0.007 0.082c-0.997 8.861-8.449 15.685-17.494 15.685-4.18 0-8.020-1.457-11.039-3.892l0.034 0.026z" />
<glyph unicode="&#xe945;" horiz-adv-x="1053" d="M975.407-22.893c-3.103-3.112-5.022-7.406-5.022-12.148s1.919-9.037 5.022-12.149v0c2.949-2.615 6.853-4.212 11.13-4.212 0.197 0 0.392 0.003 0.587 0.010l-0.028-0.001c9.186 0.81 16.455 8.034 17.33 17.127l0.006 0.077c-0.861 8.993-8.377 15.969-17.523 15.969-0.582 0-1.157-0.028-1.724-0.083l0.072 0.006c-3.849-0.457-7.242-2.124-9.858-4.604l0.008 0.007z" />
<glyph unicode="&#xe946;" horiz-adv-x="1109" d="M79.989 40.208c-4.513 2.218-9.822 3.515-15.435 3.515s-10.922-1.297-15.645-3.608l0.21 0.093c-15.666-5.687-26.655-20.442-26.655-37.765 0-0.694 0.018-1.385 0.053-2.070l-0.004 0.096c-0.048-0.714-0.075-1.548-0.075-2.387 0-12.141 5.663-22.959 14.492-29.957l0.079-0.061c7.366-6.463 17.083-10.406 27.721-10.406 12.672 0 24.037 5.595 31.759 14.449l0.043 0.050c6.557 7.296 10.568 16.994 10.574 27.628v0.001c0.048 0.738 0.076 1.6 0.076 2.469 0 17.523-11.245 32.42-26.913 37.867l-0.281 0.085z" />
<glyph unicode="&#xe947;" horiz-adv-x="1109" d="M844.408 863.296v74.873h-652.706v-872.549h72.485v395.001c0 356.115 0 395.512 3.923 398.753s32.746 3.923 289.94 3.923z" />
<glyph unicode="&#xe948;" horiz-adv-x="1109" d="M1066.809 920.773c-4.743 3.395-10.662 5.429-17.055 5.429s-12.312-2.034-17.145-5.489l0.089 0.061c-11.689-6.331-19.494-18.505-19.494-32.501 0-6.332 1.598-12.291 4.412-17.496l-0.096 0.195c7.26-10.494 18.594-17.728 31.665-19.419l0.228-0.024c6.376 0.934 12.123 2.91 17.321 5.762l-0.266-0.134c11.509 5.643 19.293 17.275 19.293 30.724 0 0.411-0.007 0.821-0.022 1.229l0.002-0.059c0.013 0.348 0.020 0.756 0.020 1.166 0 13.316-7.63 24.849-18.756 30.468l-0.195 0.089z" />
<glyph unicode="&#xe949;" horiz-adv-x="1109" d="M912.97 863.296h-44.514v42.979c0 34.111 0 44.003-3.752 48.437l-3.752 5.287h-685.964l-3.582-5.287c-3.411-4.946-3.923-51.166-3.923-452.818s0-447.872 3.923-452.648 4.775-5.458 48.266-5.458h44.514v-42.979c0-34.111 0-44.003 3.923-48.266l3.582-5.458h685.964l3.752 5.458c3.411 4.775 3.752 51.166 3.752 452.648s0 447.872-3.752 452.818-4.946 5.287-48.437 5.287zM268.109 859.374c-3.411-3.411-3.752-42.809-3.752-398.923v-394.83h-72.656v872.549h652.536v-74.873h-286.188c-257.194 0-286.529-0.512-289.94-3.923zM941.111 405.191v-436.274h-652.706v872.72h652.536z" />
<glyph unicode="&#xe94a;" horiz-adv-x="1109" d="M380.504 742.545l-3.582-5.458c-3.241-4.605-3.411-5.969 0-10.404s4.093-4.775 238.774-4.775 235.193 0 238.774 4.775 2.558 5.799 0 10.404l-3.752 5.458z" />
<glyph unicode="&#xe94b;" horiz-adv-x="1109" d="M848.842 645.671h-468.338l-3.582-5.287c-3.241-4.605-3.411-5.969 0-10.404s4.093-4.775 238.774-4.775 235.193 0 238.774 4.775 2.558 5.799 0 10.404z" />
<glyph unicode="&#xe94c;" horiz-adv-x="1109" d="M848.842 549.138h-468.338l-3.582-5.458c-3.241-4.434-3.411-5.969 0-10.233s4.093-4.946 238.774-4.946 235.193 0 238.774 4.946 2.558 5.799 0 10.233z" />
<glyph unicode="&#xe94d;" horiz-adv-x="1109" d="M848.842 452.434h-468.338l-3.582-5.287c-3.241-4.605-3.411-6.14 0-10.404s4.093-4.946 238.774-4.946 235.193 0 238.774 4.946 2.558 5.799 0 10.404z" />
<glyph unicode="&#xe94e;" horiz-adv-x="1109" d="M848.842 355.731h-468.338l-3.582-5.287c-3.241-4.605-3.411-6.14 0-10.404s4.093-4.946 238.774-4.946 235.193 0 238.774 4.946 2.558 5.799 0 10.404z" />
<glyph unicode="&#xe94f;" horiz-adv-x="1109" d="M655.606 259.027h-275.102l-3.582-5.287c-3.241-4.605-3.411-6.14 0-10.404s4.775-4.946 141.559-4.946 138.489 0 141.73 4.946 2.558 5.799 0 10.404z" />
<glyph unicode="&#xe950;" horiz-adv-x="1109" d="M1049.753 947.72c-7.171-0.146-14.015-1.32-20.463-3.381l0.508 0.14c-22.883-8.527-38.887-30.191-38.887-55.593 0-0.122 0-0.245 0.001-0.367v0.019c-0.056-0.852-0.087-1.846-0.087-2.848 0-9.259 2.702-17.886 7.362-25.137l-0.111 0.185c10.155-18.52 29.519-30.867 51.766-30.867 32.497 0 58.841 26.344 58.841 58.841s-26.344 58.841-58.841 58.841c-0.211 0-0.422-0.001-0.632-0.003h0.032zM1066.809 856.815c-4.932-2.719-10.679-4.694-16.777-5.594l-0.279-0.034c-13.3 1.715-24.633 8.949-31.794 19.292l-0.099 0.151c-2.821 5.1-4.481 11.182-4.481 17.652 0 13.818 7.572 25.867 18.794 32.224l0.184 0.096c4.743 3.395 10.662 5.429 17.055 5.429s12.312-2.034 17.145-5.489l-0.089 0.061c11.512-5.642 19.299-17.275 19.299-30.727 0-0.47-0.010-0.938-0.028-1.404l0.002 0.067c0.013-0.349 0.020-0.758 0.020-1.17 0-13.449-7.784-25.080-19.092-30.635l-0.201-0.089z" />
<glyph unicode="&#xe951;" horiz-adv-x="1109" d="M16.885 829.527c4.273 0.384 8.125 1.926 11.315 4.306l-0.059-0.042c3.329 3.12 5.404 7.545 5.404 12.455 0 9.28-7.412 16.83-16.64 17.050h-0.020c-4.212-0.417-8.001-1.954-11.144-4.305l0.058 0.041c-3.332-3.121-5.409-7.548-5.409-12.46 0-9.222 7.32-16.735 16.466-17.045l0.028-0.001z" />
<glyph unicode="&#xe952;" horiz-adv-x="1109" d="M1031.675 718.326c-4.243-0.369-8.051-1.981-11.125-4.465l0.039 0.030c-3.328-3.12-5.401-7.544-5.401-12.452 0-4.483 1.73-8.562 4.558-11.606l-0.010 0.011c2.997-3.23 7.212-5.293 11.91-5.457l0.029-0.001c4.243 0.369 8.051 1.981 11.125 4.465l-0.039-0.030c3.328 3.12 5.401 7.544 5.401 12.452 0 4.483-1.73 8.562-4.558 11.606l0.010-0.011c-2.997 3.23-7.212 5.293-11.91 5.457l-0.029 0.001z" />
<glyph unicode="&#xe953;" horiz-adv-x="1109" d="M113.077 537.029c-4.238-0.401-8.038-2.007-11.129-4.467l0.043 0.033c-3.395-3.127-5.514-7.595-5.514-12.557 0-4.273 1.571-8.179 4.167-11.171l-0.018 0.021c0.416-0.501 0.863-0.948 1.348-1.351l0.017-0.013c2.942-2.48 6.775-3.987 10.96-3.987 4.884 0 9.289 2.053 12.399 5.344l0.008 0.008c2.642 2.985 4.257 6.931 4.264 11.255v0.001c-0.090 9.17-7.404 16.602-16.518 16.884l-0.026 0.001z" />
<glyph unicode="&#xe954;" horiz-adv-x="1109" d="M1079.941 271.137c-4.238-0.401-8.038-2.007-11.129-4.467l0.043 0.033c-3.065-3.083-4.96-7.332-4.96-12.024s1.895-8.941 4.96-12.025l-0.001 0.001c2.958-3.191 7.104-5.246 11.731-5.456l0.037-0.001c4.288 0.447 8.135 2.044 11.31 4.474l-0.054-0.039c3.065 3.083 4.96 7.332 4.96 12.024s-1.895 8.941-4.96 12.025l0.001-0.001c-2.997 3.23-7.212 5.293-11.91 5.457l-0.029 0.001z" />
<glyph unicode="&#xe955;" horiz-adv-x="1109" d="M64.81 188.93c4.149 0.172 7.959 1.485 11.164 3.631l-0.078-0.049c3.116 3.091 5.045 7.375 5.045 12.109s-1.929 9.018-5.044 12.108l-0.001 0.001c-3.020 3.166-7.234 5.17-11.917 5.287h-0.021c-4.216-0.388-8.010-1.93-11.14-4.303l0.054 0.039c-3.332-3.121-5.409-7.548-5.409-12.46 0-9.222 7.32-16.735 16.466-17.045l0.028-0.001z" />
<glyph unicode="&#xe956;" horiz-adv-x="1109" d="M93.975 58.798c-9.348 3.833-20.198 6.058-31.568 6.058-5.543 0-10.962-0.529-16.211-1.539l0.535 0.086c-19.064-6.482-34.209-20.183-42.453-37.763l-0.186-0.441c-2.434-7.443-3.837-16.008-3.837-24.901s1.403-17.458 4.001-25.486l-0.164 0.585c7.144-14.303 17.867-25.902 31.019-33.906l0.363-0.205c8.66-3.562 18.714-5.63 29.25-5.63s20.59 2.068 29.776 5.82l-0.526-0.19c13.552 8.163 24.288 19.775 31.17 33.639l0.212 0.472c2.434 7.443 3.837 16.008 3.837 24.901s-1.403 17.458-4.001 25.486l0.164-0.585c-6.996 14.245-17.763 25.725-31.009 33.4l-0.373 0.199zM37.010-32.107c-8.908 7.058-14.572 17.877-14.572 30.018 0 0.84 0.027 1.674 0.080 2.5l-0.006-0.113c-0.031 0.59-0.049 1.28-0.049 1.974 0 17.322 10.989 32.078 26.376 37.676l0.279 0.089c4.513 2.218 9.822 3.515 15.435 3.515s10.922-1.297 15.645-3.608l-0.21 0.093c15.954-5.529 27.205-20.429 27.205-37.956 0-0.927-0.032-1.848-0.093-2.759l0.007 0.123c-0.088-23.293-18.991-42.142-42.297-42.142-10.666 0-20.409 3.948-27.849 10.461l0.049-0.042z" />
<glyph unicode="&#xe957;" glyph-name="icon-draft-rouge" d="M853.539 874.77c22.74 0 41.174-18.434 41.174-41.174v0-161.814l-83.995-85.23v202.577h-597.436v-682.667h597.436v117.758l85.23 85.23v-247.045c0-22.74-18.434-41.174-41.174-41.174v0h-684.314c-22.74 0-41.174 18.434-41.174 41.174v0 0 769.544c0 22.74 18.434 41.174 41.174 41.174v0zM929.3 584.080l58.879-60.114-329.393-331.863h-61.349v60.114l331.863 331.863zM554.615 447.794v-85.23h-213.282v85.23zM682.667 618.667v-85.23h-341.333v85.23z" />
<glyph unicode="&#xe958;" horiz-adv-x="997" d="M133.827 955.093c-3.836-2.965-6.282-7.567-6.282-12.74 0-3.602 1.186-6.928 3.189-9.607l-0.030 0.042c2.831-3.855 7.347-6.33 12.441-6.33 0.568 0 1.128 0.031 1.68 0.091l-0.068-0.006c0 0 0.001 0 0.002 0 8.544 0 15.486 6.864 15.611 15.378v0.012c0 4.885-2.151 9.267-5.557 12.251l-0.019 0.016c-2.462 3.348-6.386 5.497-10.813 5.497-2.981 0-5.735-0.975-7.959-2.623l0.036 0.026c-0.819-0.633-1.548-1.291-2.223-2l-0.007-0.008z" />
<glyph unicode="&#xe959;" horiz-adv-x="997" d="M220.815 895.317c-118.214-35.241-216.354-64.906-217.915-65.798-1.687-2.433-2.694-5.448-2.694-8.699s1.008-6.266 2.728-8.75l-0.033 0.051c1.338 0 39.479-11.152 84.534-22.305l81.635-22.305v-113.976c0-102.155 0-114.645 4.461-118.437s9.368-4.461 85.426-4.461h81.411l-16.951-8.253c-75.486-38.107-132.534-103.501-158.839-182.903l-0.638-2.224c-8.739-28.263-13.773-60.754-13.773-94.422 0-18.005 1.439-35.673 4.21-52.896l-0.251 1.893c26.676-146.104 152.978-255.4 304.808-255.4 9.298 0 18.501 0.41 27.591 1.213l-1.177-0.084c158.169 14.383 281.133 146.358 281.133 307.053 0 110.060-57.681 206.648-144.463 261.183l-1.282 0.752c-6.163 4.072-13.464 8.299-21.006 12.117l-1.299 0.596-21.189 11.152h79.404c63.345 0 79.85 0 82.081 3.123 2.293 26.343 3.6 56.997 3.6 87.957 0 11.268-0.173 22.495-0.517 33.679l0.040-1.637v116.653l139.626 35.464h5.13v-338.359l-13.606-4.907c-18.029-6.734-32.215-20.194-39.75-37.25l-0.175-0.445-7.807-15.836v-55.761c-1.057-9.334-1.66-20.154-1.66-31.115s0.603-21.78 1.778-32.428l-0.118 1.313c2.9-4.907 4.015-4.907 73.382-4.907s70.928 0 73.159 4.907c1.8 11.884 2.828 25.595 2.828 39.548 0 7.512-0.298 14.954-0.883 22.316l0.062-0.972v55.984l-7.584 15.613c-8.017 17.71-22.592 31.268-40.548 37.762l-0.492 0.156-13.829 4.907v178.436c0 98.14 0 179.997-2.23 181.559s-465.272 133.827-471.294 133.827c-1.115 0-98.809-29.219-217.023-64.683z" />
<glyph unicode="&#xe95a;" horiz-adv-x="997" d="M635.232 883.049c234.643-64.906 217.915-60.222 215.908-61.783s-92.787-24.535-206.54-52.416l-205.201-51.3-248.026 66.244-72.044 20.074c-66.914 17.621-66.914 17.174-64.46 18.736s379.177 114.199 384.307 114.199 89.887-24.535 196.057-53.754z" />
<glyph unicode="&#xe95b;" horiz-adv-x="997" d="M719.99 657.774v-105.946h-526.386v209.216l123.344-32.788 122.898-33.011 136.058 34.126c74.943 18.959 137.842 34.572 140.295 34.572s3.792-6.468 3.792-106.169z" />
<glyph unicode="&#xe95c;" horiz-adv-x="997" d="M501.628 517.479c30.412-23.287 53.844-54.258 67.555-90.041l0.474-1.407c13.383-31.226 13.829-30.111-11.152-39.256-22.31-8.842-48.15-14.951-75.105-17.113l-0.954-0.062h-12.491v160.369l10.483-2.9c8.292-3.027 15.279-6.258 21.954-9.983l-0.764 0.392z" />
<glyph unicode="&#xe95d;" horiz-adv-x="997" d="M552.706 513.91c36.303-12.648 67.605-31.086 94.466-54.491l-0.341 0.291 10.706-9.591-12.267-11.598c-12.565-11.67-26.688-21.953-41.947-30.441l-1.101-0.562c-4.163 6.414-7.783 13.785-10.489 21.584l-0.217 0.72c-11.902 29.567-27.301 55.067-46.099 77.637l0.375-0.463c-4.349 4.123-8.238 8.649-11.634 13.544l-0.187 0.285s9.145-2.453 18.736-6.914z" />
<glyph unicode="&#xe95e;" horiz-adv-x="997" d="M926.975 436.959c7.414-4.404 13.339-10.615 17.278-18.042l0.12-0.248 7.137-12.267v-97.917h-103.939v47.732c0 46.839 0 48.178 6.245 60.222 8.637 16.676 25.762 27.875 45.503 27.875 8.465 0 16.449-2.059 23.479-5.704l-0.284 0.134z" />
<glyph unicode="&#xe95f;" horiz-adv-x="997" d="M689.209 414.209c30.66-41.37 50.539-92.407 54.591-147.838l0.055-0.933v-11.375h-117.991v12.491c0 6.691-2.453 24.535-3.792 39.479s-5.13 39.033-8.030 53.085-5.353 25.873-5.13 25.873c19.461 12.097 36.204 24.227 52.045 37.404l-0.744-0.602c4.294 4.101 8.955 7.912 13.895 11.348l0.38 0.25c5.371-5.679 10.228-11.955 14.43-18.682l0.291-0.499z" />
<glyph unicode="&#xe960;" horiz-adv-x="997" d="M591.516 357.778c5.134-23.911 9.099-52.557 11.051-81.753l0.101-1.888v-18.959h-133.827v93.456l18.736 1.561c28.835 2.92 55.287 9.302 80.21 18.783l-2.145-0.716 18.067 7.137c3.599-5.004 6.307-10.911 7.746-17.299l0.061-0.322z" />
<glyph unicode="&#xe961;" horiz-adv-x="997" d="M603.56 225.289c0-4.238-2.007-17.844-2.677-30.334-2.435-29.336-7.253-56.31-14.341-82.35l0.735 3.169c-0.278-0.012-0.605-0.020-0.933-0.020-4.364 0-8.435 1.253-11.873 3.419l0.092-0.054c-27.93 11.149-60.307 19.052-94.065 22.199l-1.399 0.105h-9.145v91.448h133.827z" />
<glyph unicode="&#xe962;" horiz-adv-x="997" d="M743.855 221.052c-3.785-40.232-14.985-77.080-32.234-110.283l0.784 1.66c-11.29-21.202-24.105-39.495-38.835-56.046l0.249 0.284c-5.559 3.463-10.382 7.293-14.726 11.604l0.005-0.005c-14.139 11.483-29.929 22.801-46.382 33.163l-2.018 1.186c-3.346 2.007-3.569 3.792-1.561 10.706 5.828 22.489 10.478 49.386 13.007 76.898l0.153 2.060c0 11.821 1.784 25.873 2.453 31.449v10.037h117.991z" />
<glyph unicode="&#xe963;" horiz-adv-x="997" d="M507.874 115.997c23.461-4.52 44.161-10.923 63.827-19.285l-2.043 0.772c12.714-5.13 12.714-3.346 1.115-32.342-12.764-33.193-31.822-61.426-55.899-84.453l-0.085-0.081c-10.954-8.632-23.676-15.67-37.448-20.466l-0.916-0.278-6.691-1.338v161.039h9.145c10.865-0.711 20.809-1.98 30.555-3.812l-1.559 0.244z" />
<glyph unicode="&#xe964;" horiz-adv-x="997" d="M448.767 448.558v-78.958h-11.598c-30.78 0-99.478 20.074-99.478 28.996 4.664 17.059 10.6 31.877 17.979 45.814l-0.582-1.205c14.108 32.055 36.673 58.207 64.892 76.317l0.683 0.41c14.052 7.36 23.42 10.483 26.319 8.922s1.784-37.249 1.784-80.296z" />
<glyph unicode="&#xe965;" horiz-adv-x="997" d="M371.147 507.442c-6.245-7.584-14.944-18.959-19.405-24.981-11.445-18.993-22.11-41.052-30.748-64.1l-0.924-2.813c-0.714-3-2.030-5.621-3.821-7.844l0.029 0.038c-17.689 8.105-32.864 18.427-46.029 30.856l0.081-0.076-11.821 10.706 7.137 6.022c27.648 24.745 60.247 44.644 96.043 57.977l2.097 0.684 18.29 6.022c-3.522-4.589-7.101-8.664-10.929-12.49v0z" />
<glyph unicode="&#xe966;" horiz-adv-x="997" d="M291.297 396.142c9.368-5.799 17.174-10.706 17.398-11.152-1.115-9.368-2.9-18.513-4.907-27.881-5.519-26.333-9.653-57.693-11.515-89.663l-0.083-1.786v-10.483h-118.66v15.39c4.889 57.043 26.195 108.332 59.111 150.032l-0.45-0.592 10.706 13.383 15.613-13.383c10.929-8.476 21.635-17.621 32.788-23.866z" />
<glyph unicode="&#xe967;" horiz-adv-x="997" d="M395.905 353.54c8.852-2.206 19.428-3.943 30.238-4.855l0.765-0.052c5.288-0.21 10.277-0.77 15.151-1.66l-0.653 0.099 7.137-1.561v-89.218h-65.575c-59.999 0-65.575 0-66.914 3.569 0.713 40.94 6.040 80.29 15.481 118.010l-0.76-3.587c8.319-1.202 15.831-3.466 22.816-6.679l-0.512 0.211c11.432-4.839 25.684-9.716 40.307-13.692l2.518-0.583z" />
<glyph unicode="&#xe968;" horiz-adv-x="997" d="M292.858 217.706c1.788-33.87 6.007-65.541 12.534-96.36l-0.713 4.019c2.453-11.598 4.684-21.189 4.684-22.305l-14.498-9.145c-11.598-7.584-22.305-15.613-33.234-24.089l-18.513-15.167-4.684 5.353c-13.161 17.103-25.656 36.366-36.572 56.607l-1.123 2.277c-14.719 31.325-24.797 67.722-28.236 106.032l-0.091 1.252v6.691h120.444z" />
<glyph unicode="&#xe969;" horiz-adv-x="997" d="M448.098 187.595v-44.609l-18.959-1.561c-27.968-2.702-53.679-8.855-77.874-18.080l2.039 0.683-22.305-8.030c-8.183 31.432-13.844 68.077-15.781 105.707l-0.056 1.354v9.814h133.827z" />
<glyph unicode="&#xe96a;" horiz-adv-x="997" d="M448.544 39.047v-80.519l-7.584 1.561c-29.708 10.296-53.82 30.361-69.042 56.277l-0.325 0.599c-13.847 20.086-24.98 43.38-32.15 68.35l-0.414 1.686c0 6.245 0 7.584 12.937 12.491 25.456 10.313 54.94 17.381 85.734 19.786l1.031 0.065h9.814z" />
<glyph unicode="&#xe96b;" horiz-adv-x="997" d="M322.3 66.481c12.053-33.842 29.246-63.031 50.935-88.241l-0.304 0.362c10.483-11.375 10.483-11.375 3.569-9.814-24.583 8.326-45.813 18.434-65.59 30.667l1.353-0.779c-19.692 11.385-36.633 24.704-51.456 40.078l-0.067 0.070c15.962 16.633 34.698 30.452 55.491 40.743l1.162 0.52c1.84-3.825 3.516-8.349 4.778-13.042l0.129-0.563z" />
<glyph unicode="&#xe96c;" horiz-adv-x="997" d="M625.865 66.035c9.323-6.643 17.467-13.229 25.194-20.266l-0.213 0.192 6.468-6.691-5.799-6.245c-31.273-29.395-69.651-51.602-112.264-63.765l-1.935-0.472c4.48 7.406 9.267 13.825 14.599 19.742l-0.101-0.114c17.781 24.379 33.167 52.258 44.847 81.999l0.877 2.535c3.123 10.929 4.684 10.929 28.327-6.914z" />
<glyph unicode="&#xe96d;" horiz-adv-x="997" d="M853.817 955.093c-3.436-2.962-5.598-7.321-5.598-12.184 0-3.85 1.355-7.383 3.613-10.149l-0.023 0.029c2.925-3.031 7.023-4.912 11.561-4.912 8.869 0 16.059 7.19 16.059 16.059 0 3.423-1.071 6.596-2.896 9.202l0.034-0.052-2.007 2.007c-2.432 2.996-6.114 4.894-10.24 4.894-3.247 0-6.22-1.176-8.515-3.125l0.019 0.016c-0.822-0.426-1.497-1.031-1.995-1.766l-0.012-0.019z" />
<glyph unicode="&#xe96e;" horiz-adv-x="997" d="M968.239 731.825c-2.44-2.881-4.173-6.436-4.886-10.347l-0.021-0.136c1.42-8.409 7.907-14.971 16.159-16.487l0.123-0.019c0.43-0.043 0.929-0.067 1.434-0.067 7.895 0 14.401 5.944 15.287 13.601l0.007 0.071v2.677c0.001 0.071 0.002 0.154 0.002 0.237 0 8.388-6.615 15.231-14.913 15.598l-0.033 0.001c-0.402 0.036-0.869 0.056-1.341 0.056-4.67 0-8.874-1.993-11.808-5.175l-0.010-0.011z" />
<glyph unicode="&#xe96f;" horiz-adv-x="997" d="M26.096 720.003c-2.972-2.951-4.812-7.039-4.812-11.556 0-8.992 7.29-16.282 16.282-16.282 5.465 0 10.301 2.692 13.254 6.823l0.034 0.049c3.386 2.505 5.557 6.484 5.557 10.97 0 2.906-0.911 5.599-2.463 7.81l0.029-0.043-2.23 2.23c-2.965 3.836-7.567 6.282-12.74 6.282-3.602 0-6.928-1.186-9.607-3.189l0.042 0.030z" />
<glyph unicode="&#xe970;" horiz-adv-x="997" d="M31.895 580.823c-18.952-8.245-31.963-26.807-31.963-48.408 0-0.939 0.025-1.872 0.073-2.799l-0.005 0.13c-0.025-0.612-0.039-1.33-0.039-2.051 0-29.409 23.232-53.392 52.345-54.598l0.109-0.004h4.684c31.247 0.377 56.432 25.795 56.432 57.096 0 0.158-0.001 0.316-0.002 0.474v-0.024c-0.076 11.014-3.307 21.257-8.834 29.89l0.135-0.225c-10.427 15.815-28.111 26.108-48.199 26.108-8.99 0-17.499-2.062-25.079-5.738l0.343 0.15z" />
<glyph unicode="&#xe971;" horiz-adv-x="997" d="M72.044 560.972c10.905-5.96 18.178-17.35 18.178-30.438 0-19.094-15.478-34.572-34.572-34.572s-34.572 15.478-34.572 34.572c0 13.088 7.273 24.478 17.998 30.348l0.18 0.090c4.641 2.992 10.31 4.77 16.394 4.77s11.753-1.778 16.515-4.843l-0.121 0.073z" />
<glyph unicode="&#xe972;" horiz-adv-x="997" d="M805.416 580.823c-2.856-2.468-4.652-6.096-4.652-10.143 0-3.384 1.256-6.474 3.327-8.831l-0.013 0.015 2.23-2.007c2.925-3.486 7.284-5.687 12.156-5.687 3.873 0 7.421 1.39 10.173 3.699l-0.024-0.020c3.499 3.081 5.695 7.571 5.695 12.574 0 8.652-6.569 15.77-14.991 16.639l-0.072 0.006c-0.357 0.029-0.773 0.045-1.193 0.045-5.144 0-9.715-2.452-12.607-6.251l-0.028-0.039z" />
<glyph unicode="&#xe973;" horiz-adv-x="997" d="M4.015 332.574c-2.543-3.033-4.088-6.979-4.088-11.285 0-8.971 6.704-16.376 15.376-17.479l0.087-0.009c9.144 1.335 16.286 8.476 17.607 17.508l0.013 0.112c-1.548 8.153-8.617 14.235-17.108 14.235-0.889 0-1.763-0.067-2.616-0.195l0.096 0.012c-3.494-0.079-6.723-1.15-9.435-2.941l0.067 0.041z" />
<glyph unicode="&#xe974;" horiz-adv-x="997" d="M854.263 176.443c-16.316-4.679-30.081-13.894-40.263-26.185l-0.108-0.134c-15.262-16.236-24.638-38.157-24.638-62.268 0-35.942 20.836-67.017 51.089-81.805l0.538-0.237c8.86-5.321 19.55-8.468 30.976-8.468 3.158 0 6.26 0.24 9.288 0.704l-0.339-0.043c2.605-0.352 5.615-0.553 8.673-0.553 11.502 0 22.339 2.845 31.846 7.87l-0.372-0.179c31.521 15.082 52.905 46.721 52.905 83.355 0 5.142-0.421 10.185-1.231 15.097l0.073-0.535c-5.887 31.935-26.998 57.911-55.374 70.464l-0.61 0.241c-10.535 3.979-22.714 6.283-35.431 6.283-9.613 0-18.919-1.316-27.747-3.779l0.725 0.173z" />
<glyph unicode="&#xe975;" horiz-adv-x="997" d="M910.247 152.8c24.010-11.295 40.498-34.971 41.261-62.578l0.002-0.098c0.030-0.745 0.047-1.62 0.047-2.499 0-17.146-6.449-32.786-17.054-44.627l0.056 0.064c-12.957-14.96-31.98-24.367-53.2-24.367-17.555 0-33.606 6.438-45.921 17.082l0.089-0.076c-6.251 5.623-11.523 12.175-15.637 19.467l-0.199 0.384c-4.236 7.262-6.736 15.985-6.736 25.293 0 2.486 0.178 4.931 0.523 7.322l-0.032-0.273c-0.242 1.997-0.38 4.309-0.38 6.653 0 9.177 2.115 17.86 5.885 25.588l-0.152-0.346c11.826 23.297 35.607 38.984 63.052 38.984 10.276 0 20.038-2.199 28.842-6.152l-0.446 0.179z" />
<glyph unicode="&#xe976;" horiz-adv-x="997" d="M189.142 0.906c-3.074-2.431-5.028-6.161-5.028-10.347 0-3.198 1.141-6.13 3.038-8.411l-0.017 0.021 2.007-2.007c3.038-3.42 7.448-5.564 12.358-5.564 3.753 0 7.214 1.253 9.987 3.363l-0.040-0.030c3.645 3.016 5.95 7.54 5.95 12.602 0 9.014-7.307 16.321-16.321 16.321-3.952 0-7.575-1.404-10.399-3.741l0.027 0.022z" />
<glyph unicode="&#xe977;" glyph-name="icon-file-rouge" d="M384 875.232h469.192c23.408 0 42.384-18.976 42.384-42.384v0-769.272c0-23.408-18.976-42.384-42.384-42.384v0h-683.656c-23.408 0-42.384 18.976-42.384 42.384v0 0 555.232zM248.795 620.927h135.205v133.086zM469.192 790.464v-211.921c0-23.408-18.976-42.384-42.384-42.384v0h-214.887v-429.351h598.464v683.656z" />
<glyph unicode="&#xe978;" horiz-adv-x="980" d="M808.928 957.491c-25.749-8.295-44.052-32.043-44.052-60.066 0-1.163 0.032-2.319 0.094-3.467l-0.007 0.16c0.298-34.408 28.26-62.186 62.711-62.186 0.14 0 0.28 0 0.42 0.001h5.655c16.787 0.538 31.675 8.234 41.785 20.119l0.067 0.081c10.482 10.123 16.99 24.302 16.99 40.001 0 1.116-0.033 2.224-0.098 3.324l0.007-0.152c0.035 0.776 0.055 1.686 0.055 2.601 0 24.41-14.277 45.486-34.936 55.332l-0.37 0.159c-8.682 4.197-18.881 6.649-29.653 6.649-6.646 0-13.073-0.933-19.159-2.676l0.49 0.12zM841.671 938.216c14.059-5.394 24.849-16.573 29.602-30.544l0.104-0.351c0.921-3.308 1.45-7.106 1.45-11.027 0-14.966-7.71-28.132-19.374-35.742l-0.164-0.1c-6.905-4.78-15.459-7.636-24.68-7.636-14.504 0-27.357 7.066-35.306 17.942l-0.086 0.124c-5.131 7.27-8.202 16.314-8.202 26.075 0 7.075 1.613 13.773 4.491 19.747l-0.118-0.273c7.277 14.61 22.108 24.472 39.243 24.472 4.85 0 9.516-0.79 13.876-2.249l-0.308 0.089z" />
<glyph unicode="&#xe979;" horiz-adv-x="980" d="M496.421 934.651c-3.079-2.855-5-6.921-5-11.437 0-2.012 0.381-3.935 1.076-5.701l-0.037 0.106c2.254-5.557 7.609-9.406 13.863-9.406 8.24 0 14.919 6.679 14.919 14.919 0 0.011 0 0.022 0 0.033v-0.002c0 12.543-16.899 20.596-24.821 11.486z" />
<glyph unicode="&#xe97a;" horiz-adv-x="980" d="M101.001 923.825c-14.439-6.494-24.312-20.753-24.312-37.317 0-0.434 0.007-0.867 0.020-1.297l-0.002 0.063c-0.001-0.079-0.001-0.172-0.001-0.265 0-23.314 18.825-42.23 42.103-42.38h0.014c0.064 0 0.141-0.001 0.217-0.001 3.861 0 7.609 0.482 11.187 1.388l-0.314-0.067c17.82 6.094 30.692 22.029 32.204 41.159l0.010 0.165c-1.466 13.822-8.32 25.809-18.391 33.99l-0.093 0.073c-5.22 4.652-12.141 7.495-19.726 7.495-0.864 0-1.719-0.037-2.564-0.109l0.11 0.008c-1.459 0.19-3.146 0.299-4.859 0.299-5.64 0-11.004-1.179-15.86-3.303l0.255 0.099zM133.611 900.984c4.468-3.058 7.362-8.131 7.362-13.881 0-0.645-0.036-1.281-0.107-1.907l0.007 0.077c0.062-0.547 0.098-1.182 0.098-1.825 0-5.79-2.889-10.905-7.304-13.982l-0.056-0.037c-3.864-3.728-9.131-6.026-14.934-6.026-11.885 0-21.52 9.635-21.52 21.52 0 2.244 0.344 4.408 0.981 6.442l-0.041-0.152c2.019 9.577 10.399 16.663 20.434 16.663 1.697 0 3.347-0.203 4.926-0.585l-0.143 0.029c4.068-0.973 7.565-3.012 10.294-5.805l0.004-0.004z" />
<glyph unicode="&#xe97b;" horiz-adv-x="980" d="M243.986 889.63c-2.5-2.585-4.041-6.112-4.041-9.999 0-7.948 6.443-14.391 14.391-14.391 0.586 0 1.165 0.035 1.733 0.103l-0.069-0.007c0.409-0.049 0.883-0.078 1.363-0.078 3.986 0 7.518 1.941 9.704 4.929l0.024 0.034c2.255 2.512 3.635 5.85 3.635 9.51 0 4.249-1.859 8.065-4.808 10.677l-0.015 0.013c-2.485 2.295-5.82 3.703-9.483 3.703-0.147 0-0.294-0.002-0.44-0.007l0.021 0.001c-0.159 0.005-0.347 0.008-0.535 0.008-4.437 0-8.475-1.71-11.49-4.507l0.011 0.010z" />
<glyph unicode="&#xe97c;" horiz-adv-x="980" d="M686.539 871.938c-5.493-2.367-9.269-7.734-9.269-13.984 0-2.15 0.447-4.196 1.253-6.050l-0.038 0.098c0.761-1.726 1.736-3.209 2.916-4.502l-0.012 0.013c2.883-2.847 6.847-4.606 11.222-4.606s8.339 1.759 11.224 4.607l-0.002-0.002c2.281 2.412 3.815 5.552 4.218 9.036l0.007 0.074c-0.493 8.644-7.623 15.468-16.346 15.468-0.287 0-0.573-0.007-0.857-0.022l0.040 0.002c-0.536 0.077-1.155 0.121-1.784 0.121-0.91 0-1.799-0.092-2.658-0.268l0.085 0.015z" />
<glyph unicode="&#xe97d;" horiz-adv-x="980" d="M48.85 805.661c-13.004-4.173-24.019-11.48-32.547-21.052l-0.064-0.073c-17.296-19.804-16.239 3.961-16.239-336.272s-1.056-316.864 16.239-336.272c5.79-6.168 12.443-11.432 19.786-15.625l0.414-0.218 11.222-6.073h367.035v-66.013h-60.204c-58.092 0-60.996-0.924-69.974-5.809-13.345-7.347-22.236-21.318-22.236-37.366 0-17.085 10.078-31.816 24.614-38.573l0.262-0.109c8.45-3.961 19.408-4.225 202.925-4.225s194.608 0 202.925 4.225c14.884 6.793 25.042 21.546 25.042 38.672 0 16.091-8.968 30.088-22.179 37.265l-0.223 0.111c-8.846 4.885-11.75 5.149-69.578 5.809h-60.6v64.693h367.035l11.354 5.941c7.688 4.873 14.262 10.648 19.829 17.296l0.107 0.132c17.296 19.804 16.239-3.565 16.239 336.008 0 262.601 0 304.718-3.433 314.488-6.282 16.386-17.877 29.561-32.636 37.704l-0.371 0.188-11.222 5.941h-439.121c-241.213 0.66-441.366 0-444.402-0.792z" />
<glyph unicode="&#xe97e;" horiz-adv-x="980" d="M932.637 783.48c10.885-5.189 19.362-13.965 24.039-24.77l0.122-0.316c3.169-7.394 3.565-42.381 3.565-310.131s0-302.737-3.565-309.999c-4.755-11.147-13.246-19.938-23.868-24.96l-0.293-0.125c-8.582-3.961-25.085-4.225-442.422-4.225s-433.84 0-442.422 4.225c-10.953 5.144-19.485 13.932-24.172 24.771l-0.121 0.314c-3.037 7.261-3.433 42.381-3.433 309.999s0 302.737 3.433 310.131c4.851 11.126 13.369 19.9 23.997 24.958l0.296 0.127c8.582 3.961 25.085 4.225 442.422 4.225s433.972-0.264 442.422-4.225z" />
<glyph unicode="&#xe97f;" horiz-adv-x="980" d="M545.667 55.748v-33.007h-110.903v66.013h110.903z" />
<glyph unicode="&#xe980;" horiz-adv-x="980" d="M681.522 0.165c9.415-2.597 16.216-11.086 16.216-21.162 0-1.862-0.232-3.669-0.669-5.395l0.032 0.151c-1.128-4.132-3.291-7.663-6.196-10.421l-0.010-0.009-5.545-5.677h-390.403l-5.545 5.677c-4.176 4.1-6.764 9.805-6.764 16.114 0 9.733 6.159 18.028 14.793 21.199l0.157 0.050c10.562 2.376 373.108 2.376 383.934-0.528z" />
<glyph unicode="&#xe981;" horiz-adv-x="980" d="M68.786 738.855c-4.489-4.489-4.489-7.261-4.489-258.112 0-227.746 0-254.152 3.565-257.32s44.361-3.565 422.486-3.565 419.053 0 422.486 3.565 3.565 29.574 3.565 257.32c0 250.851 0 253.756-4.489 258.112s-7.261 4.489-421.298 4.489-417.337 0-421.826-4.489z" />
<glyph unicode="&#xe982;" horiz-adv-x="980" d="M895.538 606.432v-114.863h-78.424c-6.43 0.272-13.974 0.426-21.554 0.426-21.199 0-42.115-1.21-62.683-3.565l2.513 0.234c-1.821-1.875-2.943-4.437-2.943-7.261s1.122-5.386 2.945-7.264l-0.002 0.003 0.792-0.792c17.764-1.579 38.43-2.479 59.305-2.479 8.023 0 16.015 0.133 23.973 0.397l-1.158-0.030h77.896v-22.181h-77.632c-6.212 0.187-13.519 0.294-20.852 0.294-21.566 0-42.917-0.922-64.016-2.727l2.747 0.189c-2.531-2.122-4.129-5.285-4.129-8.821 0-2.26 0.653-4.368 1.78-6.145l-0.028 0.047c1.32-2.112 21.124-2.773 81.593-3.301h79.216v-23.237h-79.216c-59.016 0-80.272-0.66-82.253-2.641-1.663-2.012-2.671-4.618-2.671-7.46s1.009-5.447 2.687-7.479l-0.016 0.020c17.768-2.059 38.355-3.233 59.217-3.233 7.869 0 15.699 0.167 23.487 0.498l-1.112-0.038 79.216-0.66v-22.181h-79.216c-6.219 0.247-13.52 0.387-20.854 0.387-21.397 0-42.515-1.196-63.291-3.524l2.552 0.232c-1.859-1.883-3.007-4.471-3.007-7.327s1.148-5.445 3.009-7.329l-0.001 0.001h0.792c25.294-3.194 54.563-5.017 84.258-5.017 0.037 0 0.075 0 0.112 0h77.891v-22.181h-76.708c-5.937 0.163-12.925 0.257-19.934 0.257-21.888 0-43.564-0.908-64.992-2.689l2.805 0.188c-3.625-1.35-6.161-4.782-6.161-8.806 0-1.201 0.226-2.349 0.637-3.404l-0.022 0.064c0.955-2.587 2.959-4.59 5.481-5.524l0.064-0.021c18.623-1.593 40.298-2.501 62.186-2.501 7.010 0 13.998 0.093 20.963 0.278l-1.028-0.022h76.576v-53.603h-810.909v53.603h76.576c5.928-0.164 12.905-0.257 19.903-0.257 21.853 0 43.494 0.908 64.887 2.689l-2.801-0.188c4.489 1.584 5.809 3.565 5.809 8.846s-1.32 7.261-5.809 8.846c-18.593 1.593-40.233 2.501-62.086 2.501-6.999 0-13.976-0.093-20.93-0.278l1.027 0.022h-77.632v22.181h77.896c6.447-0.21 14.028-0.33 21.636-0.33 21.245 0 42.272 0.935 63.041 2.766l-2.689-0.191c2.497 1.925 4.089 4.917 4.089 8.281 0 2.295-0.741 4.417-1.997 6.139l0.021-0.030-0.792 0.924c-18.216 2.097-39.326 3.293-60.715 3.293-7.342 0-14.651-0.141-21.925-0.42l1.048 0.032h-78.556v22.841h78.424c6.43-0.272 13.974-0.426 21.554-0.426 21.199 0 42.115 1.21 62.683 3.565l-2.513-0.234c1.653 1.992 2.656 4.576 2.656 7.394s-1.003 5.401-2.672 7.413l0.015-0.019c-1.98 1.98-23.237 2.641-82.253 2.641h-79.216v23.369h79.216c60.468 0 80.272 1.056 81.593 3.301 1.091 1.713 1.739 3.8 1.739 6.039 0 3.511-1.594 6.65-4.097 8.733l-0.018 0.015c-17.879 1.665-38.665 2.614-59.672 2.614-7.894 0-15.758-0.134-23.587-0.4l1.138 0.031h-76.179v23.501h77.896c6.458-0.211 14.051-0.33 21.672-0.33 21.279 0 42.34 0.935 63.144 2.766l-2.695-0.191c2.476 1.9 4.056 4.861 4.056 8.191 0 2.339-0.78 4.497-2.094 6.226l0.019-0.025v0.924c-18.246 2.097-39.391 3.293-60.815 3.293-7.353 0-14.674-0.141-21.959-0.42l1.049 0.032h-78.424v229.595h809.985z" />
<glyph unicode="&#xe983;" horiz-adv-x="980" d="M633.729 639.043c-9.214-6.721-17.297-14.008-24.568-22.044l-0.121-0.136-17.56-17.428-10.166 7.922c-25.385 18.36-57.138 29.366-91.462 29.366-26.711 0-51.865-6.666-73.889-18.424l0.845 0.412c-17.995-10.334-33.278-23.135-46.003-38.17l-0.206-0.25c-21.654-26.333-34.783-60.389-34.783-97.512 0-13.002 1.611-25.629 4.643-37.69l-0.226 1.063c14.91-54.99 57.283-97.45 111.111-112.227l1.112-0.26c11.331-2.455 24.348-3.862 37.694-3.862s26.362 1.406 38.911 4.079l-1.217-0.217c54.576 14.698 96.659 56.913 110.92 110.475l0.246 1.088c2.567 11.794 4.038 25.342 4.038 39.234 0 10.525-0.844 20.854-2.469 30.921l0.147-1.105-2.244 10.166 26.405 27.198c28.914 29.574 32.875 36.439 31.158 54.659-2.806 21.154-20.729 37.306-42.425 37.306-1.892 0-3.756-0.123-5.584-0.361l0.215 0.023c-5.382-0.535-10.305-2.037-14.751-4.332l0.228 0.107z" />
<glyph unicode="&#xe984;" horiz-adv-x="980" d="M668.716 618.183c4.525-4.271 7.341-10.31 7.341-17.006 0-2.073-0.27-4.083-0.777-5.997l0.037 0.163c-0.924-4.225-30.366-35.251-86.742-91.627l-85.157-84.893-31.95 31.95c-12.435 11.753-23.849 24.255-34.297 37.551l-0.558 0.737c-1.176 2.592-1.861 5.621-1.861 8.811 0 8.884 5.318 16.526 12.945 19.916l0.139 0.055c2.55 1.178 5.534 1.865 8.678 1.865 0.291 0 0.581-0.006 0.87-0.018l-0.041 0.001c7.922 0 10.562-1.584 24.821-15.447 10.826-10.43 17.692-15.579 21.52-15.579s21.652 16.371 72.879 67.598c67.598 67.466 67.862 67.73 77.236 67.73 0.423 0.035 0.917 0.054 1.414 0.054 5.324 0 10.122-2.251 13.495-5.853l0.010-0.010z" />
<glyph unicode="&#xe985;" horiz-adv-x="980" d="M530.088 610.657c15.476-5.168 28.911-12.249 40.927-21.139l-0.394 0.279 6.205-5.017-36.571-36.439-36.571-37.1-12.146 11.486c-8.026 9.737-20.089 15.898-33.591 15.898-22.568 0-41.115-17.21-43.235-39.222l-0.014-0.176v-2.641c0-16.371 5.281-23.897 45.021-63.637 29.31-29.706 39.608-38.42 43.701-38.42s17.56 12.014 60.732 55.319c18.002 19.005 36.691 36.732 56.29 53.424l1.010 0.839c3.697-2.244 1.716-39.608-2.905-56.243-16-57.236-67.689-98.52-129.022-98.52-12.435 0-24.473 1.697-35.896 4.872l0.94-0.223c-47.089 14.455-83.013 51.865-95.112 98.843l-0.212 0.969c-1.239 7.832-1.946 16.863-1.946 26.060 0 16.76 2.35 32.97 6.738 48.321l-0.303-1.238c16.404 42.347 51.418 74.278 94.729 86.115l0.991 0.231c8.776 1.627 18.874 2.558 29.189 2.558 14.724 0 29.006-1.896 42.613-5.458l-1.168 0.26z" />
<glyph unicode="&#xe986;" horiz-adv-x="980" d="M475.297 178.929c-3.46-3.238-5.617-7.832-5.617-12.93 0-0.561 0.026-1.115 0.077-1.663l-0.005 0.070c0-11.083 8.985-20.068 20.068-20.068s20.068 8.985 20.068 20.068c0 11.083-8.985 20.068-20.068 20.068v0 0c-0.477 0.046-1.032 0.072-1.593 0.072-5.098 0-9.693-2.156-12.921-5.607l-0.009-0.010z" />
<glyph unicode="&#xe987;" horiz-adv-x="980" d="M88.986 61.558c-19.874-7.882-33.671-26.94-33.671-49.22 0-0.241 0.002-0.482 0.005-0.722v0.036c-0.038-0.729-0.060-1.583-0.060-2.442 0-20.402 12.275-37.937 29.842-45.623l0.32-0.125c6.589-3.105 14.311-4.917 22.457-4.917 21.549 0 40.135 12.684 48.699 30.993l0.139 0.33c1.97 4.205 3.49 9.088 4.314 14.203l0.043 0.32c0.146 1.529 0.229 3.306 0.229 5.102 0 22.198-12.682 41.435-31.195 50.86l-0.324 0.15c-6.526 2.48-14.073 3.916-21.955 3.916-6.726 0-13.208-1.046-19.292-2.983l0.45 0.124zM124.501 39.773c9.912-5.753 16.472-16.317 16.472-28.414 0-18.083-14.659-32.743-32.743-32.743s-32.743 14.659-32.743 32.743c0 17.165 13.208 31.245 30.016 32.631l0.118 0.008c0.789 0.067 1.707 0.105 2.635 0.105 6.023 0 11.67-1.607 16.538-4.415l-0.16 0.085z" />
<glyph unicode="&#xe988;" horiz-adv-x="980" d="M221.805 58.653c-1.654-2.354-2.643-5.28-2.643-8.437 0-8.167 6.62-14.787 14.787-14.787s14.787 6.62 14.787 14.787c0 5.003-2.485 9.426-6.288 12.102l-0.047 0.031c-2.358 1.69-5.266 2.756-8.414 2.903l-0.035 0.001c-0.21 0.012-0.455 0.019-0.702 0.019-4.869 0-9.122-2.635-11.411-6.557l-0.034-0.063z" />
<glyph unicode="&#xe989;" horiz-adv-x="980" d="M757.834 60.633c-2.364-2.802-3.8-6.453-3.8-10.44 0-5.034 2.29-9.533 5.886-12.511l0.027-0.022c1.479-1.277 3.242-2.272 5.177-2.877l0.104-0.028c0.686-0.094 1.48-0.148 2.285-0.148 5.504 0 10.421 2.513 13.666 6.455l0.024 0.030c1 2.33 1.582 5.042 1.582 7.889 0 4.472-1.434 8.608-3.868 11.975l0.041-0.060c-2.837 2.23-6.46 3.577-10.397 3.577-4.086 0-7.834-1.45-10.756-3.864l0.029 0.023z" />
<glyph unicode="&#xe98a;" horiz-adv-x="980" d="M934.222-3.664c-3.576-2.829-5.85-7.169-5.85-12.040 0-8.147 6.362-14.809 14.389-15.288l0.042-0.002c0.085-0.002 0.185-0.003 0.285-0.003 7.962 0 14.467 6.237 14.896 14.091l0.002 0.038c0.004 0.127 0.006 0.277 0.006 0.427 0 4.699-2.212 8.882-5.651 11.563l-0.033 0.025c-7.261 6.337-12.146 6.337-18.088 1.188z" />
<glyph unicode="&#xe98b;" horiz-adv-x="972" d="M459.368 955.318c-15.158-10.105-30.316-35.368-40.421-70.737-3.368-11.789-6.737-21.895-6.737-21.895s-11.789 5.053-25.263 13.474c-18.526 11.789-40.421 18.526-62.316 20.211-25.263 0-35.368-11.789-33.684-40.421 3.368-23.579 11.789-47.158 23.579-67.368 3.368-5.053 6.737-10.105 8.421-15.158 0 0-10.105-3.368-21.895-6.737-60.632-16.842-85.895-42.105-72.421-70.737 6.737-15.158 35.368-30.316 72.421-42.105 6.737-1.684 13.474-3.368 20.211-6.737-1.684-5.053-5.053-11.789-8.421-15.158-6.737-10.105-11.789-20.211-15.158-32-5.053-11.789-8.421-23.579-6.737-37.053 0-20.211 0-20.211 6.737-26.947 3.368-3.368 8.421-6.737 13.474-10.105 16.842-5.053 50.526 3.368 84.211 23.579l16.842 10.105 5.053-18.526c5.053-21.895 13.474-42.105 25.263-60.632 8.421-10.105 18.526-16.842 32-20.211 13.474 0 26.947 11.789 38.737 32 8.421 18.526 15.158 38.737 21.895 58.947l1.684 10.105 8.421-5.053c16.842-10.105 35.368-18.526 53.895-25.263 45.474-13.474 69.053 6.737 57.263 50.526-6.737 20.211-15.158 40.421-26.947 58.947l-6.737 10.105 10.105 1.684c38.737 10.105 65.684 21.895 79.158 37.053 26.947 30.316 0 62.316-70.737 80.842l-18.526 5.053 10.105 16.842c30.316 53.895 33.684 85.895 10.105 101.053-16.842 11.789-50.526 3.368-89.263-18.526-5.053-3.368-11.789-6.737-18.526-8.421-3.368 6.737-5.053 13.474-6.737 20.211-5.053 20.211-15.158 40.421-26.947 58.947-6.737 13.474-25.263 18.526-42.105 10.105z" />
<glyph unicode="&#xe98c;" horiz-adv-x="972" d="M484.935 934.804c13.474-16.842 23.579-37.053 28.632-58.947 1.684-8.421 3.368-16.842 5.053-23.579-11.789-15.158-28.632-26.947-45.474-33.684-1.684 1.684-11.789 8.421-21.895 16.842-21.895 16.842-20.211 13.474-10.105 47.158 5.053 18.526 13.474 37.053 25.263 52.211 6.737 6.737 10.105 6.737 18.526 0z" />
<glyph unicode="&#xe98d;" horiz-adv-x="972" d="M356.935 867.436c21.895-10.105 50.526-26.947 50.526-30.316 0-5.053-5.053-42.105-5.053-48.842-1.684-5.053-3.368-5.053-10.105-6.737-8.421 0-18.526-1.684-26.947-3.368l-18.526-1.684-6.737 11.789c-15.158 21.895-25.263 45.474-30.316 72.421 0 16.842 16.842 20.211 47.158 6.737z" />
<glyph unicode="&#xe98e;" horiz-adv-x="972" d="M636.514 872.488c10.105-8.421 5.053-33.684-20.211-75.789-11.789-20.211-8.421-20.211-43.789-15.158l-21.895 3.368-1.684 18.526c-1.684 10.105-3.368 23.579-3.368 26.947l-3.368 8.421 21.895 11.789c33.684 20.211 64 30.316 72.421 21.895z" />
<glyph unicode="&#xe98f;" horiz-adv-x="972" d="M451.251 806.804c3.368-1.684 5.053-5.053 6.737-6.737 0-3.368-15.158-13.474-25.263-13.474l-10.105-1.684 1.684 13.474c1.684 6.737 1.684 16.842 3.368 20.211l1.684 6.737 8.421-6.737c3.368-3.368 10.105-8.421 13.474-11.789z" />
<glyph unicode="&#xe990;" horiz-adv-x="972" d="M527.040 803.436l1.684-18.526-10.105 1.684c-10.105 1.684-23.579 10.105-23.579 15.158 8.421 8.421 18.526 16.842 28.632 21.895 1.684-6.737 3.368-13.474 3.368-20.211z" />
<glyph unicode="&#xe991;" horiz-adv-x="972" d="M515.251 749.541l15.158-15.158v-47.158l-30.316-33.684h-47.158l-33.684 33.684v45.474l15.158 15.158c15.158 15.158 15.158 15.158 26.947 16.842 8.421 0 16.842 0 25.263 0 11.789 0 13.474 0 28.632-15.158z" />
<glyph unicode="&#xe992;" horiz-adv-x="972" d="M399.040 752.909c-1.684-10.105-10.105-25.263-13.474-25.263-10.105 8.421-16.842 18.526-23.579 30.316 3.368 1.684 26.947 5.053 33.684 5.053 5.053 0 5.053-1.684 3.368-10.105z" />
<glyph unicode="&#xe993;" horiz-adv-x="972" d="M580.935 759.646c5.053 0 8.421-1.684 8.421-1.684-5.053-10.105-11.789-18.526-20.211-25.263-3.368-3.368-5.053-3.368-11.789 3.368-5.053 5.053-6.737 11.789-6.737 18.526v10.105l10.105-1.684c6.737-1.684 16.842-3.368 20.211-3.368z" />
<glyph unicode="&#xe994;" horiz-adv-x="972" d="M351.882 734.383c8.421-10.105 15.158-20.211 16.842-21.895 3.368-3.368-30.316-45.474-35.368-45.474-21.895 5.053-42.105 11.789-62.316 20.211-13.474 6.737-25.263 16.842-25.263 23.579s16.842 18.526 32 25.263c11.789 5.053 23.579 8.421 37.053 11.789 11.789 3.368 20.211 5.053 20.211 5.053s8.421-8.421 16.842-18.526z" />
<glyph unicode="&#xe995;" horiz-adv-x="972" d="M643.251 746.173c20.211-5.053 38.737-13.474 55.579-25.263 11.789-11.789 5.053-23.579-21.895-35.368-21.895-10.105-65.684-21.895-65.684-15.158-5.053 6.737-10.105 15.158-15.158 21.895l-15.158 20.211 11.789 15.158c6.737 8.421 13.474 18.526 16.842 21.895 5.053 5.053 3.368 5.053 33.684-3.368z" />
<glyph unicode="&#xe996;" horiz-adv-x="972" d="M392.303 685.541c3.368-5.053 6.737-10.105 6.737-16.842 0-5.053 0-10.105-1.684-10.105-11.789 0-25.263 1.684-37.053 3.368 6.737 10.105 15.158 20.211 23.579 30.316 5.053-1.684 6.737-3.368 8.421-6.737z" />
<glyph unicode="&#xe997;" horiz-adv-x="972" d="M577.566 680.488c15.158-18.526 15.158-18.526-6.737-20.211l-18.526-1.684v10.105c-1.684 6.737 1.684 13.474 5.053 16.842 1.684 3.368 5.053 5.053 8.421 6.737 1.684 0 6.737-5.053 11.789-11.789z" />
<glyph unicode="&#xe998;" horiz-adv-x="972" d="M378.829 638.383c26.947-3.368 23.579 0 26.947-35.368 3.368-26.947 6.737-23.579-32-42.105-28.632-13.474-45.474-18.526-55.579-15.158-15.158 5.053-8.421 35.368 16.842 77.474 10.105 15.158 11.789 18.526 15.158 18.526s15.158-1.684 28.632-3.368z" />
<glyph unicode="&#xe999;" horiz-adv-x="972" d="M616.303 624.909c20.211-33.684 30.316-67.368 21.895-75.789s-37.053-1.684-69.053 16.842c-26.947 15.158-25.263 15.158-23.579 30.316 1.684 6.737 3.368 18.526 3.368 26.947l1.684 13.474 25.263 3.368c8.421 1.684 18.526 3.368 28.632 3.368 3.368-6.737 8.421-11.789 11.789-18.526z" />
<glyph unicode="&#xe99a;" horiz-adv-x="972" d="M451.251 626.594c5.053-5.053 6.737-8.421 5.053-10.105s-8.421-6.737-15.158-11.789l-13.474-10.105-1.684 10.105c-1.684 5.053-1.684 15.158-3.368 20.211l-1.684 10.105h10.105c8.421 0 16.842-3.368 20.211-8.421z" />
<glyph unicode="&#xe99b;" horiz-adv-x="972" d="M527.040 628.278c0-11.789-1.684-21.895-5.053-32-5.053 3.368-11.789 6.737-16.842 11.789l-13.474 11.789 8.421 6.737c5.053 5.053 11.789 6.737 18.526 6.737 8.421 1.684 8.421 0 8.421-5.053z" />
<glyph unicode="&#xe99c;" horiz-adv-x="972" d="M500.093 586.173l20.211-15.158-1.684-8.421c-5.053-23.579-13.474-45.474-23.579-65.684-11.789-18.526-20.211-18.526-32-5.053-13.474 18.526-21.895 40.421-25.263 62.316l-5.053 18.526 6.737 5.053c3.368 1.684 13.474 10.105 21.895 16.842s16.842 11.789 18.526 10.105c-1.684-3.368 8.421-10.105 20.211-18.526z" />
<glyph unicode="&#xe99d;" horiz-adv-x="972" d="M698.526 909.844c-5.053-6.737-5.053-16.842 1.684-21.895s16.842-5.053 21.895 1.684c5.053 3.368 6.737 11.789 3.368 16.842 0 0 0 0 0 0-3.368 6.737-6.737 8.421-15.158 8.421-5.053 1.684-10.105-1.684-11.789-5.053z" />
<glyph unicode="&#xe99e;" horiz-adv-x="972" d="M840 911.528c-18.526-8.421-33.684-23.579-42.105-42.105-3.368-10.105-5.053-20.211-3.368-30.316 0-28.632 18.526-55.579 45.474-65.684 20.211-6.737 42.105-6.737 60.632 0 16.842 8.421 28.632 20.211 37.053 37.053 5.053 10.105 6.737 21.895 5.053 32 1.684 11.789-1.684 21.895-6.737 32-8.421 15.158-20.211 26.947-35.368 35.368-18.526 6.737-40.421 8.421-60.632 1.684z" />
<glyph unicode="&#xe99f;" horiz-adv-x="972" d="M892.211 889.634c26.947-13.474 38.737-47.158 25.263-74.105-5.053-11.789-15.158-20.211-25.263-25.263-15.158-6.737-32-6.737-47.158 0-26.947 13.474-38.737 45.474-26.947 72.421 5.053 11.789 13.474 20.211 25.263 25.263 15.158 10.105 33.684 10.105 48.842 1.684z" />
<glyph unicode="&#xe9a0;" horiz-adv-x="972" d="M201.684 893.002c-8.421-3.368-10.105-13.474-6.737-21.895 1.684-3.368 5.053-6.737 10.105-8.421 15.158-5.053 26.947 16.842 13.474 26.947-6.737 6.737-10.105 6.737-16.842 3.368z" />
<glyph unicode="&#xe9a1;" horiz-adv-x="972" d="M56.842 726.265c-6.737-5.053-6.737-15.158-1.684-20.211 3.368-3.368 6.737-5.053 11.789-5.053 8.421 0 15.158 6.737 15.158 13.474 0 5.053-1.684 10.105-5.053 13.474-5.053 5.053-11.789 5.053-18.526 1.684-1.684-1.684-1.684-3.368-1.684-3.368z" />
<glyph unicode="&#xe9a2;" horiz-adv-x="972" d="M865.263 630.265c-3.368-3.368-6.737-8.421-6.737-15.158 0-5.053 10.105-15.158 16.842-15.158 8.421 0 15.158 6.737 15.158 16.842 0 3.368-1.684 6.737-3.368 10.105-6.737 5.053-15.158 6.737-21.895 3.368z" />
<glyph unicode="&#xe9a3;" horiz-adv-x="972" d="M61.895 608.371c-32-8.421-50.526-42.105-40.421-72.421 5.053-15.158 15.158-28.632 30.316-37.053 28.632-15.158 64-3.368 79.158 25.263 6.737 13.474 8.421 30.316 3.368 43.789-10.105 32-42.105 48.842-72.421 40.421z" />
<glyph unicode="&#xe9a4;" horiz-adv-x="972" d="M92.211 586.476c20.211-8.421 28.632-30.316 20.211-50.526 0-1.684-1.684-3.368-1.684-3.368-10.105-18.526-33.684-25.263-52.211-15.158-6.737 3.368-13.474 10.105-16.842 16.842-3.368 11.789-3.368 23.579 0 35.368 10.105 16.842 32 25.263 50.526 16.842z" />
<glyph unicode="&#xe9a5;" horiz-adv-x="972" d="M754.105 485.423c-3.368-3.368-3.368-6.737-5.053-10.105 0-6.737 8.421-16.842 15.158-16.842 5.053 0 11.789 3.368 15.158 6.737 3.368 6.737 1.684 13.474-1.684 20.211-8.421 5.053-16.842 5.053-23.579 0z" />
<glyph unicode="&#xe9a6;" horiz-adv-x="972" d="M225.263 480.371c-8.421-1.684-13.474-11.789-10.105-20.211 1.684-3.368 3.368-5.053 5.053-8.421 3.368-1.684 6.737-3.368 10.105-5.053 8.421 1.684 15.158 6.737 15.158 15.158s-8.421 16.842-16.842 16.842c0 1.684-1.684 1.684-3.368 1.684z" />
<glyph unicode="&#xe9a7;" horiz-adv-x="972" d="M459.368 433.213c-21.895-5.053-42.105-16.842-58.947-32s-28.632-35.368-33.684-57.263c-10.105-43.789 3.368-87.579 35.368-117.895l13.474-11.789-10.105-1.684c-28.632-5.053-55.579-16.842-75.789-37.053-13.474-13.474-25.263-28.632-35.368-47.158l-5.053-10.105-5.053 10.105c-16.842 28.632-40.421 50.526-70.737 62.316l-11.789 5.053 11.789 11.789c35.368 33.684 37.053 90.947 1.684 126.316-6.737 8.421-16.842 13.474-26.947 18.526-11.789 6.737-25.263 8.421-38.737 6.737-13.474 1.684-25.263 0-37.053-6.737-30.316-15.158-50.526-47.158-52.211-80.842 0-25.263 11.789-50.526 30.316-67.368 6.737-5.053 8.421-8.421 5.053-8.421-1.684 0-10.105-5.053-20.211-10.105-32-16.842-57.263-47.158-69.053-80.842-3.368-13.474-5.053-20.211-5.053-65.684 0-43.789 0-52.211 1.684-53.895s35.368-3.368 139.789-3.368h136.421v-18.526c0-13.474 1.684-20.211 3.368-21.895 3.368-3.368 25.263-3.368 203.789-3.368 158.316 0 200.421 0 202.105 3.368 1.684 6.737 3.368 13.474 3.368 21.895l1.684 18.526h136.421c99.368 0 136.421 1.684 139.789 3.368 5.053 3.368 3.368 85.895 0 107.789-8.421 40.421-35.368 74.105-72.421 94.316-10.105 5.053-18.526 8.421-20.211 10.105s1.684 5.053 8.421 11.789c13.474 13.474 21.895 32 25.263 50.526 5.053 38.737-15.158 77.474-50.526 96-11.789 6.737-25.263 8.421-37.053 6.737-13.474 1.684-26.947 0-38.737-6.737-26.947-11.789-45.474-37.053-50.526-65.684s5.053-58.947 26.947-79.158l11.789-11.789-11.789-5.053c-8.421-3.368-15.158-6.737-23.579-11.789-18.526-13.474-33.684-30.316-45.474-48.842l-6.737-11.789-3.368 8.421c-20.211 42.105-58.947 74.105-106.105 84.211l-18.526 3.368 8.421 6.737c6.737 5.053 11.789 11.789 16.842 18.526 38.737 48.842 35.368 117.895-10.105 161.684-30.316 25.263-72.421 38.737-112.842 28.632z" />
<glyph unicode="&#xe9a8;" horiz-adv-x="972" d="M501.474 414.686c55.579-8.421 92.632-60.632 84.211-116.211-3.368-21.895-13.474-42.105-30.316-57.263-15.158-15.158-33.684-23.579-53.895-26.947-55.579-8.421-107.789 28.632-116.211 84.211-8.421 57.263 32 107.789 87.579 116.211 3.368 0 6.737 0 10.105 1.684 1.684 0 10.105 0 18.526-1.684z" />
<glyph unicode="&#xe9a9;" horiz-adv-x="972" d="M179.789 332.16c23.579-10.105 38.737-33.684 38.737-58.947 1.684-18.526-5.053-37.053-16.842-50.526-13.474-15.158-32-23.579-52.211-21.895-10.105-1.684-20.211 1.684-28.632 6.737-15.158 6.737-26.947 20.211-33.684 35.368-15.158 35.368 1.684 77.474 37.053 92.632 0 0 1.684 0 1.684 1.684 16.842 3.368 37.053 3.368 53.895-5.053z" />
<glyph unicode="&#xe9aa;" horiz-adv-x="972" d="M845.053 335.528c16.842-6.737 30.316-18.526 38.737-35.368 16.842-33.684 3.368-74.105-30.316-92.632 0 0-1.684 0-1.684-1.684-18.526-8.421-40.421-8.421-58.947-1.684-16.842 8.421-28.632 21.895-37.053 38.737-5.053 15.158-5.053 32 0 47.158 11.789 38.737 52.211 57.263 89.263 45.474 0 0 0 0 0 0z" />
<glyph unicode="&#xe9ab;" horiz-adv-x="972" d="M572.211 189.002c23.579-5.053 43.789-16.842 60.632-35.368 16.842-16.842 28.632-37.053 33.684-58.947 1.684-6.737 3.368-40.421 3.368-74.105l1.684-64h-92.632v28.632c0 28.632-1.684 33.684-8.421 33.684-3.368 0-5.053-1.684-6.737-3.368-3.368-3.368-3.368-6.737-3.368-30.316v-26.947h-146.526v26.947c0 28.632-1.684 35.368-10.105 35.368s-8.421-5.053-8.421-33.684v-28.632h-90.947v64c-1.684 25.263 0 52.211 3.368 77.474 11.789 47.158 48.842 82.526 97.684 94.316 28.632 3.368 55.579 3.368 84.211 3.368 58.947-5.053 67.368-5.053 82.526-8.421z" />
<glyph unicode="&#xe9ac;" horiz-adv-x="972" d="M198.316 173.844c35.368-11.789 64-40.421 75.789-77.474 5.053-18.526 6.737-37.053 5.053-55.579v-40.421h-57.263v25.263c0 18.526-1.684 26.947-3.368 30.316-3.368 5.053-8.421 6.737-15.158 1.684-3.368-3.368-3.368-6.737-3.368-30.316v-26.947h-99.368v26.947c0 28.632-1.684 32-8.421 32-8.421 0-10.105-5.053-10.105-33.684v-26.947h-60.632v33.684c0 58.947 10.105 84.211 42.105 116.211 16.842 13.474 35.368 21.895 55.579 26.947 23.579 5.053 52.211 3.368 79.158-1.684z" />
<glyph unicode="&#xe9ad;" horiz-adv-x="972" d="M856.842 175.528c33.684-8.421 62.316-28.632 79.158-58.947 11.789-23.579 13.474-33.684 15.158-77.474l1.684-40.421h-60.632v26.947c0 26.947-1.684 33.684-10.105 33.684s-8.421-5.053-8.421-32v-26.947h-99.368v25.263c0 26.947-3.368 35.368-11.789 35.368s-11.789-8.421-11.789-35.368v-25.263h-57.263v38.737c0 16.842 0 33.684 3.368 50.526 13.474 45.474 50.526 79.158 96 87.579 20.211 3.368 42.105 1.684 64-1.684z" />
<glyph unicode="&#xe9ae;" horiz-adv-x="1035" d="M426.234 956.102c-2.434-2.976-3.91-6.82-3.91-11.007 0-5.224 2.295-9.911 5.932-13.109l0.019-0.017c1.596-1.278 3.438-2.343 5.428-3.108l0.141-0.048c0.708-0.096 1.525-0.15 2.356-0.15 5.872 0 11.107 2.726 14.509 6.982l0.029 0.037c1.002 2.398 1.585 5.185 1.585 8.108 0 4.688-1.498 9.027-4.042 12.562l0.044-0.064c-3.022 2.219-6.815 3.552-10.92 3.552-4.215 0-8.101-1.404-11.217-3.771l0.046 0.033z" />
<glyph unicode="&#xe9af;" horiz-adv-x="1035" d="M94.492 944.406c-30.832-10.648-53.708-36.796-59.509-68.884l-0.082-0.546c-1.099-4.996-1.729-10.734-1.729-16.619 0-14.34 3.738-27.807 10.292-39.48l-0.21 0.406c15.164-29.586 45.451-49.482 80.386-49.482 36.452 0 67.844 21.662 82.007 52.815l0.23 0.565c4.243 8.272 6.73 18.048 6.73 28.404 0 3.077-0.22 6.103-0.644 9.063l0.040-0.339c0.236 2.167 0.37 4.68 0.37 7.224 0 10.425-2.256 20.324-6.305 29.234l0.181-0.444c-9.464 19.233-24.46 34.527-42.898 44.112l-0.542 0.256c-9.438 5.346-20.729 8.496-32.755 8.496-1.539 0-3.066-0.052-4.579-0.153l0.205 0.011c-1.343 0.084-2.913 0.131-4.494 0.131-9.584 0-18.759-1.75-27.224-4.948l0.53 0.176zM147.4 924.171c26.552-10.465 44.999-35.893 44.999-65.629 0-6.841-0.976-13.453-2.797-19.706l0.124 0.497c-6.583-18.722-19.774-33.721-36.708-42.499l-0.421-0.198c-8.323-3.627-18.019-5.737-28.208-5.737-16.886 0-32.418 5.796-44.716 15.506l0.152-0.116c-15.115 12.653-24.66 31.529-24.66 52.634 0 14.146 4.288 27.29 11.634 38.204l-0.155-0.245c9.282 12.747 21.898 22.553 36.574 28.215l0.555 0.188c5.807 1.336 12.475 2.102 19.322 2.102 8.721 0 17.151-1.242 25.124-3.56l-0.635 0.158z" />
<glyph unicode="&#xe9b0;" horiz-adv-x="1035" d="M817.566 897.067l-74.257-27.661-27.661 3.713c-31.492 4.902-67.815 7.702-104.791 7.702-54.97 0-108.495-6.188-159.916-17.906l4.809 0.922c-104.331-23.391-193.996-74.257-238.921-137.375-10.139-14.442-18.902-30.987-25.489-48.594l-0.501-1.529c-2.413-9.096-3.713-10.025-29.146-21.72-67.017-31.559-119.739-77.97-144.244-126.979-10.775-21.71-17.079-47.278-17.079-74.319 0-13.138 1.488-25.928 4.305-38.211l-0.221 1.144c15.037-58.477 64.418-113.056 138.117-152.783l18.564-9.653-17.45-43.069c-18.564-47.339-20.049-55.693-8.725-55.693 32.907 8.596 60.59 18.113 87.339 29.41l-4.171-1.564 76.299 28.403 24.505-3.898c32.379-5.096 69.719-8.007 107.738-8.007 52.828 0 104.343 5.621 153.98 16.296l-4.79-0.863c45.39 10.869 84.867 24.813 122.361 42.298l-3.922-1.642c75.927 37.128 134.59 93.935 150.741 148.513 2.599 8.911 3.713 9.653 29.703 21.906 39.305 17.872 72.836 41.599 101.119 70.486l0.056 0.058c22.723 20.805 40.293 46.863 50.822 76.271l0.415 1.327c5.595 15.765 8.829 33.947 8.829 52.885 0 26.827-6.488 52.138-17.981 74.45l0.427-0.913c-28.706 49.457-70.094 88.758-119.771 114.152l-1.639 0.761-21.349 11.695 17.265 43.069c6.434 13.876 12.105 30.22 16.156 47.192l0.366 1.817c-2.042 10.21-12.252 8.168-91.893-22.091z" />
<glyph unicode="&#xe9b1;" horiz-adv-x="1035" d="M865.091 858.268c-5.299-11.449-9.894-24.896-13.094-38.874l-0.272-1.411c0-3.527 6.497-7.983 22.091-15.594 69.801-35.643 116.583-82.239 133.291-132.734 3.519-11.121 5.547-23.912 5.547-37.176 0-3.315-0.127-6.601-0.375-9.852l0.027 0.432c0.34-3.046 0.535-6.578 0.535-10.155 0-13.561-2.791-26.47-7.83-38.184l0.241 0.629c-19.492-48.453-65.717-92.821-128.464-125.679l-22.091-10.953-1.299 20.235c-2.396 40.823-17.92 77.617-42.366 106.648l0.226-0.275c-46.596 58.663-135.333 106.93-237.993 129.949-43.585 9.479-93.653 14.908-144.989 14.908-68.672 0-135.075-9.715-197.91-27.846l5.031 1.243c-5.95-2.175-12.915-3.868-20.124-4.777l-0.482-0.050c0.66 3.981 2.025 7.543 3.972 10.71l-0.073-0.128c62.933 123.452 286.445 196.223 497.52 161.694l27.475-4.27 67.202 24.69c17.749 7.667 40.202 15.637 63.207 22.307l4.366 1.084c-4.469-14.813-9.011-26.942-14.211-38.716l0.845 2.144z" />
<glyph unicode="&#xe9b2;" horiz-adv-x="1035" d="M481.926 686.55c216.83-18.564 371.284-132.734 347.336-257.299-13.181-67.759-74.257-126.793-169.305-167.078-70.016-27.44-151.090-43.345-235.878-43.345-37.258 0-73.798 3.071-109.382 8.974l3.864-0.529-27.289 4.455-67.202-25.062c-17.427-7.381-39.944-15.288-62.968-22.007l-4.792-1.198c4.625 15.176 9.229 27.488 14.461 39.463l-0.909-2.335c5.315 11.576 9.971 25.204 13.261 39.356l0.291 1.485c0 3.342-6.497 7.797-22.277 15.594-111.385 56.621-160.58 139.417-132.734 222.77 25.062 74.257 117.697 140.345 241.334 170.79 47.179 11.564 101.342 18.196 157.055 18.196 19.471 0 38.753-0.81 57.814-2.399l-2.495 0.167z" />
<glyph unicode="&#xe9b3;" horiz-adv-x="1035" d="M216.273 511.675c-12.181-6.267-21.955-15.742-28.414-27.318l-0.175-0.342c-3.26-7.183-5.159-15.575-5.159-24.412s1.9-17.229 5.313-24.792l-0.154 0.38c9.342-18.414 28.137-30.814 49.827-30.814 9.551 0 18.541 2.404 26.396 6.641l-0.296-0.146c11.896 6.093 21.123 15.98 26.224 28.038l0.137 0.365c2.293 6.475 3.617 13.943 3.617 21.72s-1.325 15.245-3.761 22.19l0.144-0.47c-7.182 13.881-18.819 24.617-32.985 30.473l-0.43 0.158c-5.192 1.345-11.152 2.118-17.293 2.118-8.229 0-16.135-1.387-23.495-3.941l0.503 0.152zM255.072 489.769c10.124-6.404 16.748-17.54 16.748-30.223 0-6.88-1.95-13.306-5.326-18.753l0.088 0.152c-6.245-9.288-16.714-15.318-28.592-15.318-18.805 0-34.080 15.114-34.34 33.857v0.025c0 0.002 0 0.005 0 0.008 0 19.173 15.542 34.715 34.715 34.715 0.261 0 0.522-0.003 0.781-0.009l-0.039 0.001c0.070 0.001 0.153 0.001 0.235 0.001 6.070 0 11.754-1.655 16.624-4.539l-0.151 0.083z" />
<glyph unicode="&#xe9b4;" horiz-adv-x="1035" d="M395.046 509.262c-18.261-9.083-30.589-27.614-30.589-49.024 0-8.711 2.041-16.945 5.67-24.251l-0.143 0.318c3.271-6.643 7.64-12.257 12.929-16.837l0.066-0.056c9.974-9.521 23.516-15.38 38.426-15.38 30.758 0 55.693 24.934 55.693 55.693s-24.934 55.693-55.693 55.693c-6.654 0-13.035-1.167-18.95-3.307l0.388 0.123c-3.013-0.852-5.601-1.864-8.063-3.090l0.266 0.12zM436.073 490.698c11.211-5.858 18.731-17.403 18.731-30.703 0-5.37-1.226-10.453-3.412-14.985l0.090 0.206c-5.697-11.393-17.276-19.079-30.65-19.079-5.322 0-10.36 1.217-14.851 3.389l0.204-0.089c-6.859 3.401-12.303 8.785-15.688 15.398l-0.091 0.196c-2.972 4.565-4.74 10.152-4.74 16.151s1.767 11.585 4.81 16.267l-0.071-0.116c5.875 10.474 16.908 17.437 29.567 17.437 5.753 0 11.169-1.438 15.911-3.973l-0.181 0.089z" />
<glyph unicode="&#xe9b5;" horiz-adv-x="1035" d="M578.831 510.004c-18.531-9.303-31.026-28.159-31.026-49.932 0-8.851 2.065-17.219 5.739-24.65l-0.146 0.326c4.737-9.603 11.837-17.418 20.559-22.883l0.233-0.136c6.452-4.545 14.476-7.264 23.134-7.264 1.99 0 3.946 0.144 5.859 0.421l-0.218-0.026c0.734-0.037 1.594-0.058 2.458-0.058 28.047 0 50.924 22.134 52.117 49.888l0.004 0.108c0.093 0.697 0.146 1.502 0.146 2.321s-0.053 1.624-0.155 2.414l0.010-0.093c0.279 1.765 0.439 3.8 0.439 5.873 0 8.588-2.738 16.537-7.388 23.020l0.081-0.119c-9.977 15.975-27.463 26.445-47.395 26.445-8.899 0-17.311-2.087-24.772-5.799l0.324 0.146zM618.558 491.44c11.328-5.615 18.98-17.098 18.98-30.369 0-5.363-1.25-10.435-3.474-14.939l0.088 0.198c-0.259-0.638-0.571-1.188-0.943-1.691l0.015 0.021c-5.901-10.732-17.131-17.883-30.032-17.883-18.865 0-34.158 15.293-34.158 34.158s15.293 34.158 34.158 34.158c5.604 0 10.892-1.349 15.559-3.741l-0.193 0.090z" />
<glyph unicode="&#xe9b6;" horiz-adv-x="1035" d="M975.362 876.461c-3.611-2.55-5.941-6.707-5.941-11.408 0-0.036 0-0.072 0-0.107v0.005c-0.014-0.252-0.023-0.548-0.023-0.845 0-8.715 7.065-15.78 15.78-15.78s15.78 7.065 15.78 15.78c0 8.715-7.065 15.78-15.78 15.78-3.725 0-7.149-1.291-9.848-3.449l0.031 0.024z" />
<glyph unicode="&#xe9b7;" horiz-adv-x="1035" d="M61.447 704.557c-2.974-2.725-4.832-6.627-4.832-10.963 0-3.777 1.41-7.224 3.732-9.845l-0.014 0.016 1.299-1.114c2.829-2.866 6.757-4.641 11.1-4.641 8.612 0 15.594 6.982 15.594 15.594s-6.982 15.594-15.594 15.594c-4.343 0-8.271-1.775-11.098-4.639l-0.002-0.002z" />
<glyph unicode="&#xe9b8;" horiz-adv-x="1035" d="M984.644 350.352c-2.342-2.76-3.767-6.364-3.767-10.3 0-4.862 2.173-9.216 5.601-12.144l0.022-0.018c1.857-1.563 4.104-2.725 6.573-3.319l0.11-0.022c10.21-3.713 22.277 8.911 18.564 18.564-2.147 6.688-8.311 11.444-15.587 11.444-4.681 0-8.903-1.969-11.881-5.124l-0.007-0.008z" />
<glyph unicode="&#xe9b9;" horiz-adv-x="1035" d="M881.984 223.373c-22.151-10.775-37.147-33.11-37.147-58.948 0-0.552 0.007-1.103 0.020-1.652l-0.002 0.081c-0.006-0.333-0.009-0.726-0.009-1.12 0-36.382 29.234-65.935 65.492-66.453l0.049-0.001c0.194-0.002 0.422-0.003 0.651-0.003 7.133 0 13.996 1.156 20.411 3.291l-0.456-0.132c20.716 7.357 36.725 23.427 43.844 43.683l0.153 0.499c1.978 6.021 3.118 12.951 3.118 20.146 0 18.185-7.284 34.67-19.093 46.695l0.010-0.010c-11.154 12.007-27.030 19.496-44.656 19.496-0.225 0-0.45-0.001-0.675-0.004h0.034c-2.563 0.512-5.508 0.806-8.523 0.806-8.569 0-16.584-2.37-23.427-6.489l0.205 0.114zM936.377 202.025c11.802-9.192 19.758-22.843 21.33-38.379l0.019-0.235c-1.7-25.784-23.030-46.054-49.095-46.054-0.427 0-0.853 0.005-1.277 0.016l0.063-0.001c-23.832 2.366-42.291 22.31-42.291 46.566 0 1.974 0.122 3.919 0.359 5.828l-0.023-0.228c1.011 9.613 4.915 18.163 10.813 24.93l-0.046-0.054c8.749 9.503 21.25 15.435 35.137 15.435 9.257 0 17.897-2.636 25.213-7.199l-0.201 0.117z" />
<glyph unicode="&#xe9ba;" horiz-adv-x="1035" d="M335.64 145.775c-3.332-2.46-5.468-6.372-5.468-10.783 0-2.92 0.936-5.621 2.525-7.82l-0.027 0.039c0.593-0.777 1.265-1.449 2.016-2.023l0.026-0.019c2.847-3.565 7.194-5.829 12.069-5.829 8.51 0 15.408 6.899 15.408 15.408 0 0.091-0.001 0.183-0.002 0.274v-0.014c-0.031 4.779-2.344 9.012-5.902 11.668l-0.039 0.028c-2.452 2.671-5.96 4.339-9.857 4.339-3.334 0-6.383-1.221-8.724-3.24l0.017 0.015c-0.785-0.583-1.459-1.257-2.024-2.016l-0.018-0.026z" />
<glyph unicode="&#xe9bb;" horiz-adv-x="1035" d="M780.438 122.57c-3.372-2.419-5.542-6.327-5.542-10.742 0-2.944 0.966-5.663 2.597-7.858l-0.025 0.035c0.546-0.879 1.226-1.618 2.021-2.213l0.021-0.015c2.666-3.56 6.793-5.9 11.475-6.125l0.035-0.001c0.058-0.001 0.127-0.001 0.195-0.001 8.519 0 15.462 6.751 15.769 15.196l0.001 0.028c0.002 0.083 0.003 0.181 0.003 0.28 0 4.926-2.312 9.312-5.91 12.133l-0.034 0.025c-2.429 2.775-5.978 4.518-9.934 4.518-3.308 0-6.332-1.219-8.646-3.232l0.016 0.014z" />
<glyph unicode="&#xe9bc;" horiz-adv-x="1035" d="M12.252 42.93c-0.78-1.409-1.24-3.089-1.24-4.876 0-3.773 2.046-7.067 5.089-8.835l0.049-0.026h1.114c5.755-3.156 619.487-3.156 625.613 0 2.548 2.058 4.163 5.183 4.163 8.684 0 2.457-0.796 4.728-2.143 6.57l0.022-0.031c-2.042 2.042-75.556 2.785-315.591 2.785-308.165 0-314.663 0-317.076-4.27z" />
<glyph unicode="&#xe9bd;" horiz-adv-x="1035" d="M528.522 0.603c-2.497-1.954-4.086-4.968-4.086-8.354 0-2.46 0.839-4.724 2.247-6.521l-0.017 0.023c2.042-2.228 43.811-2.785 173.761-2.785 170.234 0 170.79 0 173.389 4.827s1.671 5.941-1.299 10.396l-2.228 4.27h-169.305c-109.157 0-169.862 0-172.461-1.856z" />
<glyph unicode="&#xe9be;" horiz-adv-x="1035" d="M891.637-2.367c-6.683-10.025 1.856-18.564 13.737-13.923 5.384 2.042 4.827 14.109 0 17.265s-9.839 2.97-13.737-3.342z" />
<glyph unicode="&#xe9bf;" horiz-adv-x="1035" d="M925.981-1.439c-1.772-1.406-2.899-3.56-2.899-5.977 0-1.658 0.53-3.191 1.429-4.441l-0.015 0.023 2.785-5.755h46.039c44.554 0 46.596 0 48.824 4.827s1.856 5.941-1.114 10.396l-2.228 4.827h-44.74c-40.47 0-43.811 0-48.081-3.898z" />
<glyph unicode="&#xe9c0;" horiz-adv-x="1035" d="M206.991-46.55c-7.24-8.911 6.312-22.277 15.037-15.037 2.272 1.966 3.7 4.854 3.7 8.075 0 5.888-4.773 10.662-10.662 10.662-2.667 0-5.105-0.979-6.975-2.598l0.013 0.011z" />
<glyph unicode="&#xe9c1;" horiz-adv-x="1035" d="M242.263-45.993c-1.716-2.046-2.758-4.707-2.758-7.611s1.042-5.566 2.773-7.63l-0.015 0.018c2.042-2.042 55.693-2.785 222.77-2.785 197.708 0 221.099 0 224.255 3.713s4.641 6.497 1.485 12.809-7.426 4.27-224.441 4.27c-168.934 0-222.028-0.557-224.070-2.785z" />
<glyph unicode="&#xe9c2;" glyph-name="icon-menu" horiz-adv-x="1152" d="M0 960h1152.131v-128.131h-1152.131zM0 512.065h768.087v-128.131h-768.087zM0 63.782h1152.131v-127.782h-1152.131z" />
<glyph unicode="&#xe9c3;" horiz-adv-x="1022" d="M759.169 954.463c-3.328-2.854-5.423-7.063-5.423-11.761 0-3.738 1.326-7.167 3.534-9.841l-0.021 0.026c2.915-3.256 7.131-5.296 11.824-5.296 4.225 0 8.063 1.653 10.904 4.348l-0.007-0.007c3.082 2.708 5.134 6.524 5.532 10.819l0.005 0.065c0.138 0.721 0.217 1.551 0.217 2.399 0 5.675-3.537 10.524-8.527 12.463l-0.091 0.031c-2.038 1.478-4.589 2.364-7.347 2.364-4.19 0-7.903-2.045-10.194-5.192l-0.025-0.036z" />
<glyph unicode="&#xe9c4;" horiz-adv-x="1022" d="M924.903 957.136c-33.917-9.004-58.504-39.429-58.504-75.597 0-4.864 0.445-9.625 1.296-14.243l-0.073 0.48c2.531-16.542 10.544-30.871 22.092-41.383l0.056-0.051c14.027-14.019 33.4-22.689 54.799-22.689s40.772 8.67 54.799 22.689v0c6.905 6.913 12.56 15.076 16.598 24.119l0.204 0.512c3.866 7.622 6.13 16.618 6.13 26.143 0 1.753-0.077 3.488-0.227 5.202l0.016-0.222c0.023 0.689 0.036 1.5 0.036 2.313 0 19.812-7.717 37.822-20.31 51.187l0.035-0.037c-14.916 14.697-35.406 23.773-58.015 23.773-6.716 0-13.245-0.801-19.497-2.312l0.564 0.115zM973.783 929.259c7.716-4.997 14.097-11.378 18.944-18.848l0.15-0.246c4.552-6.79 7.266-15.147 7.266-24.137 0-2.060-0.142-4.086-0.418-6.070l0.026 0.229c0.185-1.512 0.291-3.263 0.291-5.038 0-8.926-2.675-17.227-7.266-24.146l0.101 0.162c-10.373-15.787-28-26.066-48.029-26.066-11.366 0-21.958 3.31-30.866 9.019l0.229-0.137c-3.16 2-5.907 4.141-8.429 6.517l0.027-0.026c-10.587 9.704-17.199 23.596-17.199 39.032 0 0.441 0.005 0.882 0.016 1.321l-0.001-0.065c-0.025 0.62-0.040 1.348-0.040 2.079 0 21.275 12.252 39.688 30.084 48.569l0.315 0.142c6.298 3.649 13.857 5.802 21.918 5.802 2.237 0 4.435-0.166 6.583-0.486l-0.243 0.030c0.288 0.006 0.628 0.009 0.968 0.009 9.835 0 19.005-2.849 26.729-7.767l-0.202 0.12z" />
<glyph unicode="&#xe9c5;" horiz-adv-x="1022" d="M139.385 931.55c-3.44-2.451-5.656-6.426-5.656-10.918 0-3.093 1.051-5.941 2.815-8.206l-0.022 0.030c0.595-0.69 1.219-1.314 1.886-1.89l0.023-0.019c2.851-3.791 7.34-6.217 12.396-6.217 3.54 0 6.801 1.189 9.408 3.189l-0.037-0.027 3.246 3.246c1.092 2.080 1.732 4.545 1.732 7.159 0 8.647-7.010 15.657-15.657 15.657-3.875 0-7.421-1.408-10.155-3.74l0.022 0.018z" />
<glyph unicode="&#xe9c6;" horiz-adv-x="1022" d="M443.549 934.796c-171.41-18.653-315.063-122.132-389.547-267.007l-1.303-2.788c-23.401-44.257-40.487-95.729-48.383-150.178l-0.306-2.572c-2.553-20.946-4.010-45.197-4.010-69.788s1.457-48.842 4.289-72.671l-0.279 2.884c13.482-92.092 50.465-173.734 104.615-240.965l-0.745 0.956c36.325-43.558 78.233-80.791 125.012-111.153l2.152-1.309c73.561-45.727 162.831-72.833 258.432-72.833 273.332 0 494.911 221.579 494.911 494.911 0 213.733-135.486 395.822-325.258 465.068l-3.439 1.097c-26.017 9.627-56.814 17.673-88.606 22.729l-2.853 0.374c-24.135 2.963-52.076 4.653-80.411 4.653-15.576 0-31.033-0.511-46.354-1.517l2.083 0.109z" />
<glyph unicode="&#xe9c7;" horiz-adv-x="1022" d="M561.357 910.738c174.487-26.316 316.215-144.154 376.203-302.228l1.090-3.273c18.032-46.782 28.478-100.911 28.478-157.479 0-1.762-0.010-3.521-0.030-5.278l0.002 0.268c0.077-2.972 0.121-6.471 0.121-9.981 0-37.177-4.921-73.204-14.148-107.466l0.661 2.884c-43.405-169.913-174.123-301.266-340.378-344.86l-3.311-0.738c-32.618-8.757-70.068-13.787-108.692-13.787-2.064 0-4.125 0.014-6.182 0.043l0.311-0.003c-2.255-0.041-4.914-0.064-7.579-0.064-72.895 0-141.714 17.449-202.509 48.398l2.538-1.172c-142.668 70.423-243.566 206.525-263.641 367.719l-0.235 2.318c-1.457 16.783-2.288 36.315-2.288 56.040s0.831 39.257 2.46 58.561l-0.171-2.521c22.664 178.679 141.502 324.901 302.239 386.505l3.262 1.099c48.894 18.902 105.473 29.853 164.609 29.853 23.705 0 46.999-1.76 69.758-5.155l-2.569 0.315z" />
<glyph unicode="&#xe9c8;" horiz-adv-x="1022" d="M445.84 844.292c-3.628 0-17.566-3.055-30.741-5.728-144.148-29.539-258.785-132.327-304.655-266.939l-0.846-2.857c-12.302-33.033-19.42-71.198-19.42-111.026 0-5.139 0.119-10.25 0.353-15.331l-0.026 0.72c-0.25-4.778-0.393-10.373-0.393-16.001 0-33.87 5.169-66.532 14.762-97.241l-0.621 2.307c36.009-123.13 125.281-220.295 240.508-266.344l2.747-0.969c41.778-16.613 90.187-26.246 140.847-26.246 6.739 0 13.438 0.17 20.094 0.507l-0.935-0.038c59.982 0.431 116.383 15.353 166.004 41.431l-1.988-0.952c46.418 22.915 85.933 52.547 119.112 88.161l0.224 0.243 15.084 16.803h21.385c19.094 0 21.767 0 23.867 4.392 1.519 9.219 2.388 19.844 2.388 30.671 0 2.173-0.035 4.338-0.104 6.494l0.008-0.315c0 31.314 0 32.459 7.065 46.016 5.067 10.66 10.434 24.118 15.050 37.92l0.798 2.75c13.45 38.656 21.218 83.213 21.218 129.584 0 93.322-31.461 179.295-84.356 247.893l0.702-0.947c-58.956 74.968-142.077 128.591-237.485 149.204l-2.715 0.492c-19.196 4.192-41.246 6.593-63.858 6.593-2.79 0-5.572-0.037-8.345-0.109l0.409 0.008c-27.113 0-52.126 0-56.136-1.146z" />
<glyph unicode="&#xe9c9;" horiz-adv-x="1022" d="M568.995 818.515c152.169-31.322 270.073-149.161 301.060-298.808l0.431-2.492c3.842-17.521 6.043-37.646 6.043-58.286 0-5.961-0.184-11.879-0.545-17.748l0.040 0.805c0.262-4.821 0.411-10.465 0.411-16.144 0-42.325-8.286-82.714-23.324-119.634l-6.11-16.972-6.874 9.356c-5.223 5.841-11.581 10.548-18.741 13.795l-0.353 0.143-11.456 4.964v126.974c0 98.524 0 127.165-2.673 128.883s-77.33 22.913-168.407 48.116l-165.161 45.825-145.877-43.152c-178.527-53.081-168.216-49.644-169.935-55.563-2.864-8.974 5.155-12.411 60.718-26.922 29.595-7.828 55.563-15.275 57.281-16.421s3.819-8.21 3.819-80.003v-77.139l6.11-2.291c3.628-1.337 79.048-2.291 199.339-2.291 171.844 0 194.566 0 199.148 3.628l4.964 3.437v157.142l8.592 2.291c4.583 1.337 26.731 6.874 49.262 12.22l40.479 10.311v-234.663l-12.602-5.919c-14.251-6.757-24.96-19.025-29.494-33.978l-0.102-0.391c-2.037-13.73-3.201-29.578-3.201-45.698 0-15.126 1.024-30.012 3.007-44.594l-0.189 1.697c1.909-3.628 4.964-4.392 17.184-4.392 8.21 0 14.702 0 14.702-1.909-17.436-19.259-36.64-36.341-57.533-51.202l-1.085-0.733c-61.447-44.989-138.531-71.988-221.921-71.988-0.653 0-1.306 0.002-1.959 0.005h0.101c-0.623-0.004-1.359-0.006-2.096-0.006-64.909 0-125.953 16.55-179.142 45.661l1.947-0.976c-32.5 17.075-60.413 37.617-84.813 61.709l0.036-0.036c-56.79 53.304-97.003 123.661-112.457 202.873l-0.388 2.385c-3.645 21.524-5.728 46.32-5.728 71.602s2.083 50.077 6.087 74.224l-0.359-2.622c7.177 36.799 18.751 69.533 34.385 99.831l-0.971-2.071c55.465 110.869 159.937 190.111 284.229 209.748l2.177 0.283c16.358 1.789 35.329 2.809 54.539 2.809 27.311 0 54.14-2.063 80.34-6.040l-2.94 0.367z" />
<glyph unicode="&#xe9ca;" horiz-adv-x="1022" d="M612.72 606.383c75.42-21.003 138.048-38.188 139.003-39.524s-61.482-17.184-138.812-36.66l-140.53-34.942-131.365 34.942c-72.365 19.094-131.174 35.705-130.411 36.278s255.284 77.33 260.248 77.712 66.065-16.993 141.867-37.806z" />
<glyph unicode="&#xe9cb;" horiz-adv-x="1022" d="M668.283 453.442v-67.401h-367.555v66.255c0 36.66 0 66.446 1.337 66.446l83.058-21.958c44.87-12.22 84.585-21.958 88.213-21.767s47.162 10.502 95.469 22.913 91.65 22.913 95.469 22.913h4.010z" />
<glyph unicode="&#xe9cc;" horiz-adv-x="1022" d="M817.405 290.572c12.22-9.356 14.511-16.803 15.657-52.317l1.146-33.032h-71.602v29.213c0 38.188 4.392 50.026 21.385 58.618 4.215 1.819 9.121 2.877 14.276 2.877 7.076 0 13.685-1.994 19.298-5.451l-0.159 0.091z" />
<glyph unicode="&#xe9cd;" horiz-adv-x="1022" d="M247.074 325.131c-5.155-5.346-4.583-8.401 6.301-26.349 23.541-38.986 54.783-71.021 91.84-94.781l1.147-0.688c41.952-26.23 92.913-41.786 147.508-41.786 63.773 0 122.588 21.225 169.767 56.997l-0.7-0.509c20.484 14.584 37.676 32.262 51.285 52.545l0.459 0.727c-0.634 5.68-4.798 10.232-10.223 11.44l-0.088 0.016c-7.984-5.437-14.839-11.746-20.674-18.919l-0.138-0.175c-25.083-26.496-55.664-47.512-89.943-61.259l-1.707-0.604c-25.14-11.488-54.533-18.185-85.489-18.185-3.51 0-7 0.086-10.468 0.256l0.488-0.019c-3.895-0.261-8.444-0.41-13.028-0.41-24.762 0-48.508 4.348-70.516 12.323l1.441-0.456c-61.105 20.258-110.887 60.755-142.549 113.39l-0.654 1.173c-10.883 18.903-16.612 22.722-24.058 15.275z" />
<glyph unicode="&#xe9ce;" horiz-adv-x="1022" d="M27.304 796.557c-3.351-2.682-5.478-6.771-5.478-11.357 0-3.446 1.201-6.612 3.208-9.101l-0.022 0.028 1.146-1.337c3.204-2.518 7.296-4.038 11.743-4.038s8.539 1.52 11.784 4.069l-0.041-0.031c2.24 2.962 3.588 6.707 3.588 10.767 0 4.69-1.799 8.961-4.745 12.158l0.011-0.013c-2.505 2.302-5.861 3.713-9.547 3.713s-7.042-1.411-9.557-3.722l0.010 0.009c-0.816-0.226-1.521-0.622-2.105-1.15l0.004 0.004z" />
<glyph unicode="&#xe9cf;" horiz-adv-x="1022" d="M960.99 143.931c-2.415-2.961-3.878-6.781-3.878-10.942 0-5.226 2.307-9.913 5.958-13.098l0.021-0.018c2.623-2.229 6-3.643 9.701-3.817l0.036-0.001c8.869 0.385 15.913 7.668 15.913 16.597 0 4.179-1.543 7.998-4.091 10.918l0.017-0.020c-3.263 2.681-7.481 4.307-12.080 4.307-4.382 0-8.419-1.476-11.641-3.958l0.045 0.033z" />
<glyph unicode="&#xe9d0;" horiz-adv-x="1022" d="M59.955 90.087c-28.484-8.225-48.964-34.064-48.964-64.686 0-26.526 15.367-49.463 37.684-60.394l0.396-0.175c8.604-3.848 18.647-6.089 29.213-6.089s20.609 2.241 29.679 6.273l-0.466-0.185c21.914 11.58 36.594 34.224 36.594 60.297 0 11.533-2.872 22.395-7.941 31.911l0.178-0.367c-2.767 5.15-5.872 9.595-9.425 13.637l0.069-0.080c-12.961 13.36-31.082 21.651-51.139 21.651-5.631 0-11.109-0.653-16.363-1.889l0.482 0.096zM103.679 62.592c11.395-8.55 18.69-22.031 18.69-37.216 0-8.978-2.55-17.361-6.966-24.463l0.114 0.197c-7.907-12.851-21.895-21.291-37.855-21.291-8.604 0-16.635 2.453-23.432 6.698l0.187-0.109-3.437 2.291c-11.209 8.485-18.377 21.801-18.377 36.791 0 10.304 3.387 19.817 9.107 27.486l-0.087-0.121c3.887 5.1 8.648 9.313 14.093 12.48l0.228 0.122c6.229 3.121 13.571 4.947 21.34 4.947 9.813 0 18.945-2.914 26.578-7.925l-0.184 0.113z" />
</font>
</defs>
</svg>
