<?xml version="1.0" encoding="utf-8"?>
<!-- Generator: Adobe Illustrator 16.0.0, SVG Export Plug-In . SVG Version: 6.00 Build 0)  -->
<!DOCTYPE svg PUBLIC "-//W3C//DTD SVG 1.1//EN" "http://www.w3.org/Graphics/SVG/1.1/DTD/svg11.dtd">
<svg version="1.1" id="Calque_1" xmlns="http://www.w3.org/2000/svg" xmlns:xlink="http://www.w3.org/1999/xlink" x="0px" y="0px"
	 width="913.455px" height="280.486px" viewBox="0 0 913.455 280.486" enable-background="new 0 0 913.455 280.486"
	 xml:space="preserve">
<rect x="695.387" y="75.408" display="none" fill="#1A468F" width="150" height="60"/>
<text transform="matrix(1 0 0 1 56.6475 27.27)" display="none" fill="#FFFFFF" font-family="'MicrosoftYaHeiUI-Bold'" font-size="23">Since 2003</text>
<path fill-rule="evenodd" clip-rule="evenodd" fill="#1B1464" d="M220.211,6.933H6.384v154.303c0,2.02-0.173,4.053-0.173,6.102
	c0,58.269,47.868,105.506,106.92,105.506c59.047,0,106.915-47.237,106.915-105.506c0-0.325-0.018-0.648-0.021-0.973l0.187-0.155
	V6.933z"/>
<path fill-rule="evenodd" clip-rule="evenodd" fill="#AD0E24" stroke="#AD0E24" stroke-miterlimit="10" d="M211.887,16.908h-197
	v142.785c0,1.88,0.472,3.772,0.472,5.68c0,54.242,44.289,98.216,98.536,98.216c54.244,0,98.375-43.974,98.375-98.216
	c0-0.302-0.284-0.604-0.287-0.905l-0.096-0.145V16.908z"/>
<rect x="18.294" y="-63.592" display="none" fill="#FFCC32" width="212" height="35"/>
<g>
	<g>
		<path fill-rule="evenodd" clip-rule="evenodd" fill="#FFFFFF" d="M176.136,58.585v-0.35c-7.994,1.775-9.281,9.073-14.656,13.261
			c0.012-8.199-0.473-14.15-1.746-20.24c-0.115-0.116-0.232-0.233-0.35-0.35h-0.348c-2.92,8.959,2.975,14.729,2.093,21.29
			c-0.079,0.591-0.227,1.205-0.422,1.833c0.353-0.625,0.72-1.24,1.121-1.833C165.62,66.597,172.749,65.307,176.136,58.585z
			 M158.161,79.263c1.143-1.806,2.032-3.576,2.546-5.233C159.756,75.721,158.952,77.503,158.161,79.263z M115.063,48.464
			c-4.254,3.663-3.729,11.488-3.49,18.846c-0.232,0.116-0.466,0.232-0.699,0.349c-4.111-5.593-7.438-11.399-13.96-14.657
			c1.853,9.151,10.538,9.353,14.312,15.705c0.621,1.046,1.096,2.188,1.459,3.396c-0.255-1.598-0.509-3.195-0.764-4.793
			C112.784,61.1,115.433,56.59,115.063,48.464z M113.581,77.745c-0.09-1.985-0.369-3.886-0.896-5.642
			C112.983,73.984,113.282,75.865,113.581,77.745z M183.116,123.15c6.932-1.35,12.68,0.933,16.751-2.794h0.699
			c-5.505-4.257-14.411,1.809-19.194,2.443c2.479-6.926,7.748-9.693,9.422-18.496c-7.963,4.795-5.385,12.51-10.469,18.847
			c-4.422,5.505-22.434,9.396-32.807,9.42c3.539-4.749,8.319-8.181,15.008-9.771c5.893-1.402,11.787,1.035,15.703-1.745h0.699
			c-3.825-3.033-11.408,0.057-14.658,1.048v-0.351c2.889-1.237,4.253-3.921,6.631-5.234c2.648-1.462,7.313-1.907,9.771-2.792
			c0.35-0.464,0.699-0.931,1.048-1.396c-5.429,0.079-7.319,2.06-10.819,3.841c1.4-4.039,3.582-6.104,3.49-11.866
			c-6.501,6.366-0.383,11.782-11.517,17.448c2.341-4.132,5.126-6.965,6.979-11.864v-2.094c-4.289,3.135-6.367,8.963-8.026,14.657
			c-1.629,0.465-3.257,0.93-4.886,1.396h-1.047c2.676-3.722,5.352-7.445,8.025-11.168c1.047-2.211,2.096-4.42,3.142-6.63
			c4.675-5.342,13.296-5.001,16.054-12.564c-8.219,2.941-8.958,7.259-14.309,10.122c-0.465,0.465-0.931,0.93-1.396,1.396
			c-1.134-3.188,0.949-8.201,1.396-11.518c-0.465-3.024-0.931-6.05-1.396-9.073c-2.522,2.549-3.1,10.063-1.745,14.309
			c-5.578,1.098-7.919,3.135-12.215,4.536c1.85-4.173,3.984-7.037,3.838-13.261c-3.744,3.633-1.613,9.15-4.537,13.959
			c-2.198,3.618-8.173,5.854-12.213,7.677c3.876-5.005,8.835-7.048,11.516-13.609c-8.018,1.982-7.966,11.091-14.31,14.308h-0.349
			c3.131-18.808,20.198-27.565,35.598-34.199c1.396-1.514,2.793-3.025,4.188-4.537v-0.35c-11.578,0.683-14.187,8.521-21.987,11.866
			c1.134-1.78,2.045-3.796,2.965-5.846c-4.547,7.188-13.068,14.914-17.621,18.06c0.22-15.783,12.109-13.255,17.799-22.684v-0.349
			c-6.215,1.162-7.955,5.151-11.867,8.376c1.047-2.793,2.095-5.586,3.142-8.376c2.159-3.381,5.534-4.371,7.329-8.726
			c-3.583,1.218-5.793,4.428-6.98,8.027c-0.232,0.115-0.465,0.231-0.698,0.349c-0.972-3.332-1.278-7.932-2.093-10.819
			c-0.35-0.232-0.699-0.465-1.048-0.697c0.181,9.171,4.846,13.557-0.698,19.892v0.698c-1.425-3.715,0.186-10.963-0.697-15.006
			c-0.232-0.117-0.466-0.234-0.698-0.35c-1.464,5.643,0.056,10.784,0.35,16.403c-0.35,0.582-0.699,1.163-1.048,1.744
			c-0.698,0.582-1.395,1.165-2.094,1.745c-0.117-5.234-0.232-10.471-0.35-15.705c1.662-7.088,6.356-10.014,6.283-20.241
			c-4.42,3.957-6.014,10.727-6.283,18.846h-0.348c-0.582-3.931-2.123-7.306-2.794-10.469c-1.033-4.877,1.817-9.477,1.397-14.658
			h-1.746c-0.819,4.651-0.449,8.243-0.348,13.609c-4.213-3.283-6.084-9.131-12.217-10.469v0.348
			c3.329,6.361,8.916,6.333,12.217,10.819c3.074,4.181,2.178,13.45,2.094,19.543h-0.35c-1.408-4.752,0.027-14.397-2.791-18.495
			v-0.697h-0.35c-1.17,5.066,0.253,9.394,1.048,13.959c-2.952-3.141-2.605-8.309-6.632-10.47c-0.465-0.466-0.932-0.931-1.396-1.395
			h-0.348c1.461,8.011,8.334,10.934,10.469,18.494c-0.465,2.908-0.93,5.817-1.396,8.726c-2.756,11.743-5.479,21.953-10.818,31.06
			c-2.906,4.539-5.816,9.073-8.724,13.611c-0.233,0.115-0.468,0.232-0.699,0.348c-0.697-3.954-1.396-7.909-2.093-11.864
			c4.312-5.771,12.454-7.169,16.053-13.611c-6.336,1.155-8.152,5.189-12.213,8.377c1.045-2.677,2.092-5.354,3.139-8.029
			c2.171-3.489,6.252-4.099,7.33-9.071h-0.349c-3.37,2.183-4.24,5.378-6.981,8.025c-0.115,0.232-0.231,0.465-0.348,0.698
			c-0.481-4.134-0.468-8.596-2.443-11.167v-0.698c-3.28,4.644,2.748,9.095,2.094,13.262c-1.047,2.325-2.094,4.652-3.141,6.98
			c-0.232,0.115-0.465,0.231-0.698,0.349c0.229-5.325,0.525-10.59-0.35-15.355h-0.697c-1.056,5.991,0.206,10.604,0.349,16.751v0.35
			c-0.699,0.581-1.396,1.162-2.094,1.744c-2.303-11.444-5.996-21.17,5.933-27.221c0.23,2.198,0.776,3.087,2.443,3.839
			c0.698,0.115,1.396,0.232,2.093,0.349c0.234-0.349,0.467-0.698,0.699-1.047c-0.262-2.722-1.092-2.757-2.443-4.188v-0.348
			c0.814-0.232,1.629-0.466,2.443-0.698c0.025,3.287,0.916,3.58,2.791,4.886c1.559-0.7,4.338-5.269,3.84-6.631
			c-0.117-0.35-0.232-0.698-0.35-1.047c-4.271-0.762-7.287,1.99-10.818,3.49c5.035-5.208,10.828-6.882,14.309-13.96v-0.349
			c-5.41,1.667-7.962,5.057-11.865,8.027c0.813-2.211,1.629-4.423,2.441-6.632V77.78c-6.711,4.079-5.373,15.019-12.213,18.846
			c0.191-19.348,10.635-20.353,10.816-36.644c-8.154,6.021-5.797,12.607-10.119,21.986c-0.117,0.233-0.232,0.465-0.35,0.698
			c-0.261-1.641-0.521-3.281-0.783-4.922c0.43,9.372-3.285,20.602-4.451,26.906c-10.158-10.267,2.582-19.057,2.791-31.059
			c-3.604,2.708-5.025,7.481-5.582,13.261c-3.006-6.826-0.121-11.738,0-19.543c-0.233-0.115-0.467-0.232-0.699-0.35
			c-1.188,3.574-1.578,6.337-1.396,11.169h-0.348c-3.094-2.934-4.256-6.296-8.377-8.376c2.121,8.495,9.801,5.303,9.772,18.495h-0.35
			c-1.334-4.206-3.769-9.773-7.328-11.865c-0.35-0.348-0.699-0.697-1.048-1.046h-0.348c1.304,6.945,6.027,8.493,8.374,13.61
			c0.864,2.113-0.278,4.604-0.696,6.63h-0.35c-2.309-5.479-7.518-8.814-10.121-13.609c-4.915-9.055-0.791-19.256-8.725-26.174
			c-0.704,11.38,4.057,16.466,7.329,24.079c-4.071-3.374-8.144-6.748-12.214-10.12c-1.396-3.375-2.793-6.748-4.189-10.122
			c-1.626-1.86-3.257-3.721-4.885-5.583c-0.351-0.117-0.699-0.232-1.047-0.35c0.814,7.334,5.418,12.171,9.771,16.055
			c0.116,0.349,0.232,0.697,0.35,1.047c-7.111-0.832-12.541-3.342-20.591-2.094c5.24,5.454,13.987,0.414,21.288,2.79
			c7.09,2.31,15.875,16.524,19.194,23.384h-1.745c-5.081-3.952-7.104-11.063-15.008-12.214c3.232,5.986,8.867,7.282,13.264,11.864
			c-11.396-2.487-13.615-7.574-17.45-17.45c-0.699-0.581-1.396-1.161-2.094-1.743c0.362,6.086,3.455,8.644,5.583,12.911
			c-3.802-1.516-7.607-3.888-12.912-2.791c3.457,3.014,9.088,1.105,13.609,3.49c2.479,1.306,4.063,3.619,7.33,4.536
			c-2.45,0.767-11.557-0.425-16.055,0.698c-0.116,0.232-0.23,0.466-0.348,0.698c4.826,1.063,18.435-0.97,20.59,0.697
			c-3.427,0.374-10.924,1.402-12.215,3.839c-0.521,1.327-0.061,1.954,0.35,3.141c1.583,0.285,2.19,0.201,3.49-0.348
			c0.232,0.696,0.465,1.396,0.697,2.094c0.91,0.449,1.217,0.624,2.792,0.698c0.466-0.583,0.932-1.164,1.397-1.746
			c0.512-2.496-0.021-3.459-1.397-4.885c2.384-1.774,6.724-2.555,10.819-2.443c1.861,5.117,3.723,10.238,5.584,15.354
			c-3.248-2.448-4.979-8.352-6.282-12.563c-0.931-0.814-1.862-1.628-2.793-2.443c0.56,5.223,3.022,7.695,5.236,11.168
			c-3.452-2.735-5.083-6.382-10.47-7.328c4.896,8.258,12.379,6.31,16.054,18.147c-6.754,2.422-11.313-10.139-16.403-12.914
			c1.176,5.306,5.24,6.884,8.026,10.472c-3.97-2.186-6.485-4.957-12.563-5.236v0.349c3.199,3.108,8.738,4.564,13.611,5.933
			c0.232,0.351,0.465,0.699,0.697,1.047c-6.869-1.001-16.592-3.304-19.544-8.374c-2.438-4.19-0.82-9.821-4.187-12.913
			c-0.116-0.231-0.232-0.466-0.35-0.698h-0.349c0.376,5.243,2.234,7.648,3.489,11.517c-3.205-2.948-3.918-7.232-9.074-8.376
			c2.65,5.239,7.855,6.793,10.47,11.865c-5.423-3.373-13.51-9.39-15.704-15.705c-1.014-2.917,0.713-6.385,1.049-8.375
			c0.892-5.336-1.082-9.394-2.096-12.912c-0.232-0.117-0.465-0.233-0.697-0.349c-0.838,7.604,0.902,13.032,1.047,20.59h-0.35
			c-5.734-4.129-8.116-8.219-16.053-10.818c2.727,6.341,9.167,6.859,14.656,10.47c3.492,4.421,6.981,8.842,10.471,13.262
			c-3.721-2.21-7.446-4.422-11.168-6.631c-3.586-1.415-7.885-1.053-12.215-2.094c-0.116,0.115-0.232,0.232-0.349,0.349
			c5.356,6.733,14.169,5.878,23.382,9.074c3.955,2.789,7.911,5.583,11.865,8.376h0.699c-6.14,2.568-9.473-2.862-13.611-4.539
			c-2.676-0.465-5.352-0.929-8.026-1.395c-0.116,0.117-0.231,0.231-0.349,0.349c1.713,2.123,4.771,4.024,8.027,4.536
			c-3.699,1.24-10.666,0.858-14.31,1.745c-0.116,0.233-0.232,0.466-0.349,0.699c5.896,1.607,12.146,1.285,18.844,0.698v0.349
			c-2.211,0.439-7.969,1.871-9.072,4.538v1.045c2.586,1.544,3.43,0.838,5.584,2.442c1.947-0.206,1.827-0.287,2.443-1.742
			c0.815-2.002-0.445-2.984-1.396-4.191c0.814-0.348,1.629-0.696,2.441-1.045v4.188c0.912,0.451,1.219,0.623,2.793,0.697
			c0.232-0.466,0.466-0.932,0.699-1.394c0.806-1.743,0.041-3.093-0.699-4.189c5.756-3.08,16.15-0.202,19.893,3.142
			c-4.988,0.618-10.97-0.054-15.355,1.048v0.348c3.23,1.889,8.337,0.51,11.865-0.348c-3.268,2.368-7.806,2.23-9.771,5.932
			c-0.232,0.348-0.465,0.696-0.697,1.046c6.46-1.629,8.975-7.108,15.355-8.025c2.791,0.465,5.585,0.93,8.375,1.396
			c0.234,2.908,0.467,5.817,0.698,8.726c4.901,0.973,8.099,4.157,10.47,7.678c-0.93-0.814-1.861-1.63-2.792-2.446
			c1.513,2.444,3.026,4.887,4.538,7.33c-4.396-4.399-6.061-9.354-12.914-11.517c-16.229-5.12-34.633,0.506-48.51-7.677
			c-2.422-1.429-5.878-3.66-8.937-6.207c1.152,1.334,2.204,2.556,3.005,3.415c-7.996-2.354-13.111-7.191-24.779-5.934
			c6.007,6.436,15.609,3.919,25.478,6.98c2.675,1.745,5.351,3.489,8.026,5.235c4.969,2.975,11.092,5.28,17.449,6.632
			c-3.019,0.841-12.19-3.063-19.195-2.096c3.02,3.417,10.894,3.009,17.45,2.792v0.349c-16.979,4.625-14.351-1.186-26.524-5.582
			c1.863,4.917,7.757,4.745,11.168,8.025c-4.385,1.004-7.844,2.167-11.168,3.49c-0.232,0.465-0.464,0.93-0.696,1.396
			c5.276-1.065,7.938-3.414,11.864-4.537c3.373-0.117,6.75-0.233,10.121-0.35c-4.166,3.735-9.932,3.304-12.563,8.723
			c-0.232,0.352-0.464,0.701-0.698,1.049c8.205-1.552,10.545-7.832,17.102-10.818c0.115,0.116,0.231,0.232,0.348,0.351
			c-1.87,2.555-3.854,4.908-6.979,6.279c-0.351,1.396-0.699,2.794-1.047,4.188c0.115,0.233,0.231,0.466,0.348,0.698
			c0.699,0.348,1.397,0.699,2.096,1.047c0.348-0.115,0.697-0.231,1.047-0.348c2.223-2.63,1.734,0.155,4.535-0.699
			c0.349-0.117,0.699-0.232,1.048-0.349c0.845-3.406-0.978-5.94-3.839-5.586c1.895-2.943,4.354-4.835,6.63-7.327
			c8.194-0.374,20.362,3.156,26.872,6.282c-0.348,5.933-0.696,11.866-1.045,17.799h0.349c0.931-2.793,1.86-5.585,2.792-8.374h0.348
			c-0.887,7.003-3.986,12.179-5.583,18.145c2.423-2.303,4.638-6.872,5.235-10.818h0.348c-1.686,16.84-14.803,25.028-33.502,25.127
			c17.564,0.118,35.133,0.234,52.697,0.351c-3.151-3.808-6.585-5.746-8.027-11.517h0.35c0.781,1.926,2.194,3.477,3.838,4.535
			c-1.512-3.374-3.023-6.746-4.535-10.121c5.414,7.818,8.303,17.254,21.637,17.103v-0.351c-13.66-5.427-15.158-21.462-16.402-39.435
			c8.605-2.902,12.504-9.094,23.732-9.422c2.475,2.231,4.173,5.813,5.583,9.071c-2.966-0.09-4.033,0.456-4.887,2.443
			c-0.116,1.048-0.231,2.095-0.349,3.143c1.047,0.232,2.095,0.464,3.142,0.698c0.763-0.721,0.676-0.474,1.046-1.746h0.349
			c0.234,0.929,0.466,1.862,0.699,2.794c1.104,0.688,1.19,0.94,3.14,1.045c0.466-0.813,0.932-1.628,1.396-2.443
			c-0.495-5.284-5.094-6.829-6.28-12.213c6.565,3.51,7.491,12.276,15.006,15.005c0.231,0.233,0.464,0.466,0.698,0.698h0.349
			c-1.657-7.527-7.781-8.78-11.866-13.611c0.464,0.131,0.927,0.261,1.391,0.391c-1.676-0.729-3.403-1.958-5.229-3.881h-0.698
			c4.717-1.4,12.052,4.083,18.147,1.048h0.697c-4.967-4.83-13.499-0.163-19.892-2.441c-0.233-0.117-0.466-0.234-0.698-0.351
			c3.403-1.622,11.156-4.469,15.355-3.839c6.809,1.025,17.283,5.857,24.778,1.744h0.698v-0.348
			c-8.707-2.913-14.44-2.546-25.129-2.093v-0.351C173.111,128.036,178.114,125.591,183.116,123.15z M123.438,86.503h0.35
			c-0.234,0.233-0.467,0.468-0.698,0.7C123.206,86.971,123.321,86.737,123.438,86.503z M121.345,89.645h0.35
			c-0.699,0.814-1.396,1.629-2.095,2.443C120.181,91.274,120.763,90.459,121.345,89.645z M75.626,116.169
			c0.931,0.115,1.861,0.231,2.793,0.348C77.341,116.963,76.54,116.72,75.626,116.169z M136.701,113.725
			c0.696-0.231,1.396-0.464,2.093-0.699l8.725,1.049c-0.348,1.046-0.697,2.095-1.047,3.142c-5.346,2.092-8.165,5.215-12.912,7.327
			h-0.35C134.374,120.939,135.538,117.332,136.701,113.725z M132.513,125.591c4.261-1.01,10.182,0.058,14.658-1.048
			c0.114-0.232,0.232-0.466,0.348-0.697c-4.243-0.946-8.238-0.218-12.214,0.697c3.39-2.525,7.79-4.13,11.167-6.631
			c0.541,1.768,0.999,2.066,2.095,3.142h1.396c0.4-0.521,0.885-2.674,1.396-3.142c1.244-1.132,2.288,0.58,3.491-0.696
			c0.557-0.689,0.473-0.477,0.696-1.745c-0.232-0.466-0.464-0.932-0.696-1.396c-2.255-1.333-9.239-1.625-13.263-1.746v-0.348
			c5.872-1.163,15.446-1.291,20.592-2.794c0.114-0.231,0.231-0.464,0.349-0.696c-5.908-1.986-11.937,0.447-16.403,1.745
			c2.675-2.211,5.353-4.42,8.027-6.63c4.231-1.938,8.349-1.045,11.167-4.189c4.135,4.902-1.922,11.114-3.838,13.609
			c-7.77,10.115-20.023,19.994-34.202,23.384C129.022,132.803,130.768,129.197,132.513,125.591z M160.077,140.988
			c0.944,0.412,1.873,0.66,2.793,0.785C161.939,141.511,161.008,141.25,160.077,140.988z M45.655,113.161
			c1.225,2.118,3.326,4.264,5.679,6.224C49.492,117.253,47.394,114.837,45.655,113.161z M181.022,151.069
			c-2.079-5.028-7.188-4.982-11.168-8.028c-0.232-0.117-0.466-0.232-0.697-0.349c4.501-0.823,8.813-2.32,12.563-3.49
			c0.465-0.581,0.93-1.163,1.396-1.747c-8.1,0.197-13.982,5.175-20.246,4.318c2.328,0.655,4.656,1.31,6.984,1.964
			C173.859,146.25,175.661,149.247,181.022,151.069z M44.915,100.116c-0.93-2.908-1.861-5.816-2.792-8.725
			c-0.349-0.232-0.696-0.465-1.047-0.697c-1.55,8.447,2.11,13.568,3.142,20.239h-0.35c-6.099-3.439-8.846-6.853-17.101-9.073
			c3.178,6.621,11.345,5.727,17.101,9.771c0.521,0.366,1.129,0.896,1.787,1.53c-0.297-0.513-0.558-1.024-0.74-1.53V100.116z"/>
	</g>
</g>
<g>
	<path fill="#FFFFFF" d="M36.61,212.302c0.17,1.63,0.882,3.597,2.206,5.255c1.965,2.46,4.414,2.86,6.292,1.358
		c1.713-1.37,1.941-3.182,0.871-6.447c-1.324-3.924-1.222-7.084,1.376-9.16c2.902-2.318,6.979-1.636,9.872,1.984
		c1.501,1.88,2.186,3.643,2.357,4.819l-2.492,0.904c-0.105-0.867-0.574-2.53-1.921-4.217c-2.031-2.542-4.324-2.295-5.596-1.279
		c-1.741,1.392-1.692,3.209-0.634,6.574c1.302,4.122,1.041,6.912-1.695,9.099c-2.875,2.297-7.067,2.205-10.579-2.189
		c-1.436-1.796-2.45-4.199-2.582-5.725L36.61,212.302z"/>
	<path fill="#FFFFFF" d="M65.383,214.297L49.287,231.89l-2.296-2.103l16.095-17.592L65.383,214.297z"/>
	<path fill="#FFFFFF" d="M55.552,237.492l12.433-20.352l2.898,1.771l0.202,14.263c0.022,3.289-0.08,6.171-0.417,8.826l0.11,0.024
		c1.418-2.864,2.87-5.378,4.807-8.548l5.203-8.515l2.476,1.512l-12.433,20.352l-2.658-1.623l-0.153-14.273
		c-0.036-3.132,0.026-6.287,0.375-9.1l-0.108-0.025c-1.417,2.659-2.881,5.123-4.947,8.505l-5.312,8.696L55.552,237.492z"/>
	<path fill="#FFFFFF" d="M95.83,254.394c-1.21,0.24-3.576,0.147-6.363-0.656c-6.457-1.861-10.107-7.33-7.932-14.874
		c2.076-7.204,8.327-10.629,15.429-8.582c2.821,0.813,4.48,1.954,5.144,2.587l-1.443,2.197c-0.932-0.857-2.41-1.726-4.314-2.274
		c-5.369-1.547-9.927,0.856-11.66,6.871c-1.626,5.642,0.573,10.14,6.113,11.737c1.835,0.528,3.778,0.684,5.133,0.448L95.83,254.394z
		"/>
	<path fill="#FFFFFF" d="M115.899,245.477l-9.221-0.49l-0.455,8.586l10.315,0.547l-0.137,2.579l-13.425-0.712l1.263-23.813
		l12.896,0.684l-0.137,2.579l-9.786-0.519l-0.399,7.525l9.222,0.489L115.899,245.477z"/>
	<path fill="#FFFFFF" d="M131.536,255.195l-0.481-1.849l1.766-2.907c4.274-6.886,6.126-10.438,5.254-13.791
		c-0.588-2.259-2.192-4.07-5.512-3.207c-2.019,0.526-3.429,1.988-4.232,3.111l-1.511-1.872c1.176-1.658,3.143-3.23,5.676-3.889
		c4.791-1.247,7.665,1.514,8.493,4.696c1.069,4.106-1.045,8.201-4.559,13.939l-1.318,2.097l0.019,0.068l9.959-2.592l0.651,2.499
		L131.536,255.195z"/>
	<path fill="#FFFFFF" d="M160.443,231.596c3.581,6.948,2.949,12.129-1.546,14.446c-3.994,2.059-8.658-0.272-12.205-7
		c-3.549-6.886-2.491-12.166,1.66-14.306C152.627,222.533,157.088,225.088,160.443,231.596z M149.506,237.631
		c2.74,5.313,5.931,7.489,8.446,6.192c2.797-1.442,2.447-5.44-0.243-10.659c-2.594-5.03-5.552-7.684-8.445-6.192
		C146.875,228.204,146.638,232.067,149.506,237.631z"/>
	<path fill="#FFFFFF" d="M175.259,219.72c5.005,6.004,5.513,11.198,1.628,14.437c-3.449,2.876-8.509,1.613-13.432-4.183
		c-4.959-5.949-5.074-11.333-1.488-14.323C165.663,212.571,170.572,214.097,175.259,219.72z M165.896,227.986
		c3.828,4.592,7.414,6.022,9.588,4.21c2.417-2.016,1.208-5.842-2.552-10.352c-3.623-4.347-7.088-6.293-9.587-4.21
		C161.281,219.356,161.888,223.177,165.896,227.986z"/>
	<path fill="#FFFFFF" d="M184.733,221.472c0.959-0.376,2.892-1.433,4.231-3.169c2.419-3.137,1.208-5.679-0.353-6.839
		c-2.571-1.938-5.435-0.483-7.271,1.897l-1.06,1.372l-1.848-1.426l1.059-1.372c1.383-1.793,2.208-4.774,0.051-6.438
		c-1.457-1.123-3.457-1.192-5.208,1.075c-1.123,1.457-1.558,3.354-1.603,4.57l-2.312-0.71c0.057-1.521,0.781-3.909,2.294-5.87
		c2.765-3.585,6.146-3.567,8.359-1.861c1.905,1.47,2.615,3.85,1.722,6.688l0.056,0.043c2.147-1.916,5.211-2.413,7.781-0.476
		c2.912,2.247,3.69,6.509,0.341,10.851c-1.576,2.045-3.603,3.34-4.882,3.783L184.733,221.472z"/>
</g>
<g>
	<path fill="#AD0E24" d="M290.938,156.62h48.853v9.734H247.39v-40.896v-11.053V104.9V46.54V7.192h92.844v9.513H291.38h-21.221
		v30.056v4.642v26.414h16.137h29.843v7.631h-29.18h-16.801V104.9v3.536v5.969v11.053v31.162H290.938z"/>
	<path fill="#AD0E24" d="M459.541,127.669c-1.326,13.042-6.853,22.989-16.358,30.284c-9.505,7.074-21.443,9.946-36.033,8.4
		c-14.589-1.548-33.822-13.264-42.443-27.411l4.2-4.642c11.938,17.02,21,23.652,36.917,26.305
		c10.611,1.547,19.232-0.885,25.864-6.41c6.411-5.306,10.168-11.938,10.832-19.453c0.884-7.516-0.884-14.147-5.527-19.895
		c-4.642-5.527-13.484-11.938-26.527-19.232c-11.495-6.633-20.116-12.158-26.085-16.801c-5.747-4.643-9.948-10.169-12.821-16.801
		c-2.653-6.632-3.758-13.484-2.874-20.559c1.105-10.832,5.747-19.453,14.148-25.864c8.179-6.411,18.126-8.842,29.621-7.737
		c6.411,0.664,12.158,2.432,17.685,5.084c5.526,2.652,10.832,7.737,16.138,14.811l-4.864,3.979
		c-1.326-1.991-2.874-3.979-4.421-5.747c-6.41-7.518-14.369-11.717-23.874-12.602c-9.063-1.105-15.917,0.664-20.558,5.084
		c-4.864,4.423-7.517,9.506-8.18,15.474c-0.663,6.854,1.327,13.043,6.189,18.569c4.643,5.526,13.485,11.937,26.527,19.674
		c12.379,7.075,21.221,12.822,26.748,17.022c5.747,4.2,9.947,9.505,12.822,16.137C459.541,112.194,460.426,119.489,459.541,127.669z
		"/>
	<path fill="#AD0E24" d="M532.969,156.62h48.853v9.734H489.42v-40.896v-11.053V104.9V46.54V7.192h92.844v9.513H533.41h-21.222
		v30.056v4.642v26.414h16.137h29.844v7.631h-29.18h-16.801V104.9v3.536v5.969v11.053v31.162H532.969z"/>
	<path fill="#AD0E24" d="M705.63,110.098h-58.579l-22.326,56.256h-11.557L679.043,7.192h7.798l67.645,159.162h-24.979
		c-8.401-20.558-11.938-29.18-11.938-29.18L705.63,110.098z M703.642,102.689l-26.801-66.758l-27.19,66.758H703.642z"/>
	<path fill="#AD0E24" d="M901.925,143.142c-13.485,15.253-30.728,23.212-51.728,23.212c-22.106,0-40.233-7.074-54.381-21.001
		c-13.926-14.147-21-32.716-21-55.706c0-15.254,3.095-29.4,9.726-42.886c6.412-13.484,15.475-23.432,27.19-29.843
		c11.496-6.41,24.316-9.726,38.243-9.726c11.495,0,21.885,2.432,31.169,7.074c9.064,4.642,15.917,9.726,20.559,15.253v0.662
		l-4.421,4.2c-2.431-3.758-5.526-6.853-8.622-9.283c-10.611-8.18-22.328-12.159-35.369-12.159c-16.137,0-28.958,6.632-38.464,19.673
		c-9.505,13.044-14.147,31.613-14.147,55.929c0,22.991,5.084,40.674,15.475,53.054c10.39,12.158,23.212,18.35,38.685,18.35
		c8.179,0,16.579-1.991,25.2-5.97c7.074-3.316,12.821-8.401,17.464-15.476L901.925,143.142z"/>
</g>
<g>
	<path fill="#1B1464" d="M270.444,241.694c0,4.294-1.572,7.506-4.715,9.634c-3.144,2.128-7.369,3.192-12.675,3.192
		c-0.672,0-1.254-0.019-1.745-0.057c0,4.105,0.146,9.068,0.437,14.888h-5.233c0.272-5.349,0.409-11.79,0.409-19.323
		c0-6.479-0.136-12.298-0.409-17.459h3.897c0.418,0,1.613-0.028,3.584-0.084c1.972-0.057,3.648-0.085,5.029-0.085
		c3.489,0,6.265,0.824,8.327,2.472C269.412,236.52,270.444,238.794,270.444,241.694z M265.892,243.333c0-4.84-3.189-7.26-9.567-7.26
		c-1.563,0-3.316,0.141-5.261,0.423c0.127,3.07,0.191,7.854,0.191,14.352c0.636,0.038,1.417,0.057,2.344,0.057
		C261.794,250.904,265.892,248.38,265.892,243.333z"/>
	<path fill="#1B1464" d="M304.243,269.351h-5.261c-1.745-5.405-3.017-8.983-3.816-10.735c-1.018-2.203-2.172-3.625-3.462-4.266
		c-1.018-0.509-2.844-0.763-5.479-0.763c-1.545,0-2.917,0.019-4.116,0.057c0,6.083,0.109,11.319,0.327,15.707h-5.07
		c0.272-5.838,0.409-12.279,0.409-19.323c0-6.629-0.136-12.448-0.409-17.459h3.843c0.817,0,1.854-0.028,3.107-0.084
		c1.254-0.057,2.689-0.085,4.307-0.085c7.959,0,11.939,2.844,11.939,8.531c0,4.728-2.235,8.052-6.706,9.973v0.282
		c1.999,0.622,3.616,2.063,4.852,4.322C299.745,257.392,301.589,262.006,304.243,269.351z M295.902,242.852
		c0-4.481-2.926-6.724-8.777-6.724c-2.09,0-3.843,0.123-5.261,0.367c0.127,3.277,0.191,7.731,0.191,13.363
		c1.09,0.037,2.135,0.056,3.135,0.056C292.331,249.915,295.902,247.561,295.902,242.852z"/>
	<path fill="#1B1464" d="M316.345,269.351h-5.179c0.272-6.102,0.409-12.543,0.409-19.323c0-6.667-0.136-12.486-0.409-17.459h5.179
		c-0.255,5.142-0.382,10.962-0.382,17.459C315.963,256.846,316.09,263.287,316.345,269.351z"/>
	<path fill="#1B1464" d="M352.079,232.569c0,1.563-2.294,7.685-6.882,18.363c-4.589,10.679-6.883,16.818-6.883,18.419h-3.543
		c0-1.45-2.167-7.543-6.5-18.278c-4.334-10.734-6.501-16.902-6.501-18.504h5.179c0,1.47,1.653,6.7,4.961,15.693
		c3.307,8.993,4.961,14.14,4.961,15.438h0.272c0-1.469,1.672-6.596,5.015-15.382s5.016-14.035,5.016-15.75H352.079z"/>
	<path fill="#1B1464" d="M385.36,269.351h-5.751c0-1.262-1.145-5.227-3.435-11.894h-15.728c-2.253,6.573-3.38,10.537-3.38,11.894
		h-5.506c0-0.696,2.344-6.719,7.032-18.066c4.688-11.347,7.033-17.585,7.033-18.716h6.323c0,1.112,2.235,7.261,6.706,18.448
		C383.125,262.204,385.36,268.316,385.36,269.351z M374.92,253.757c-4.271-11.056-6.405-16.932-6.405-17.629h-0.3
		c0,0.584-2.208,6.46-6.624,17.629H374.92z"/>
	<path fill="#1B1464" d="M412.154,232.569l-0.136,3.983c-3.598-0.188-7.314-0.282-11.148-0.282
		c-0.037,3.616-0.054,8.202-0.054,13.758c0,6.14,0.091,12.581,0.272,19.323h-4.988c0.218-6.422,0.327-12.863,0.327-19.323
		c0-5.48-0.054-10.066-0.164-13.758c-2.689,0-6.469,0.113-11.339,0.339l0.136-4.04H412.154z"/>
	<path fill="#1B1464" d="M440.011,265.085l-0.164,4.266h-21.969c0.254-5.838,0.381-12.279,0.381-19.323
		c0-6.629-0.127-12.448-0.381-17.459h20.606l-0.218,4.21c-4.998-0.227-10.294-0.339-15.891-0.339
		c0.109,2.919,0.164,6.864,0.164,11.837c4.833,0,9.14-0.113,12.92-0.34v4.21c-4.034-0.17-8.34-0.255-12.92-0.255
		c0,4.841,0.082,9.38,0.246,13.617C428.817,265.509,434.559,265.368,440.011,265.085z"/>
	<path fill="#1B1464" d="M483.922,258.135c0,3.654-1.499,6.479-4.497,8.476c-2.927,1.94-6.942,2.91-12.048,2.91
		c-1.418,0-4.198-0.057-8.341-0.17c0.254-5.838,0.382-12.279,0.382-19.323c0-6.629-0.128-12.448-0.382-17.459h3.271
		c0.636,0,1.917-0.028,3.844-0.084c1.926-0.057,3.325-0.085,4.197-0.085c7.56,0,11.339,2.702,11.339,8.107
		c0,4.22-1.79,7.025-5.369,8.419v0.282C481.387,250.151,483.922,253.126,483.922,258.135z M477.107,241.92
		c0-3.898-2.535-5.848-7.604-5.848c-2.545,0-4.606,0.141-6.188,0.423c0.146,1.356,0.218,5.189,0.218,11.498
		c0.891,0.038,1.871,0.057,2.944,0.057c3.598,0,6.214-0.424,7.85-1.271C476.181,245.837,477.107,244.218,477.107,241.92z
		 M479.315,258.616c0-4.633-3.962-6.949-11.884-6.949c-1.454,0-2.735,0.057-3.844,0.169c0,5.029,0.1,9.521,0.3,13.476
		c0.69,0.17,1.908,0.255,3.652,0.255c4.379,0,7.486-0.594,9.322-1.78C478.498,262.712,479.315,260.989,479.315,258.616z"/>
	<path fill="#1B1464" d="M520.201,232.569c-0.073,3.56-0.128,6.884-0.164,9.973s-0.055,5.971-0.055,8.645
		c0,12.619-4.807,18.928-14.419,18.928c-2.507,0-4.656-0.372-6.446-1.116c-1.79-0.743-3.262-1.883-4.415-3.418
		c-1.154-1.535-1.999-3.47-2.535-5.806c-0.536-2.335-0.804-5.094-0.804-8.277c0-2.787-0.019-5.749-0.055-8.885
		c-0.037-3.136-0.092-6.483-0.164-10.043h5.179c-0.218,7.176-0.326,12.798-0.326,16.866c0,3.276,0.153,5.946,0.463,8.009
		c0.309,2.063,0.858,3.781,1.649,5.155c0.79,1.375,1.785,2.35,2.984,2.924c1.199,0.575,2.726,0.862,4.579,0.862
		c1.944,0,3.525-0.287,4.743-0.862c1.217-0.574,2.207-1.525,2.971-2.854c0.763-1.327,1.309-3.031,1.636-5.113
		c0.327-2.08,0.49-4.807,0.49-8.178c0-1.996-0.032-4.384-0.096-7.162c-0.063-2.777-0.159-5.993-0.286-9.647H520.201z"/>
	<path fill="#1B1464" d="M550.565,259.831c0,6.969-4.68,10.453-14.037,10.453c-3.417,0-6.451-0.405-9.104-1.215l0.954-4.436
		c3.053,1.093,5.951,1.639,8.695,1.639c6.178,0,9.268-1.809,9.268-5.424c0-1.827-0.8-3.391-2.399-4.689
		c-1.072-0.866-3.18-2.024-6.323-3.476c-3.308-1.525-5.624-2.928-6.95-4.209c-1.836-1.771-2.753-3.992-2.753-6.667
		c0-2.787,0.936-5.057,2.807-6.809c2.09-1.958,5.043-2.938,8.859-2.938c4.324,0,7.286,0.292,8.886,0.875l-0.654,4.492
		c-2.763-0.904-5.697-1.355-8.804-1.355c-4.671,0-7.006,1.619-7.006,4.858c0,1.563,0.673,2.872,2.018,3.927
		c0.872,0.66,2.798,1.657,5.778,2.995c3.397,1.525,5.851,2.976,7.359,4.351C549.43,254.275,550.565,256.818,550.565,259.831z"/>
	<path fill="#1B1464" d="M563.567,269.351h-5.179c0.272-6.102,0.409-12.543,0.409-19.323c0-6.667-0.137-12.486-0.409-17.459h5.179
		c-0.254,5.142-0.381,10.962-0.381,17.459C563.187,256.846,563.313,263.287,563.567,269.351z"/>
	<path fill="#1B1464" d="M601.182,269.351h-3.815c0-0.32-2.98-4.831-8.94-13.532c-6.233-9.134-9.785-14.896-10.658-17.289h-0.272
		c0.327,4.539,0.491,8.429,0.491,11.668c0,6.328,0.136,12.712,0.408,19.153h-4.579c0.31-6.12,0.464-12.562,0.464-19.323
		c0-6.648-0.154-12.468-0.464-17.459h5.233c0,0.528,2.744,4.822,8.232,12.883c5.741,8.475,9.013,13.993,9.813,16.555h0.272
		c-0.31-4.596-0.464-8.494-0.464-11.696c0-6.968-0.127-12.882-0.382-17.741h4.661c-0.309,4.991-0.463,10.811-0.463,17.459
		C600.719,256.79,600.873,263.231,601.182,269.351z"/>
	<path fill="#1B1464" d="M633.563,265.085l-0.163,4.266h-21.97c0.255-5.838,0.382-12.279,0.382-19.323
		c0-6.629-0.127-12.448-0.382-17.459h20.606l-0.218,4.21c-4.997-0.227-10.294-0.339-15.891-0.339
		c0.108,2.919,0.163,6.864,0.163,11.837c4.834,0,9.141-0.113,12.92-0.34v4.21c-4.034-0.17-8.341-0.255-12.92-0.255
		c0,4.841,0.082,9.38,0.245,13.617C622.37,265.509,628.112,265.368,633.563,265.085z"/>
	<path fill="#1B1464" d="M661.202,259.831c0,6.969-4.68,10.453-14.037,10.453c-3.417,0-6.451-0.405-9.104-1.215l0.954-4.436
		c3.053,1.093,5.951,1.639,8.695,1.639c6.178,0,9.268-1.809,9.268-5.424c0-1.827-0.8-3.391-2.399-4.689
		c-1.072-0.866-3.18-2.024-6.323-3.476c-3.308-1.525-5.624-2.928-6.95-4.209c-1.836-1.771-2.753-3.992-2.753-6.667
		c0-2.787,0.936-5.057,2.807-6.809c2.09-1.958,5.043-2.938,8.859-2.938c4.324,0,7.286,0.292,8.886,0.875l-0.654,4.492
		c-2.763-0.904-5.697-1.355-8.804-1.355c-4.671,0-7.006,1.619-7.006,4.858c0,1.563,0.673,2.872,2.018,3.927
		c0.872,0.66,2.798,1.657,5.778,2.995c3.397,1.525,5.851,2.976,7.359,4.351C660.066,254.275,661.202,256.818,661.202,259.831z"/>
	<path fill="#1B1464" d="M689.741,259.831c0,6.969-4.68,10.453-14.037,10.453c-3.417,0-6.451-0.405-9.104-1.215l0.954-4.436
		c3.053,1.093,5.951,1.639,8.695,1.639c6.178,0,9.268-1.809,9.268-5.424c0-1.827-0.8-3.391-2.399-4.689
		c-1.072-0.866-3.18-2.024-6.323-3.476c-3.308-1.525-5.624-2.928-6.95-4.209c-1.836-1.771-2.753-3.992-2.753-6.667
		c0-2.787,0.936-5.057,2.807-6.809c2.09-1.958,5.043-2.938,8.859-2.938c4.324,0,7.286,0.292,8.886,0.875l-0.654,4.492
		c-2.763-0.904-5.697-1.355-8.804-1.355c-4.671,0-7.006,1.619-7.006,4.858c0,1.563,0.673,2.872,2.018,3.927
		c0.872,0.66,2.798,1.657,5.778,2.995c3.397,1.525,5.851,2.976,7.359,4.351C688.605,254.275,689.741,256.818,689.741,259.831z"/>
	<path fill="#1B1464" d="M730.381,259.831c0,6.969-4.68,10.453-14.037,10.453c-3.417,0-6.451-0.405-9.104-1.215l0.954-4.436
		c3.053,1.093,5.951,1.639,8.695,1.639c6.178,0,9.268-1.809,9.268-5.424c0-1.827-0.8-3.391-2.399-4.689
		c-1.072-0.866-3.18-2.024-6.323-3.476c-3.308-1.525-5.624-2.928-6.95-4.209c-1.836-1.771-2.753-3.992-2.753-6.667
		c0-2.787,0.936-5.057,2.807-6.809c2.09-1.958,5.043-2.938,8.859-2.938c4.324,0,7.286,0.292,8.886,0.875l-0.654,4.492
		c-2.763-0.904-5.697-1.355-8.804-1.355c-4.671,0-7.006,1.619-7.006,4.858c0,1.563,0.673,2.872,2.018,3.927
		c0.872,0.66,2.798,1.657,5.778,2.995c3.397,1.525,5.851,2.976,7.359,4.351C729.245,254.275,730.381,256.818,730.381,259.831z"/>
	<path fill="#1B1464" d="M762.245,264.859l-0.354,4.21c-2.234,0.696-4.67,1.045-7.305,1.045c-6.251,0-10.948-1.774-14.092-5.325
		c-3.145-3.55-4.716-7.886-4.716-13.009c0-5.368,1.754-9.996,5.261-13.886c3.507-3.889,8.223-5.833,14.146-5.833
		c1.636,0,3.361,0.254,5.179,0.763l-0.763,4.491c-2.09-0.678-3.952-1.017-5.588-1.017c-4.397,0-7.732,1.412-10.004,4.237
		s-3.406,6.281-3.406,10.368c0,4.162,1.308,7.731,3.925,10.707c2.616,2.976,6.232,4.463,10.848,4.463
		C757.139,266.074,759.429,265.669,762.245,264.859z"/>
	<path fill="#1B1464" d="M795.008,269.351h-5.179c0.182-6.516,0.272-12.354,0.272-17.516h-16.327c0,4.182,0.091,10.021,0.272,17.516
		h-5.179c0.255-6.874,0.382-13.315,0.382-19.323c0-6.29-0.127-12.109-0.382-17.459h5.179c-0.218,5.387-0.326,10.622-0.326,15.708
		h16.436c0-4.087-0.109-9.323-0.327-15.708h5.179c-0.272,5.236-0.408,11.056-0.408,17.459
		C794.6,257.053,794.735,263.494,795.008,269.351z"/>
	<path fill="#1B1464" d="M836.167,250.395c0,6.084-1.718,10.947-5.151,14.592c-3.435,3.644-7.405,5.466-11.912,5.466
		c-4.324,0-8.118-1.671-11.38-5.015c-3.262-3.343-4.893-7.857-4.893-13.546c0-6.158,1.718-11.041,5.151-14.647
		c3.435-3.606,7.405-5.41,11.912-5.41c4.324,0,8.118,1.672,11.38,5.015C834.535,240.193,836.167,244.708,836.167,250.395z
		 M831.315,251.044c0-4.858-1.231-8.62-3.693-11.285c-2.463-2.665-5.302-3.998-8.519-3.998c-2.98,0-5.633,1.403-7.959,4.21
		c-2.326,2.806-3.488,6.554-3.488,11.243c0,4.878,1.239,8.649,3.72,11.314s5.32,3.997,8.519,3.997c2.979,0,5.628-1.422,7.945-4.266
		C830.156,259.417,831.315,255.678,831.315,251.044z"/>
	<path fill="#1B1464" d="M875.444,250.395c0,6.084-1.718,10.947-5.151,14.592c-3.435,3.644-7.405,5.466-11.912,5.466
		c-4.324,0-8.118-1.671-11.38-5.015c-3.262-3.343-4.893-7.857-4.893-13.546c0-6.158,1.718-11.041,5.151-14.647
		c3.435-3.606,7.405-5.41,11.912-5.41c4.324,0,8.118,1.672,11.38,5.015C873.813,240.193,875.444,244.708,875.444,250.395z
		 M870.593,251.044c0-4.858-1.231-8.62-3.693-11.285c-2.463-2.665-5.302-3.998-8.519-3.998c-2.98,0-5.633,1.403-7.959,4.21
		c-2.326,2.806-3.488,6.554-3.488,11.243c0,4.878,1.239,8.649,3.72,11.314s5.32,3.997,8.519,3.997c2.979,0,5.628-1.422,7.945-4.266
		C869.434,259.417,870.593,255.678,870.593,251.044z"/>
	<path fill="#1B1464" d="M904.882,265.199l-0.163,4.152h-21.452c0.219-4.651,0.327-11.093,0.327-19.323
		c0-7.081-0.108-12.9-0.327-17.459h5.07c-0.218,3.805-0.327,9.624-0.327,17.459c0,6.441-0.101,11.602-0.3,15.481
		C893.161,265.509,898.886,265.406,904.882,265.199z"/>
</g>
<rect x="247.387" y="195.408" fill="#C1272D" width="654" height="5"/>
</svg>
